<?xml version="1.0" encoding="UTF-8"?>
<!DOCTYPE svg PUBLIC "-//W3C//DTD SVG 1.1//EN" "http://www.w3.org/Graphics/SVG/1.1/DTD/svg11.dtd">
<svg width="254mm" height="180mm" viewBox="0 0 25400 18000" version="1.1" xmlns="http://www.w3.org/2000/svg" xmlns:xlink="http://www.w3.org/1999/xlink" stroke-width="28.222" stroke-linejoin="round" xml:space="preserve">
 <path fill="rgb(255,255,255)" stroke="none" d="M 12700,17958 L 0,17958 0,0 25400,0 25400,17958 12700,17958 Z"/>
 <path fill="none" stroke="rgb(179,179,179)" stroke-linejoin="round" d="M 12808,15971 L 2326,15971 2326,2874 23290,2874 23290,15971 12808,15971 Z"/>
 <path fill="none" stroke="rgb(179,179,179)" stroke-linejoin="round" d="M 23290,15970 L 2326,15970"/>
 <path fill="none" stroke="rgb(179,179,179)" stroke-linejoin="round" d="M 23290,14514 L 2326,14514"/>
 <path fill="none" stroke="rgb(179,179,179)" stroke-linejoin="round" d="M 23290,13059 L 2326,13059"/>
 <path fill="none" stroke="rgb(179,179,179)" stroke-linejoin="round" d="M 23290,11604 L 2326,11604"/>
 <path fill="none" stroke="rgb(179,179,179)" stroke-linejoin="round" d="M 23290,10148 L 2326,10148"/>
 <path fill="none" stroke="rgb(179,179,179)" stroke-linejoin="round" d="M 23290,8694 L 2326,8694"/>
 <path fill="none" stroke="rgb(179,179,179)" stroke-linejoin="round" d="M 23290,7239 L 2326,7239"/>
 <path fill="none" stroke="rgb(179,179,179)" stroke-linejoin="round" d="M 23290,5783 L 2326,5783"/>
 <path fill="none" stroke="rgb(179,179,179)" stroke-linejoin="round" d="M 23290,4328 L 2326,4328"/>
 <path fill="none" stroke="rgb(179,179,179)" stroke-linejoin="round" d="M 23290,2873 L 2326,2873"/>
 <path fill="none" stroke="rgb(179,179,179)" stroke-linejoin="round" d="M 2326,16120 L 2326,15970"/>
 <path fill="none" stroke="rgb(179,179,179)" stroke-linejoin="round" d="M 2326,16120 L 2326,15970"/>
 <path fill="none" stroke="rgb(179,179,179)" stroke-linejoin="round" d="M 5321,16120 L 5321,15970"/>
 <path fill="none" stroke="rgb(179,179,179)" stroke-linejoin="round" d="M 5321,16120 L 5321,15970"/>
 <path fill="none" stroke="rgb(179,179,179)" stroke-linejoin="round" d="M 8316,16120 L 8316,15970"/>
 <path fill="none" stroke="rgb(179,179,179)" stroke-linejoin="round" d="M 8316,16120 L 8316,15970"/>
 <path fill="none" stroke="rgb(179,179,179)" stroke-linejoin="round" d="M 11311,16120 L 11311,15970"/>
 <path fill="none" stroke="rgb(179,179,179)" stroke-linejoin="round" d="M 11311,16120 L 11311,15970"/>
 <path fill="none" stroke="rgb(179,179,179)" stroke-linejoin="round" d="M 14305,16120 L 14305,15970"/>
 <path fill="none" stroke="rgb(179,179,179)" stroke-linejoin="round" d="M 14305,16120 L 14305,15970"/>
 <path fill="none" stroke="rgb(179,179,179)" stroke-linejoin="round" d="M 17300,16120 L 17300,15970"/>
 <path fill="none" stroke="rgb(179,179,179)" stroke-linejoin="round" d="M 17300,16120 L 17300,15970"/>
 <path fill="none" stroke="rgb(179,179,179)" stroke-linejoin="round" d="M 20295,16120 L 20295,15970"/>
 <path fill="none" stroke="rgb(179,179,179)" stroke-linejoin="round" d="M 20295,16120 L 20295,15970"/>
 <path fill="none" stroke="rgb(179,179,179)" stroke-linejoin="round" d="M 23290,16120 L 23290,15970"/>
 <path fill="none" stroke="rgb(179,179,179)" stroke-linejoin="round" d="M 23290,16120 L 23290,15970"/>
 <path fill="none" stroke="rgb(179,179,179)" stroke-linejoin="round" d="M 2326,15970 L 23290,15970"/>
 <path fill="none" stroke="rgb(179,179,179)" stroke-linejoin="round" d="M 2176,15970 L 2326,15970"/>
 <path fill="none" stroke="rgb(179,179,179)" stroke-linejoin="round" d="M 2176,15970 L 2326,15970"/>
 <path fill="none" stroke="rgb(179,179,179)" stroke-linejoin="round" d="M 2176,14514 L 2326,14514"/>
 <path fill="none" stroke="rgb(179,179,179)" stroke-linejoin="round" d="M 2176,14514 L 2326,14514"/>
 <path fill="none" stroke="rgb(179,179,179)" stroke-linejoin="round" d="M 2176,13059 L 2326,13059"/>
 <path fill="none" stroke="rgb(179,179,179)" stroke-linejoin="round" d="M 2176,13059 L 2326,13059"/>
 <path fill="none" stroke="rgb(179,179,179)" stroke-linejoin="round" d="M 2176,11604 L 2326,11604"/>
 <path fill="none" stroke="rgb(179,179,179)" stroke-linejoin="round" d="M 2176,11604 L 2326,11604"/>
 <path fill="none" stroke="rgb(179,179,179)" stroke-linejoin="round" d="M 2176,10148 L 2326,10148"/>
 <path fill="none" stroke="rgb(179,179,179)" stroke-linejoin="round" d="M 2176,10148 L 2326,10148"/>
 <path fill="none" stroke="rgb(179,179,179)" stroke-linejoin="round" d="M 2176,8694 L 2326,8694"/>
 <path fill="none" stroke="rgb(179,179,179)" stroke-linejoin="round" d="M 2176,8694 L 2326,8694"/>
 <path fill="none" stroke="rgb(179,179,179)" stroke-linejoin="round" d="M 2176,7239 L 2326,7239"/>
 <path fill="none" stroke="rgb(179,179,179)" stroke-linejoin="round" d="M 2176,7239 L 2326,7239"/>
 <path fill="none" stroke="rgb(179,179,179)" stroke-linejoin="round" d="M 2176,5783 L 2326,5783"/>
 <path fill="none" stroke="rgb(179,179,179)" stroke-linejoin="round" d="M 2176,5783 L 2326,5783"/>
 <path fill="none" stroke="rgb(179,179,179)" stroke-linejoin="round" d="M 2176,4328 L 2326,4328"/>
 <path fill="none" stroke="rgb(179,179,179)" stroke-linejoin="round" d="M 2176,4328 L 2326,4328"/>
 <path fill="none" stroke="rgb(179,179,179)" stroke-linejoin="round" d="M 2176,2873 L 2326,2873"/>
 <path fill="none" stroke="rgb(179,179,179)" stroke-linejoin="round" d="M 2176,2873 L 2326,2873"/>
 <path fill="none" stroke="rgb(179,179,179)" stroke-linejoin="round" d="M 2326,15970 L 2326,2873"/>
 <path fill="rgb(0,69,134)" stroke="none" d="M 21043,15970 L 22541,15970 22541,14133 21043,14133 21043,15970 Z"/>
 <path fill="rgb(0,69,134)" stroke="none" d="M 18048,15970 L 19546,15970 19546,14167 18048,14167 18048,15970 Z"/>
 <path fill="rgb(0,69,134)" stroke="none" d="M 15053,15970 L 16551,15970 16551,14208 15053,14208 15053,15970 Z"/>
 <path fill="rgb(0,69,134)" stroke="none" d="M 12059,15970 L 13556,15970 13556,13861 12059,13861 12059,15970 Z"/>
 <path fill="rgb(0,69,134)" stroke="none" d="M 9064,15970 L 10562,15970 10562,12110 9064,12110 9064,15970 Z"/>
 <path fill="rgb(0,69,134)" stroke="none" d="M 6069,15970 L 7567,15970 7567,10217 6069,10217 6069,15970 Z"/>
 <path fill="rgb(0,69,134)" stroke="none" d="M 3074,15970 L 4572,15970 4572,4582 3074,4582 3074,15970 Z"/>
 <text class="TextShape"><tspan class="TextParagraph" font-family="Liberation Sans, sans-serif" font-size="353px" font-weight="400"><tspan class="TextPosition" x="3730" y="16538"><tspan fill="rgb(0,0,0)" stroke="none">1</tspan></tspan></tspan></text>
 <text class="TextShape"><tspan class="TextParagraph" font-family="Liberation Sans, sans-serif" font-size="353px" font-weight="400"><tspan class="TextPosition" x="6725" y="16538"><tspan fill="rgb(0,0,0)" stroke="none">2</tspan></tspan></tspan></text>
 <text class="TextShape"><tspan class="TextParagraph" font-family="Liberation Sans, sans-serif" font-size="353px" font-weight="400"><tspan class="TextPosition" x="9720" y="16538"><tspan fill="rgb(0,0,0)" stroke="none">3</tspan></tspan></tspan></text>
 <text class="TextShape"><tspan class="TextParagraph" font-family="Liberation Sans, sans-serif" font-size="353px" font-weight="400"><tspan class="TextPosition" x="12715" y="16538"><tspan fill="rgb(0,0,0)" stroke="none">6</tspan></tspan></tspan></text>
 <text class="TextShape"><tspan class="TextParagraph" font-family="Liberation Sans, sans-serif" font-size="353px" font-weight="400"><tspan class="TextPosition" x="15618" y="16538"><tspan fill="rgb(0,0,0)" stroke="none">12</tspan></tspan></tspan></text>
 <text class="TextShape"><tspan class="TextParagraph" font-family="Liberation Sans, sans-serif" font-size="353px" font-weight="400"><tspan class="TextPosition" x="18613" y="16538"><tspan fill="rgb(0,0,0)" stroke="none">18</tspan></tspan></tspan></text>
 <text class="TextShape"><tspan class="TextParagraph" font-family="Liberation Sans, sans-serif" font-size="353px" font-weight="400"><tspan class="TextPosition" x="21608" y="16538"><tspan fill="rgb(0,0,0)" stroke="none">24</tspan></tspan></tspan></text>
 <text class="TextShape"><tspan class="TextParagraph" font-family="Liberation Sans, sans-serif" font-size="353px" font-weight="400"><tspan class="TextPosition" x="1891" y="16091"><tspan fill="rgb(0,0,0)" stroke="none">0</tspan></tspan></tspan></text>
 <text class="TextShape"><tspan class="TextParagraph" font-family="Liberation Sans, sans-serif" font-size="353px" font-weight="400"><tspan class="TextPosition" x="1706" y="14635"><tspan fill="rgb(0,0,0)" stroke="none">25</tspan></tspan></tspan></text>
 <text class="TextShape"><tspan class="TextParagraph" font-family="Liberation Sans, sans-serif" font-size="353px" font-weight="400"><tspan class="TextPosition" x="1706" y="13180"><tspan fill="rgb(0,0,0)" stroke="none">50</tspan></tspan></tspan></text>
 <text class="TextShape"><tspan class="TextParagraph" font-family="Liberation Sans, sans-serif" font-size="353px" font-weight="400"><tspan class="TextPosition" x="1706" y="11725"><tspan fill="rgb(0,0,0)" stroke="none">75</tspan></tspan></tspan></text>
 <text class="TextShape"><tspan class="TextParagraph" font-family="Liberation Sans, sans-serif" font-size="353px" font-weight="400"><tspan class="TextPosition" x="1520" y="10269"><tspan fill="rgb(0,0,0)" stroke="none">100</tspan></tspan></tspan></text>
 <text class="TextShape"><tspan class="TextParagraph" font-family="Liberation Sans, sans-serif" font-size="353px" font-weight="400"><tspan class="TextPosition" x="1520" y="8814"><tspan fill="rgb(0,0,0)" stroke="none">125</tspan></tspan></tspan></text>
 <text class="TextShape"><tspan class="TextParagraph" font-family="Liberation Sans, sans-serif" font-size="353px" font-weight="400"><tspan class="TextPosition" x="1520" y="7359"><tspan fill="rgb(0,0,0)" stroke="none">150</tspan></tspan></tspan></text>
 <text class="TextShape"><tspan class="TextParagraph" font-family="Liberation Sans, sans-serif" font-size="353px" font-weight="400"><tspan class="TextPosition" x="1520" y="5903"><tspan fill="rgb(0,0,0)" stroke="none">175</tspan></tspan></tspan></text>
 <text class="TextShape"><tspan class="TextParagraph" font-family="Liberation Sans, sans-serif" font-size="353px" font-weight="400"><tspan class="TextPosition" x="1520" y="4448"><tspan fill="rgb(0,0,0)" stroke="none">200</tspan></tspan></tspan></text>
 <text class="TextShape"><tspan class="TextParagraph" font-family="Liberation Sans, sans-serif" font-size="353px" font-weight="400"><tspan class="TextPosition" x="1520" y="2993"><tspan fill="rgb(0,0,0)" stroke="none">225</tspan></tspan></tspan></text>
 <text class="TextShape"><tspan class="TextParagraph" font-family="Liberation Sans, sans-serif" font-size="459px" font-weight="400"><tspan class="TextPosition" x="10901" y="1030"><tspan fill="rgb(0,0,0)" stroke="none">Vergleich Threads</tspan></tspan></tspan></text>
 <text class="TextShape"><tspan class="TextParagraph" font-family="Liberation Sans, sans-serif" font-size="388px" font-weight="400"><tspan class="TextPosition" x="10199" y="2119"><tspan fill="rgb(0,0,0)" stroke="none">partdiff_blatt3_threaded - gcc</tspan></tspan></tspan></text>
 <path fill="rgb(0,69,134)" stroke="none" d="M 24020,9083 L 23914,9083 23914,8873 24125,8873 24125,9083 24020,9083 Z"/>
 <text class="TextShape"><tspan class="TextParagraph" font-family="Liberation Sans, sans-serif" font-size="353px" font-weight="400"><tspan class="TextPosition" x="24225" y="9097"><tspan fill="rgb(0,0,0)" stroke="none">mean</tspan></tspan></tspan></text>
 <text class="TextShape"><tspan class="TextParagraph" font-family="Liberation Sans, sans-serif" font-size="318px" font-weight="400"><tspan class="TextPosition" x="11809" y="17364"><tspan fill="rgb(0,0,0)" stroke="none">Threads</tspan></tspan></tspan></text>
 <text class="TextShape" transform="rotate(-90 837 10202)"><tspan class="TextParagraph" font-family="Liberation Sans, sans-serif" font-size="318px" font-weight="400"><tspan class="TextPosition" x="837" y="10202"><tspan fill="rgb(0,0,0)" stroke="none">Zeit in s</tspan></tspan></tspan></text>
</svg>