<?xml version="1.0" encoding="UTF-8"?>
<!DOCTYPE svg PUBLIC "-//W3C//DTD SVG 1.1//EN" "http://www.w3.org/Graphics/SVG/1.1/DTD/svg11.dtd">
<svg width="254mm" height="180mm" viewBox="0 0 25400 18000" version="1.1" xmlns="http://www.w3.org/2000/svg" xmlns:xlink="http://www.w3.org/1999/xlink" stroke-width="28.222" stroke-linejoin="round" xml:space="preserve">
 <path fill="rgb(255,255,255)" stroke="none" d="M 12700,17958 L 0,17958 0,0 25400,0 25400,17958 12700,17958 Z"/>
 <path fill="none" stroke="rgb(179,179,179)" stroke-linejoin="round" d="M 13329,15971 L 2140,15971 2140,2875 24519,2875 24519,15971 13329,15971 Z"/>
 <path fill="none" stroke="rgb(179,179,179)" stroke-linejoin="round" d="M 24519,15970 L 2140,15970"/>
 <path fill="none" stroke="rgb(179,179,179)" stroke-linejoin="round" d="M 24519,15346 L 2140,15346"/>
 <path fill="none" stroke="rgb(179,179,179)" stroke-linejoin="round" d="M 24519,14722 L 2140,14722"/>
 <path fill="none" stroke="rgb(179,179,179)" stroke-linejoin="round" d="M 24519,14099 L 2140,14099"/>
 <path fill="none" stroke="rgb(179,179,179)" stroke-linejoin="round" d="M 24519,13475 L 2140,13475"/>
 <path fill="none" stroke="rgb(179,179,179)" stroke-linejoin="round" d="M 24519,12851 L 2140,12851"/>
 <path fill="none" stroke="rgb(179,179,179)" stroke-linejoin="round" d="M 24519,12228 L 2140,12228"/>
 <path fill="none" stroke="rgb(179,179,179)" stroke-linejoin="round" d="M 24519,11604 L 2140,11604"/>
 <path fill="none" stroke="rgb(179,179,179)" stroke-linejoin="round" d="M 24519,10980 L 2140,10980"/>
 <path fill="none" stroke="rgb(179,179,179)" stroke-linejoin="round" d="M 24519,10357 L 2140,10357"/>
 <path fill="none" stroke="rgb(179,179,179)" stroke-linejoin="round" d="M 24519,9733 L 2140,9733"/>
 <path fill="none" stroke="rgb(179,179,179)" stroke-linejoin="round" d="M 24519,9109 L 2140,9109"/>
 <path fill="none" stroke="rgb(179,179,179)" stroke-linejoin="round" d="M 24519,8487 L 2140,8487"/>
 <path fill="none" stroke="rgb(179,179,179)" stroke-linejoin="round" d="M 24519,7863 L 2140,7863"/>
 <path fill="none" stroke="rgb(179,179,179)" stroke-linejoin="round" d="M 24519,7239 L 2140,7239"/>
 <path fill="none" stroke="rgb(179,179,179)" stroke-linejoin="round" d="M 24519,6615 L 2140,6615"/>
 <path fill="none" stroke="rgb(179,179,179)" stroke-linejoin="round" d="M 24519,5992 L 2140,5992"/>
 <path fill="none" stroke="rgb(179,179,179)" stroke-linejoin="round" d="M 24519,5368 L 2140,5368"/>
 <path fill="none" stroke="rgb(179,179,179)" stroke-linejoin="round" d="M 24519,4744 L 2140,4744"/>
 <path fill="none" stroke="rgb(179,179,179)" stroke-linejoin="round" d="M 24519,4121 L 2140,4121"/>
 <path fill="none" stroke="rgb(179,179,179)" stroke-linejoin="round" d="M 24519,3497 L 2140,3497"/>
 <path fill="none" stroke="rgb(179,179,179)" stroke-linejoin="round" d="M 24519,2873 L 2140,2873"/>
 <path fill="none" stroke="rgb(179,179,179)" stroke-linejoin="round" d="M 2140,16120 L 2140,15970"/>
 <path fill="none" stroke="rgb(179,179,179)" stroke-linejoin="round" d="M 2140,16120 L 2140,15970"/>
 <path fill="none" stroke="rgb(179,179,179)" stroke-linejoin="round" d="M 6616,16120 L 6616,15970"/>
 <path fill="none" stroke="rgb(179,179,179)" stroke-linejoin="round" d="M 6616,16120 L 6616,15970"/>
 <path fill="none" stroke="rgb(179,179,179)" stroke-linejoin="round" d="M 11092,16120 L 11092,15970"/>
 <path fill="none" stroke="rgb(179,179,179)" stroke-linejoin="round" d="M 11092,16120 L 11092,15970"/>
 <path fill="none" stroke="rgb(179,179,179)" stroke-linejoin="round" d="M 15567,16120 L 15567,15970"/>
 <path fill="none" stroke="rgb(179,179,179)" stroke-linejoin="round" d="M 15567,16120 L 15567,15970"/>
 <path fill="none" stroke="rgb(179,179,179)" stroke-linejoin="round" d="M 20043,16120 L 20043,15970"/>
 <path fill="none" stroke="rgb(179,179,179)" stroke-linejoin="round" d="M 20043,16120 L 20043,15970"/>
 <path fill="none" stroke="rgb(179,179,179)" stroke-linejoin="round" d="M 24519,16120 L 24519,15970"/>
 <path fill="none" stroke="rgb(179,179,179)" stroke-linejoin="round" d="M 24519,16120 L 24519,15970"/>
 <path fill="none" stroke="rgb(179,179,179)" stroke-linejoin="round" d="M 2140,15970 L 24519,15970"/>
 <path fill="none" stroke="rgb(179,179,179)" stroke-linejoin="round" d="M 1990,15970 L 2140,15970"/>
 <path fill="none" stroke="rgb(179,179,179)" stroke-linejoin="round" d="M 1990,15970 L 2140,15970"/>
 <path fill="none" stroke="rgb(179,179,179)" stroke-linejoin="round" d="M 1990,15346 L 2140,15346"/>
 <path fill="none" stroke="rgb(179,179,179)" stroke-linejoin="round" d="M 1990,15346 L 2140,15346"/>
 <path fill="none" stroke="rgb(179,179,179)" stroke-linejoin="round" d="M 1990,14722 L 2140,14722"/>
 <path fill="none" stroke="rgb(179,179,179)" stroke-linejoin="round" d="M 1990,14722 L 2140,14722"/>
 <path fill="none" stroke="rgb(179,179,179)" stroke-linejoin="round" d="M 1990,14099 L 2140,14099"/>
 <path fill="none" stroke="rgb(179,179,179)" stroke-linejoin="round" d="M 1990,14099 L 2140,14099"/>
 <path fill="none" stroke="rgb(179,179,179)" stroke-linejoin="round" d="M 1990,13475 L 2140,13475"/>
 <path fill="none" stroke="rgb(179,179,179)" stroke-linejoin="round" d="M 1990,13475 L 2140,13475"/>
 <path fill="none" stroke="rgb(179,179,179)" stroke-linejoin="round" d="M 1990,12851 L 2140,12851"/>
 <path fill="none" stroke="rgb(179,179,179)" stroke-linejoin="round" d="M 1990,12851 L 2140,12851"/>
 <path fill="none" stroke="rgb(179,179,179)" stroke-linejoin="round" d="M 1990,12228 L 2140,12228"/>
 <path fill="none" stroke="rgb(179,179,179)" stroke-linejoin="round" d="M 1990,12228 L 2140,12228"/>
 <path fill="none" stroke="rgb(179,179,179)" stroke-linejoin="round" d="M 1990,11604 L 2140,11604"/>
 <path fill="none" stroke="rgb(179,179,179)" stroke-linejoin="round" d="M 1990,11604 L 2140,11604"/>
 <path fill="none" stroke="rgb(179,179,179)" stroke-linejoin="round" d="M 1990,10980 L 2140,10980"/>
 <path fill="none" stroke="rgb(179,179,179)" stroke-linejoin="round" d="M 1990,10980 L 2140,10980"/>
 <path fill="none" stroke="rgb(179,179,179)" stroke-linejoin="round" d="M 1990,10357 L 2140,10357"/>
 <path fill="none" stroke="rgb(179,179,179)" stroke-linejoin="round" d="M 1990,10357 L 2140,10357"/>
 <path fill="none" stroke="rgb(179,179,179)" stroke-linejoin="round" d="M 1990,9733 L 2140,9733"/>
 <path fill="none" stroke="rgb(179,179,179)" stroke-linejoin="round" d="M 1990,9733 L 2140,9733"/>
 <path fill="none" stroke="rgb(179,179,179)" stroke-linejoin="round" d="M 1990,9109 L 2140,9109"/>
 <path fill="none" stroke="rgb(179,179,179)" stroke-linejoin="round" d="M 1990,9109 L 2140,9109"/>
 <path fill="none" stroke="rgb(179,179,179)" stroke-linejoin="round" d="M 1990,8486 L 2140,8486"/>
 <path fill="none" stroke="rgb(179,179,179)" stroke-linejoin="round" d="M 1990,8486 L 2140,8486"/>
 <path fill="none" stroke="rgb(179,179,179)" stroke-linejoin="round" d="M 1990,7863 L 2140,7863"/>
 <path fill="none" stroke="rgb(179,179,179)" stroke-linejoin="round" d="M 1990,7863 L 2140,7863"/>
 <path fill="none" stroke="rgb(179,179,179)" stroke-linejoin="round" d="M 1990,7239 L 2140,7239"/>
 <path fill="none" stroke="rgb(179,179,179)" stroke-linejoin="round" d="M 1990,7239 L 2140,7239"/>
 <path fill="none" stroke="rgb(179,179,179)" stroke-linejoin="round" d="M 1990,6615 L 2140,6615"/>
 <path fill="none" stroke="rgb(179,179,179)" stroke-linejoin="round" d="M 1990,6615 L 2140,6615"/>
 <path fill="none" stroke="rgb(179,179,179)" stroke-linejoin="round" d="M 1990,5992 L 2140,5992"/>
 <path fill="none" stroke="rgb(179,179,179)" stroke-linejoin="round" d="M 1990,5992 L 2140,5992"/>
 <path fill="none" stroke="rgb(179,179,179)" stroke-linejoin="round" d="M 1990,5368 L 2140,5368"/>
 <path fill="none" stroke="rgb(179,179,179)" stroke-linejoin="round" d="M 1990,5368 L 2140,5368"/>
 <path fill="none" stroke="rgb(179,179,179)" stroke-linejoin="round" d="M 1990,4744 L 2140,4744"/>
 <path fill="none" stroke="rgb(179,179,179)" stroke-linejoin="round" d="M 1990,4744 L 2140,4744"/>
 <path fill="none" stroke="rgb(179,179,179)" stroke-linejoin="round" d="M 1990,4121 L 2140,4121"/>
 <path fill="none" stroke="rgb(179,179,179)" stroke-linejoin="round" d="M 1990,4121 L 2140,4121"/>
 <path fill="none" stroke="rgb(179,179,179)" stroke-linejoin="round" d="M 1990,3497 L 2140,3497"/>
 <path fill="none" stroke="rgb(179,179,179)" stroke-linejoin="round" d="M 1990,3497 L 2140,3497"/>
 <path fill="none" stroke="rgb(179,179,179)" stroke-linejoin="round" d="M 1990,2873 L 2140,2873"/>
 <path fill="none" stroke="rgb(179,179,179)" stroke-linejoin="round" d="M 1990,2873 L 2140,2873"/>
 <path fill="none" stroke="rgb(179,179,179)" stroke-linejoin="round" d="M 2140,15970 L 2140,2873"/>
 <path fill="none" stroke="rgb(0,69,134)" stroke-width="80" stroke-linejoin="round" d="M 3035,3770 L 3083,4126 3132,4481 3180,4835 3229,5187 3277,5535 3324,5879 3372,6218 3419,6551 3465,6878 3511,7198 3557,7509 3601,7811 3645,8104 3689,8386 3731,8656 3773,8914 3814,9158 3854,9389 3892,9606 3930,9807 3966,9991 4002,10161 4037,10316 4072,10459 4107,10589 4142,10708 4178,10818 4214,10918 4252,11011 4291,11097 4332,11178 4375,11255 4420,11327 4468,11398 4518,11467 4572,11537 4630,11607 4691,11679 4756,11755 4825,11834 4899,11919 4978,12008 5062,12101 5151,12198 5246,12297 5347,12399 5454,12502 5567,12607 5687,12711 5814,12816 5947,12919 6089,13021 6237,13121 6394,13218 6558,13312 6731,13402 6913,13488 7103,13568 7302,13642 7511,13710 7729,13771 7956,13826 8191,13874 8434,13917 8684,13953 8941,13985 9204,14012 9472,14034 9744,14052 10021,14066 10301,14077 10585,14085 10870,14090 11157,14093 11446,14094 11734,14093 12023,14092 12311,14089 12597,14085 12881,14082 13163,14079 13443,14076 13720,14073 13996,14070 14269,14067 14541,14065 14812,14062 15080,14060 15348,14058 15614,14056 15880,14054 16144,14052 16408,14050 16672,14049 16935,14047 17198,14045 17461,14044 17725,14042 17988,14040 18252,14039 18517,14037 18782,14035 19048,14034 19314,14032 19581,14030 19848,14028 20116,14027 20384,14025 20653,14023 20922,14021 21191,14019 21461,14017 21730,14015 22000,14013 22271,14011 22541,14010 22811,14008 23082,14006 23353,14004 23623,14002"/>
 <text class="TextShape"><tspan class="TextParagraph" font-family="Liberation Sans, sans-serif" font-size="353px" font-weight="400"><tspan class="TextPosition" x="2047" y="16538"><tspan fill="rgb(0,0,0)" stroke="none">0</tspan></tspan></tspan></text>
 <text class="TextShape"><tspan class="TextParagraph" font-family="Liberation Sans, sans-serif" font-size="353px" font-weight="400"><tspan class="TextPosition" x="6523" y="16538"><tspan fill="rgb(0,0,0)" stroke="none">5</tspan></tspan></tspan></text>
 <text class="TextShape"><tspan class="TextParagraph" font-family="Liberation Sans, sans-serif" font-size="353px" font-weight="400"><tspan class="TextPosition" x="10907" y="16538"><tspan fill="rgb(0,0,0)" stroke="none">10</tspan></tspan></tspan></text>
 <text class="TextShape"><tspan class="TextParagraph" font-family="Liberation Sans, sans-serif" font-size="353px" font-weight="400"><tspan class="TextPosition" x="15383" y="16538"><tspan fill="rgb(0,0,0)" stroke="none">15</tspan></tspan></tspan></text>
 <text class="TextShape"><tspan class="TextParagraph" font-family="Liberation Sans, sans-serif" font-size="353px" font-weight="400"><tspan class="TextPosition" x="19859" y="16538"><tspan fill="rgb(0,0,0)" stroke="none">20</tspan></tspan></tspan></text>
 <text class="TextShape"><tspan class="TextParagraph" font-family="Liberation Sans, sans-serif" font-size="353px" font-weight="400"><tspan class="TextPosition" x="24335" y="16538"><tspan fill="rgb(0,0,0)" stroke="none">25</tspan></tspan></tspan></text>
 <text class="TextShape"><tspan class="TextParagraph" font-family="Liberation Sans, sans-serif" font-size="353px" font-weight="400"><tspan class="TextPosition" x="1705" y="16091"><tspan fill="rgb(0,0,0)" stroke="none">0</tspan></tspan></tspan></text>
 <text class="TextShape"><tspan class="TextParagraph" font-family="Liberation Sans, sans-serif" font-size="353px" font-weight="400"><tspan class="TextPosition" x="1520" y="15467"><tspan fill="rgb(0,0,0)" stroke="none">10</tspan></tspan></tspan></text>
 <text class="TextShape"><tspan class="TextParagraph" font-family="Liberation Sans, sans-serif" font-size="353px" font-weight="400"><tspan class="TextPosition" x="1520" y="14843"><tspan fill="rgb(0,0,0)" stroke="none">20</tspan></tspan></tspan></text>
 <text class="TextShape"><tspan class="TextParagraph" font-family="Liberation Sans, sans-serif" font-size="353px" font-weight="400"><tspan class="TextPosition" x="1520" y="14220"><tspan fill="rgb(0,0,0)" stroke="none">30</tspan></tspan></tspan></text>
 <text class="TextShape"><tspan class="TextParagraph" font-family="Liberation Sans, sans-serif" font-size="353px" font-weight="400"><tspan class="TextPosition" x="1520" y="13596"><tspan fill="rgb(0,0,0)" stroke="none">40</tspan></tspan></tspan></text>
 <text class="TextShape"><tspan class="TextParagraph" font-family="Liberation Sans, sans-serif" font-size="353px" font-weight="400"><tspan class="TextPosition" x="1520" y="12972"><tspan fill="rgb(0,0,0)" stroke="none">50</tspan></tspan></tspan></text>
 <text class="TextShape"><tspan class="TextParagraph" font-family="Liberation Sans, sans-serif" font-size="353px" font-weight="400"><tspan class="TextPosition" x="1520" y="12349"><tspan fill="rgb(0,0,0)" stroke="none">60</tspan></tspan></tspan></text>
 <text class="TextShape"><tspan class="TextParagraph" font-family="Liberation Sans, sans-serif" font-size="353px" font-weight="400"><tspan class="TextPosition" x="1520" y="11725"><tspan fill="rgb(0,0,0)" stroke="none">70</tspan></tspan></tspan></text>
 <text class="TextShape"><tspan class="TextParagraph" font-family="Liberation Sans, sans-serif" font-size="353px" font-weight="400"><tspan class="TextPosition" x="1520" y="11101"><tspan fill="rgb(0,0,0)" stroke="none">80</tspan></tspan></tspan></text>
 <text class="TextShape"><tspan class="TextParagraph" font-family="Liberation Sans, sans-serif" font-size="353px" font-weight="400"><tspan class="TextPosition" x="1520" y="10478"><tspan fill="rgb(0,0,0)" stroke="none">90</tspan></tspan></tspan></text>
 <text class="TextShape"><tspan class="TextParagraph" font-family="Liberation Sans, sans-serif" font-size="353px" font-weight="400"><tspan class="TextPosition" x="1334" y="9854"><tspan fill="rgb(0,0,0)" stroke="none">100</tspan></tspan></tspan></text>
 <text class="TextShape"><tspan class="TextParagraph" font-family="Liberation Sans, sans-serif" font-size="353px" font-weight="400"><tspan class="TextPosition" x="1334" y="9230"><tspan fill="rgb(0,0,0)" stroke="none">110</tspan></tspan></tspan></text>
 <text class="TextShape"><tspan class="TextParagraph" font-family="Liberation Sans, sans-serif" font-size="353px" font-weight="400"><tspan class="TextPosition" x="1334" y="8606"><tspan fill="rgb(0,0,0)" stroke="none">120</tspan></tspan></tspan></text>
 <text class="TextShape"><tspan class="TextParagraph" font-family="Liberation Sans, sans-serif" font-size="353px" font-weight="400"><tspan class="TextPosition" x="1334" y="7983"><tspan fill="rgb(0,0,0)" stroke="none">130</tspan></tspan></tspan></text>
 <text class="TextShape"><tspan class="TextParagraph" font-family="Liberation Sans, sans-serif" font-size="353px" font-weight="400"><tspan class="TextPosition" x="1334" y="7359"><tspan fill="rgb(0,0,0)" stroke="none">140</tspan></tspan></tspan></text>
 <text class="TextShape"><tspan class="TextParagraph" font-family="Liberation Sans, sans-serif" font-size="353px" font-weight="400"><tspan class="TextPosition" x="1334" y="6735"><tspan fill="rgb(0,0,0)" stroke="none">150</tspan></tspan></tspan></text>
 <text class="TextShape"><tspan class="TextParagraph" font-family="Liberation Sans, sans-serif" font-size="353px" font-weight="400"><tspan class="TextPosition" x="1334" y="6112"><tspan fill="rgb(0,0,0)" stroke="none">160</tspan></tspan></tspan></text>
 <text class="TextShape"><tspan class="TextParagraph" font-family="Liberation Sans, sans-serif" font-size="353px" font-weight="400"><tspan class="TextPosition" x="1334" y="5488"><tspan fill="rgb(0,0,0)" stroke="none">170</tspan></tspan></tspan></text>
 <text class="TextShape"><tspan class="TextParagraph" font-family="Liberation Sans, sans-serif" font-size="353px" font-weight="400"><tspan class="TextPosition" x="1334" y="4864"><tspan fill="rgb(0,0,0)" stroke="none">180</tspan></tspan></tspan></text>
 <text class="TextShape"><tspan class="TextParagraph" font-family="Liberation Sans, sans-serif" font-size="353px" font-weight="400"><tspan class="TextPosition" x="1334" y="4241"><tspan fill="rgb(0,0,0)" stroke="none">190</tspan></tspan></tspan></text>
 <text class="TextShape"><tspan class="TextParagraph" font-family="Liberation Sans, sans-serif" font-size="353px" font-weight="400"><tspan class="TextPosition" x="1334" y="3617"><tspan fill="rgb(0,0,0)" stroke="none">200</tspan></tspan></tspan></text>
 <text class="TextShape"><tspan class="TextParagraph" font-family="Liberation Sans, sans-serif" font-size="353px" font-weight="400"><tspan class="TextPosition" x="1334" y="2993"><tspan fill="rgb(0,0,0)" stroke="none">210</tspan></tspan></tspan></text>
 <text class="TextShape"><tspan class="TextParagraph" font-family="Liberation Sans, sans-serif" font-size="459px" font-weight="400"><tspan class="TextPosition" x="10980" y="1030"><tspan fill="rgb(0,0,0)" stroke="none">Vegleich Threads</tspan></tspan></tspan></text>
 <text class="TextShape"><tspan class="TextParagraph" font-family="Liberation Sans, sans-serif" font-size="388px" font-weight="400"><tspan class="TextPosition" x="10199" y="2119"><tspan fill="rgb(0,0,0)" stroke="none">partdiff_blatt3_threaded - gcc</tspan></tspan></tspan></text>
 <text class="TextShape"><tspan class="TextParagraph" font-family="Liberation Sans, sans-serif" font-size="318px" font-weight="400"><tspan class="TextPosition" x="12610" y="17364"><tspan fill="rgb(0,0,0)" stroke="none">Threads</tspan></tspan></tspan></text>
 <text class="TextShape" transform="rotate(-90 837 10202)"><tspan class="TextParagraph" font-family="Liberation Sans, sans-serif" font-size="318px" font-weight="400"><tspan class="TextPosition" x="837" y="10202"><tspan fill="rgb(0,0,0)" stroke="none">Zeit in s</tspan></tspan></tspan></text>
</svg>