<?xml version="1.0" encoding="UTF-8"?>
<!DOCTYPE svg PUBLIC "-//W3C//DTD SVG 1.1//EN" "http://www.w3.org/Graphics/SVG/1.1/DTD/svg11.dtd">
<svg width="254mm" height="180mm" viewBox="0 0 25400 18000" version="1.1" xmlns="http://www.w3.org/2000/svg" xmlns:xlink="http://www.w3.org/1999/xlink" stroke-width="28.222" stroke-linejoin="round" xml:space="preserve">
 <path fill="rgb(255,255,255)" stroke="none" d="M 12700,17958 L 0,17958 0,0 25400,0 25400,17958 12700,17958 Z"/>
 <path fill="none" stroke="rgb(179,179,179)" stroke-linejoin="round" d="M 10530,15971 L 2326,15971 2326,1832 18733,1832 18733,15971 10530,15971 Z"/>
 <path fill="none" stroke="rgb(179,179,179)" stroke-linejoin="round" d="M 18733,15970 L 2326,15970"/>
 <path fill="none" stroke="rgb(179,179,179)" stroke-linejoin="round" d="M 18733,14556 L 2326,14556"/>
 <path fill="none" stroke="rgb(179,179,179)" stroke-linejoin="round" d="M 18733,13142 L 2326,13142"/>
 <path fill="none" stroke="rgb(179,179,179)" stroke-linejoin="round" d="M 18733,11728 L 2326,11728"/>
 <path fill="none" stroke="rgb(179,179,179)" stroke-linejoin="round" d="M 18733,10314 L 2326,10314"/>
 <path fill="none" stroke="rgb(179,179,179)" stroke-linejoin="round" d="M 18733,8901 L 2326,8901"/>
 <path fill="none" stroke="rgb(179,179,179)" stroke-linejoin="round" d="M 18733,7487 L 2326,7487"/>
 <path fill="none" stroke="rgb(179,179,179)" stroke-linejoin="round" d="M 18733,6073 L 2326,6073"/>
 <path fill="none" stroke="rgb(179,179,179)" stroke-linejoin="round" d="M 18733,4659 L 2326,4659"/>
 <path fill="none" stroke="rgb(179,179,179)" stroke-linejoin="round" d="M 18733,3245 L 2326,3245"/>
 <path fill="none" stroke="rgb(179,179,179)" stroke-linejoin="round" d="M 18733,1831 L 2326,1831"/>
 <path fill="none" stroke="rgb(179,179,179)" stroke-linejoin="round" d="M 2326,16120 L 2326,15970"/>
 <path fill="none" stroke="rgb(179,179,179)" stroke-linejoin="round" d="M 2326,16120 L 2326,15970"/>
 <path fill="none" stroke="rgb(179,179,179)" stroke-linejoin="round" d="M 4670,16120 L 4670,15970"/>
 <path fill="none" stroke="rgb(179,179,179)" stroke-linejoin="round" d="M 4670,16120 L 4670,15970"/>
 <path fill="none" stroke="rgb(179,179,179)" stroke-linejoin="round" d="M 7014,16120 L 7014,15970"/>
 <path fill="none" stroke="rgb(179,179,179)" stroke-linejoin="round" d="M 7014,16120 L 7014,15970"/>
 <path fill="none" stroke="rgb(179,179,179)" stroke-linejoin="round" d="M 9358,16120 L 9358,15970"/>
 <path fill="none" stroke="rgb(179,179,179)" stroke-linejoin="round" d="M 9358,16120 L 9358,15970"/>
 <path fill="none" stroke="rgb(179,179,179)" stroke-linejoin="round" d="M 11702,16120 L 11702,15970"/>
 <path fill="none" stroke="rgb(179,179,179)" stroke-linejoin="round" d="M 11702,16120 L 11702,15970"/>
 <path fill="none" stroke="rgb(179,179,179)" stroke-linejoin="round" d="M 14044,16120 L 14044,15970"/>
 <path fill="none" stroke="rgb(179,179,179)" stroke-linejoin="round" d="M 14044,16120 L 14044,15970"/>
 <path fill="none" stroke="rgb(179,179,179)" stroke-linejoin="round" d="M 16389,16120 L 16389,15970"/>
 <path fill="none" stroke="rgb(179,179,179)" stroke-linejoin="round" d="M 16389,16120 L 16389,15970"/>
 <path fill="none" stroke="rgb(179,179,179)" stroke-linejoin="round" d="M 18733,16120 L 18733,15970"/>
 <path fill="none" stroke="rgb(179,179,179)" stroke-linejoin="round" d="M 18733,16120 L 18733,15970"/>
 <path fill="none" stroke="rgb(179,179,179)" stroke-linejoin="round" d="M 2326,15970 L 18733,15970"/>
 <path fill="none" stroke="rgb(179,179,179)" stroke-linejoin="round" d="M 2176,15970 L 2326,15970"/>
 <path fill="none" stroke="rgb(179,179,179)" stroke-linejoin="round" d="M 2176,15970 L 2326,15970"/>
 <path fill="none" stroke="rgb(179,179,179)" stroke-linejoin="round" d="M 2176,14556 L 2326,14556"/>
 <path fill="none" stroke="rgb(179,179,179)" stroke-linejoin="round" d="M 2176,14556 L 2326,14556"/>
 <path fill="none" stroke="rgb(179,179,179)" stroke-linejoin="round" d="M 2176,13142 L 2326,13142"/>
 <path fill="none" stroke="rgb(179,179,179)" stroke-linejoin="round" d="M 2176,13142 L 2326,13142"/>
 <path fill="none" stroke="rgb(179,179,179)" stroke-linejoin="round" d="M 2176,11728 L 2326,11728"/>
 <path fill="none" stroke="rgb(179,179,179)" stroke-linejoin="round" d="M 2176,11728 L 2326,11728"/>
 <path fill="none" stroke="rgb(179,179,179)" stroke-linejoin="round" d="M 2176,10314 L 2326,10314"/>
 <path fill="none" stroke="rgb(179,179,179)" stroke-linejoin="round" d="M 2176,10314 L 2326,10314"/>
 <path fill="none" stroke="rgb(179,179,179)" stroke-linejoin="round" d="M 2176,8901 L 2326,8901"/>
 <path fill="none" stroke="rgb(179,179,179)" stroke-linejoin="round" d="M 2176,8901 L 2326,8901"/>
 <path fill="none" stroke="rgb(179,179,179)" stroke-linejoin="round" d="M 2176,7487 L 2326,7487"/>
 <path fill="none" stroke="rgb(179,179,179)" stroke-linejoin="round" d="M 2176,7487 L 2326,7487"/>
 <path fill="none" stroke="rgb(179,179,179)" stroke-linejoin="round" d="M 2176,6072 L 2326,6072"/>
 <path fill="none" stroke="rgb(179,179,179)" stroke-linejoin="round" d="M 2176,6072 L 2326,6072"/>
 <path fill="none" stroke="rgb(179,179,179)" stroke-linejoin="round" d="M 2176,4659 L 2326,4659"/>
 <path fill="none" stroke="rgb(179,179,179)" stroke-linejoin="round" d="M 2176,4659 L 2326,4659"/>
 <path fill="none" stroke="rgb(179,179,179)" stroke-linejoin="round" d="M 2176,3245 L 2326,3245"/>
 <path fill="none" stroke="rgb(179,179,179)" stroke-linejoin="round" d="M 2176,3245 L 2326,3245"/>
 <path fill="none" stroke="rgb(179,179,179)" stroke-linejoin="round" d="M 2176,1831 L 2326,1831"/>
 <path fill="none" stroke="rgb(179,179,179)" stroke-linejoin="round" d="M 2176,1831 L 2326,1831"/>
 <path fill="none" stroke="rgb(179,179,179)" stroke-linejoin="round" d="M 2326,15970 L 2326,1831"/>
 <path fill="rgb(0,69,134)" stroke="none" d="M 16623,15970 L 17092,15970 17092,15008 16623,15008 16623,15970 Z"/>
 <path fill="rgb(0,69,134)" stroke="none" d="M 14279,15970 L 14748,15970 14748,14856 14279,14856 14279,15970 Z"/>
 <path fill="rgb(0,69,134)" stroke="none" d="M 11936,15970 L 12405,15970 12405,14756 11936,14756 11936,15970 Z"/>
 <path fill="rgb(0,69,134)" stroke="none" d="M 9592,15970 L 10061,15970 10061,13756 9592,13756 9592,15970 Z"/>
 <path fill="rgb(0,69,134)" stroke="none" d="M 7248,15970 L 7717,15970 7717,11658 7248,11658 7248,15970 Z"/>
 <path fill="rgb(0,69,134)" stroke="none" d="M 4904,15970 L 5373,15970 5373,9572 4904,9572 4904,15970 Z"/>
 <path fill="rgb(0,69,134)" stroke="none" d="M 2560,15970 L 3029,15970 3029,3287 2560,3287 2560,15970 Z"/>
 <path fill="rgb(255,66,14)" stroke="none" d="M 17092,15970 L 17560,15970 17560,15020 17092,15020 17092,15970 Z"/>
 <path fill="rgb(255,66,14)" stroke="none" d="M 14748,15970 L 15216,15970 15216,14862 14748,14862 14748,15970 Z"/>
 <path fill="rgb(255,66,14)" stroke="none" d="M 12405,15970 L 12872,15970 12872,14756 12405,14756 12405,15970 Z"/>
 <path fill="rgb(255,66,14)" stroke="none" d="M 10061,15970 L 10529,15970 10529,13781 10061,13781 10061,15970 Z"/>
 <path fill="rgb(255,66,14)" stroke="none" d="M 7717,15970 L 8186,15970 8186,11744 7717,11744 7717,15970 Z"/>
 <path fill="rgb(255,66,14)" stroke="none" d="M 5373,15970 L 5842,15970 5842,9695 5373,9695 5373,15970 Z"/>
 <path fill="rgb(255,66,14)" stroke="none" d="M 3029,15970 L 3498,15970 3498,3547 3029,3547 3029,15970 Z"/>
 <path fill="rgb(87,157,28)" stroke="none" d="M 17561,15970 L 18029,15970 18029,15071 17561,15071 17561,15970 Z"/>
 <path fill="rgb(87,157,28)" stroke="none" d="M 15217,15970 L 15685,15970 15685,14911 15217,14911 15217,15970 Z"/>
 <path fill="rgb(87,157,28)" stroke="none" d="M 12873,15970 L 13341,15970 13341,14798 12873,14798 12873,15970 Z"/>
 <path fill="rgb(87,157,28)" stroke="none" d="M 10530,15970 L 10998,15970 10998,13847 10530,13847 10530,15970 Z"/>
 <path fill="rgb(87,157,28)" stroke="none" d="M 8186,15970 L 8654,15970 8654,11854 8186,11854 8186,15970 Z"/>
 <path fill="rgb(87,157,28)" stroke="none" d="M 5842,15970 L 6310,15970 6310,9866 5842,9866 5842,15970 Z"/>
 <path fill="rgb(87,157,28)" stroke="none" d="M 3498,15970 L 3966,15970 3966,3858 3498,3858 3498,15970 Z"/>
 <path fill="rgb(126,0,33)" stroke="none" d="M 18029,15970 L 18498,15970 18498,15513 18029,15513 18029,15970 Z"/>
 <path fill="rgb(126,0,33)" stroke="none" d="M 15685,15970 L 16154,15970 16154,15505 15685,15505 15685,15970 Z"/>
 <path fill="rgb(126,0,33)" stroke="none" d="M 13341,15970 L 13810,15970 13810,15504 13341,15504 13341,15970 Z"/>
 <path fill="rgb(126,0,33)" stroke="none" d="M 10998,15970 L 11467,15970 11467,15445 10998,15445 10998,15970 Z"/>
 <path fill="rgb(126,0,33)" stroke="none" d="M 8654,15970 L 9123,15970 9123,15072 8654,15072 8654,15970 Z"/>
 <path fill="rgb(126,0,33)" stroke="none" d="M 6310,15970 L 6779,15970 6779,14678 6310,14678 6310,15970 Z"/>
 <path fill="rgb(126,0,33)" stroke="none" d="M 3966,15970 L 4435,15970 4435,13483 3966,13483 3966,15970 Z"/>
 <path fill="none" stroke="rgb(131,202,255)" stroke-width="80" stroke-linejoin="round" d="M 3498,3833 L 5842,3833 8186,3833 10530,3833 12873,3833 15217,3833 17561,3833"/>
 <path fill="none" stroke="rgb(255,211,32)" stroke-linejoin="round" d="M 3498,3797 L 5842,3797 8186,3797 10530,3797 12873,3797 15217,3797 17561,3797"/>
 <text class="TextShape"><tspan class="TextParagraph" font-family="Liberation Sans, sans-serif" font-size="353px" font-weight="400"><tspan class="TextPosition" x="3405" y="16538"><tspan fill="rgb(0,0,0)" stroke="none">1</tspan></tspan></tspan></text>
 <text class="TextShape"><tspan class="TextParagraph" font-family="Liberation Sans, sans-serif" font-size="353px" font-weight="400"><tspan class="TextPosition" x="5749" y="16538"><tspan fill="rgb(0,0,0)" stroke="none">2</tspan></tspan></tspan></text>
 <text class="TextShape"><tspan class="TextParagraph" font-family="Liberation Sans, sans-serif" font-size="353px" font-weight="400"><tspan class="TextPosition" x="8092" y="16538"><tspan fill="rgb(0,0,0)" stroke="none">3</tspan></tspan></tspan></text>
 <text class="TextShape"><tspan class="TextParagraph" font-family="Liberation Sans, sans-serif" font-size="353px" font-weight="400"><tspan class="TextPosition" x="10437" y="16538"><tspan fill="rgb(0,0,0)" stroke="none">6</tspan></tspan></tspan></text>
 <text class="TextShape"><tspan class="TextParagraph" font-family="Liberation Sans, sans-serif" font-size="353px" font-weight="400"><tspan class="TextPosition" x="12688" y="16538"><tspan fill="rgb(0,0,0)" stroke="none">12</tspan></tspan></tspan></text>
 <text class="TextShape"><tspan class="TextParagraph" font-family="Liberation Sans, sans-serif" font-size="353px" font-weight="400"><tspan class="TextPosition" x="15033" y="16538"><tspan fill="rgb(0,0,0)" stroke="none">18</tspan></tspan></tspan></text>
 <text class="TextShape"><tspan class="TextParagraph" font-family="Liberation Sans, sans-serif" font-size="353px" font-weight="400"><tspan class="TextPosition" x="17377" y="16538"><tspan fill="rgb(0,0,0)" stroke="none">24</tspan></tspan></tspan></text>
 <text class="TextShape"><tspan class="TextParagraph" font-family="Liberation Sans, sans-serif" font-size="353px" font-weight="400"><tspan class="TextPosition" x="1891" y="16091"><tspan fill="rgb(0,0,0)" stroke="none">0</tspan></tspan></tspan></text>
 <text class="TextShape"><tspan class="TextParagraph" font-family="Liberation Sans, sans-serif" font-size="353px" font-weight="400"><tspan class="TextPosition" x="1706" y="14677"><tspan fill="rgb(0,0,0)" stroke="none">20</tspan></tspan></tspan></text>
 <text class="TextShape"><tspan class="TextParagraph" font-family="Liberation Sans, sans-serif" font-size="353px" font-weight="400"><tspan class="TextPosition" x="1706" y="13263"><tspan fill="rgb(0,0,0)" stroke="none">40</tspan></tspan></tspan></text>
 <text class="TextShape"><tspan class="TextParagraph" font-family="Liberation Sans, sans-serif" font-size="353px" font-weight="400"><tspan class="TextPosition" x="1706" y="11849"><tspan fill="rgb(0,0,0)" stroke="none">60</tspan></tspan></tspan></text>
 <text class="TextShape"><tspan class="TextParagraph" font-family="Liberation Sans, sans-serif" font-size="353px" font-weight="400"><tspan class="TextPosition" x="1706" y="10435"><tspan fill="rgb(0,0,0)" stroke="none">80</tspan></tspan></tspan></text>
 <text class="TextShape"><tspan class="TextParagraph" font-family="Liberation Sans, sans-serif" font-size="353px" font-weight="400"><tspan class="TextPosition" x="1520" y="9021"><tspan fill="rgb(0,0,0)" stroke="none">100</tspan></tspan></tspan></text>
 <text class="TextShape"><tspan class="TextParagraph" font-family="Liberation Sans, sans-serif" font-size="353px" font-weight="400"><tspan class="TextPosition" x="1520" y="7607"><tspan fill="rgb(0,0,0)" stroke="none">120</tspan></tspan></tspan></text>
 <text class="TextShape"><tspan class="TextParagraph" font-family="Liberation Sans, sans-serif" font-size="353px" font-weight="400"><tspan class="TextPosition" x="1520" y="6192"><tspan fill="rgb(0,0,0)" stroke="none">140</tspan></tspan></tspan></text>
 <text class="TextShape"><tspan class="TextParagraph" font-family="Liberation Sans, sans-serif" font-size="353px" font-weight="400"><tspan class="TextPosition" x="1520" y="4779"><tspan fill="rgb(0,0,0)" stroke="none">160</tspan></tspan></tspan></text>
 <text class="TextShape"><tspan class="TextParagraph" font-family="Liberation Sans, sans-serif" font-size="353px" font-weight="400"><tspan class="TextPosition" x="1520" y="3365"><tspan fill="rgb(0,0,0)" stroke="none">180</tspan></tspan></tspan></text>
 <text class="TextShape"><tspan class="TextParagraph" font-family="Liberation Sans, sans-serif" font-size="353px" font-weight="400"><tspan class="TextPosition" x="1520" y="1951"><tspan fill="rgb(0,0,0)" stroke="none">200</tspan></tspan></tspan></text>
 <text class="TextShape"><tspan class="TextParagraph" font-family="Liberation Sans, sans-serif" font-size="459px" font-weight="400"><tspan class="TextPosition" x="7990" y="1030"><tspan fill="rgb(0,0,0)" stroke="none">Vergleich Threads, Programmversion, Compiler</tspan></tspan></tspan></text>
 <path fill="rgb(0,69,134)" stroke="none" d="M 19757,7839 L 19357,7839 19357,7628 20157,7628 20157,7839 19757,7839 Z"/>
 <path fill="rgb(255,66,14)" stroke="none" d="M 19757,8337 L 19357,8337 19357,8126 20157,8126 20157,8337 19757,8337 Z"/>
 <path fill="rgb(87,157,28)" stroke="none" d="M 19757,8835 L 19357,8835 19357,8624 20157,8624 20157,8835 19757,8835 Z"/>
 <path fill="rgb(126,0,33)" stroke="none" d="M 19757,9332 L 19357,9332 19357,9121 20157,9121 20157,9332 19757,9332 Z"/>
 <path fill="none" stroke="rgb(131,202,255)" stroke-width="80" stroke-linejoin="round" d="M 19357,9724 L 20157,9724"/>
 <path fill="none" stroke="rgb(255,211,32)" stroke-linejoin="round" d="M 19357,10222 L 20157,10222"/>
 <text class="TextShape"><tspan class="TextParagraph" font-family="Liberation Sans, sans-serif" font-size="353px" font-weight="400"><tspan class="TextPosition" x="20257" y="7853"><tspan fill="rgb(0,0,0)" stroke="none">partdiff - clang</tspan></tspan></tspan></text>
 <text class="TextShape"><tspan class="TextParagraph" font-family="Liberation Sans, sans-serif" font-size="353px" font-weight="400"><tspan class="TextPosition" x="20257" y="8351"><tspan fill="rgb(0,0,0)" stroke="none">partdiff_blatt3_threaded – clang</tspan></tspan></tspan></text>
 <text class="TextShape"><tspan class="TextParagraph" font-family="Liberation Sans, sans-serif" font-size="353px" font-weight="400"><tspan class="TextPosition" x="20257" y="8849"><tspan fill="rgb(0,0,0)" stroke="none">partdiff - gcc</tspan></tspan></tspan></text>
 <text class="TextShape"><tspan class="TextParagraph" font-family="Liberation Sans, sans-serif" font-size="353px" font-weight="400"><tspan class="TextPosition" x="20257" y="9346"><tspan fill="rgb(0,0,0)" stroke="none">partdiff_blatt3_threaded – gcc</tspan></tspan></tspan></text>
 <text class="TextShape"><tspan class="TextParagraph" font-family="Liberation Sans, sans-serif" font-size="353px" font-weight="400"><tspan class="TextPosition" x="20257" y="9844"><tspan fill="rgb(0,0,0)" stroke="none">partdiff_orig – gcc</tspan></tspan></tspan></text>
 <text class="TextShape"><tspan class="TextParagraph" font-family="Liberation Sans, sans-serif" font-size="353px" font-weight="400"><tspan class="TextPosition" x="20257" y="10342"><tspan fill="rgb(0,0,0)" stroke="none">partdiff_orig – clang</tspan></tspan></tspan></text>
 <text class="TextShape"><tspan class="TextParagraph" font-family="Liberation Sans, sans-serif" font-size="318px" font-weight="400"><tspan class="TextPosition" x="9530" y="17364"><tspan fill="rgb(0,0,0)" stroke="none">Threads</tspan></tspan></tspan></text>
 <text class="TextShape" transform="rotate(-90 837 9681)"><tspan class="TextParagraph" font-family="Liberation Sans, sans-serif" font-size="318px" font-weight="400"><tspan class="TextPosition" x="837" y="9681"><tspan fill="rgb(0,0,0)" stroke="none">Zeit in s</tspan></tspan></tspan></text>
</svg>
