<?xml version="1.0" encoding="UTF-8"?>
<!DOCTYPE svg PUBLIC "-//W3C//DTD SVG 1.1//EN" "http://www.w3.org/Graphics/SVG/1.1/DTD/svg11.dtd">
<svg width="254mm" height="180mm" viewBox="0 0 25400 18000" version="1.1" xmlns="http://www.w3.org/2000/svg" xmlns:xlink="http://www.w3.org/1999/xlink" stroke-width="28.222" stroke-linejoin="round" xml:space="preserve">
 <path fill="rgb(255,255,255)" stroke="none" d="M 12700,17958 L 0,17958 0,0 25400,0 25400,17958 12700,17958 Z"/>
 <path fill="none" stroke="rgb(179,179,179)" stroke-linejoin="round" d="M 13609,15971 L 2326,15971 2326,2874 24892,2874 24892,15971 13609,15971 Z"/>
 <path fill="none" stroke="rgb(179,179,179)" stroke-linejoin="round" d="M 24892,15970 L 2326,15970"/>
 <path fill="none" stroke="rgb(179,179,179)" stroke-linejoin="round" d="M 24892,14514 L 2326,14514"/>
 <path fill="none" stroke="rgb(179,179,179)" stroke-linejoin="round" d="M 24892,13059 L 2326,13059"/>
 <path fill="none" stroke="rgb(179,179,179)" stroke-linejoin="round" d="M 24892,11604 L 2326,11604"/>
 <path fill="none" stroke="rgb(179,179,179)" stroke-linejoin="round" d="M 24892,10148 L 2326,10148"/>
 <path fill="none" stroke="rgb(179,179,179)" stroke-linejoin="round" d="M 24892,8694 L 2326,8694"/>
 <path fill="none" stroke="rgb(179,179,179)" stroke-linejoin="round" d="M 24892,7239 L 2326,7239"/>
 <path fill="none" stroke="rgb(179,179,179)" stroke-linejoin="round" d="M 24892,5783 L 2326,5783"/>
 <path fill="none" stroke="rgb(179,179,179)" stroke-linejoin="round" d="M 24892,4328 L 2326,4328"/>
 <path fill="none" stroke="rgb(179,179,179)" stroke-linejoin="round" d="M 24892,2873 L 2326,2873"/>
 <path fill="none" stroke="rgb(179,179,179)" stroke-linejoin="round" d="M 2326,16120 L 2326,15970"/>
 <path fill="none" stroke="rgb(179,179,179)" stroke-linejoin="round" d="M 2326,16120 L 2326,15970"/>
 <path fill="none" stroke="rgb(179,179,179)" stroke-linejoin="round" d="M 5549,16120 L 5549,15970"/>
 <path fill="none" stroke="rgb(179,179,179)" stroke-linejoin="round" d="M 5549,16120 L 5549,15970"/>
 <path fill="none" stroke="rgb(179,179,179)" stroke-linejoin="round" d="M 8773,16120 L 8773,15970"/>
 <path fill="none" stroke="rgb(179,179,179)" stroke-linejoin="round" d="M 8773,16120 L 8773,15970"/>
 <path fill="none" stroke="rgb(179,179,179)" stroke-linejoin="round" d="M 11997,16120 L 11997,15970"/>
 <path fill="none" stroke="rgb(179,179,179)" stroke-linejoin="round" d="M 11997,16120 L 11997,15970"/>
 <path fill="none" stroke="rgb(179,179,179)" stroke-linejoin="round" d="M 15220,16120 L 15220,15970"/>
 <path fill="none" stroke="rgb(179,179,179)" stroke-linejoin="round" d="M 15220,16120 L 15220,15970"/>
 <path fill="none" stroke="rgb(179,179,179)" stroke-linejoin="round" d="M 18444,16120 L 18444,15970"/>
 <path fill="none" stroke="rgb(179,179,179)" stroke-linejoin="round" d="M 18444,16120 L 18444,15970"/>
 <path fill="none" stroke="rgb(179,179,179)" stroke-linejoin="round" d="M 21668,16120 L 21668,15970"/>
 <path fill="none" stroke="rgb(179,179,179)" stroke-linejoin="round" d="M 21668,16120 L 21668,15970"/>
 <path fill="none" stroke="rgb(179,179,179)" stroke-linejoin="round" d="M 24892,16120 L 24892,15970"/>
 <path fill="none" stroke="rgb(179,179,179)" stroke-linejoin="round" d="M 24892,16120 L 24892,15970"/>
 <path fill="none" stroke="rgb(179,179,179)" stroke-linejoin="round" d="M 2326,15970 L 24892,15970"/>
 <path fill="none" stroke="rgb(179,179,179)" stroke-linejoin="round" d="M 2176,15970 L 2326,15970"/>
 <path fill="none" stroke="rgb(179,179,179)" stroke-linejoin="round" d="M 2176,15970 L 2326,15970"/>
 <path fill="none" stroke="rgb(179,179,179)" stroke-linejoin="round" d="M 2176,14514 L 2326,14514"/>
 <path fill="none" stroke="rgb(179,179,179)" stroke-linejoin="round" d="M 2176,14514 L 2326,14514"/>
 <path fill="none" stroke="rgb(179,179,179)" stroke-linejoin="round" d="M 2176,13059 L 2326,13059"/>
 <path fill="none" stroke="rgb(179,179,179)" stroke-linejoin="round" d="M 2176,13059 L 2326,13059"/>
 <path fill="none" stroke="rgb(179,179,179)" stroke-linejoin="round" d="M 2176,11604 L 2326,11604"/>
 <path fill="none" stroke="rgb(179,179,179)" stroke-linejoin="round" d="M 2176,11604 L 2326,11604"/>
 <path fill="none" stroke="rgb(179,179,179)" stroke-linejoin="round" d="M 2176,10148 L 2326,10148"/>
 <path fill="none" stroke="rgb(179,179,179)" stroke-linejoin="round" d="M 2176,10148 L 2326,10148"/>
 <path fill="none" stroke="rgb(179,179,179)" stroke-linejoin="round" d="M 2176,8694 L 2326,8694"/>
 <path fill="none" stroke="rgb(179,179,179)" stroke-linejoin="round" d="M 2176,8694 L 2326,8694"/>
 <path fill="none" stroke="rgb(179,179,179)" stroke-linejoin="round" d="M 2176,7239 L 2326,7239"/>
 <path fill="none" stroke="rgb(179,179,179)" stroke-linejoin="round" d="M 2176,7239 L 2326,7239"/>
 <path fill="none" stroke="rgb(179,179,179)" stroke-linejoin="round" d="M 2176,5783 L 2326,5783"/>
 <path fill="none" stroke="rgb(179,179,179)" stroke-linejoin="round" d="M 2176,5783 L 2326,5783"/>
 <path fill="none" stroke="rgb(179,179,179)" stroke-linejoin="round" d="M 2176,4328 L 2326,4328"/>
 <path fill="none" stroke="rgb(179,179,179)" stroke-linejoin="round" d="M 2176,4328 L 2326,4328"/>
 <path fill="none" stroke="rgb(179,179,179)" stroke-linejoin="round" d="M 2176,2873 L 2326,2873"/>
 <path fill="none" stroke="rgb(179,179,179)" stroke-linejoin="round" d="M 2176,2873 L 2326,2873"/>
 <path fill="none" stroke="rgb(179,179,179)" stroke-linejoin="round" d="M 2326,15970 L 2326,2873"/>
 <path fill="rgb(0,69,134)" stroke="none" d="M 22474,15970 L 24086,15970 24086,14133 22474,14133 22474,15970 Z"/>
 <path fill="rgb(0,69,134)" stroke="none" d="M 19250,15970 L 20862,15970 20862,14167 19250,14167 19250,15970 Z"/>
 <path fill="rgb(0,69,134)" stroke="none" d="M 16026,15970 L 17638,15970 17638,14208 16026,14208 16026,15970 Z"/>
 <path fill="rgb(0,69,134)" stroke="none" d="M 12802,15970 L 14414,15970 14414,13861 12802,13861 12802,15970 Z"/>
 <path fill="rgb(0,69,134)" stroke="none" d="M 9579,15970 L 11191,15970 11191,12110 9579,12110 9579,15970 Z"/>
 <path fill="rgb(0,69,134)" stroke="none" d="M 6355,15970 L 7967,15970 7967,10217 6355,10217 6355,15970 Z"/>
 <path fill="rgb(0,69,134)" stroke="none" d="M 3131,15970 L 4743,15970 4743,4582 3131,4582 3131,15970 Z"/>
 <text class="TextShape"><tspan class="TextParagraph" font-family="Liberation Sans, sans-serif" font-size="353px" font-weight="400"><tspan class="TextPosition" x="3844" y="16538"><tspan fill="rgb(0,0,0)" stroke="none">1</tspan></tspan></tspan></text>
 <text class="TextShape"><tspan class="TextParagraph" font-family="Liberation Sans, sans-serif" font-size="353px" font-weight="400"><tspan class="TextPosition" x="7068" y="16538"><tspan fill="rgb(0,0,0)" stroke="none">2</tspan></tspan></tspan></text>
 <text class="TextShape"><tspan class="TextParagraph" font-family="Liberation Sans, sans-serif" font-size="353px" font-weight="400"><tspan class="TextPosition" x="10292" y="16538"><tspan fill="rgb(0,0,0)" stroke="none">3</tspan></tspan></tspan></text>
 <text class="TextShape"><tspan class="TextParagraph" font-family="Liberation Sans, sans-serif" font-size="353px" font-weight="400"><tspan class="TextPosition" x="13516" y="16538"><tspan fill="rgb(0,0,0)" stroke="none">6</tspan></tspan></tspan></text>
 <text class="TextShape"><tspan class="TextParagraph" font-family="Liberation Sans, sans-serif" font-size="353px" font-weight="400"><tspan class="TextPosition" x="16648" y="16538"><tspan fill="rgb(0,0,0)" stroke="none">12</tspan></tspan></tspan></text>
 <text class="TextShape"><tspan class="TextParagraph" font-family="Liberation Sans, sans-serif" font-size="353px" font-weight="400"><tspan class="TextPosition" x="19872" y="16538"><tspan fill="rgb(0,0,0)" stroke="none">18</tspan></tspan></tspan></text>
 <text class="TextShape"><tspan class="TextParagraph" font-family="Liberation Sans, sans-serif" font-size="353px" font-weight="400"><tspan class="TextPosition" x="23096" y="16538"><tspan fill="rgb(0,0,0)" stroke="none">24</tspan></tspan></tspan></text>
 <text class="TextShape"><tspan class="TextParagraph" font-family="Liberation Sans, sans-serif" font-size="353px" font-weight="400"><tspan class="TextPosition" x="1891" y="16091"><tspan fill="rgb(0,0,0)" stroke="none">0</tspan></tspan></tspan></text>
 <text class="TextShape"><tspan class="TextParagraph" font-family="Liberation Sans, sans-serif" font-size="353px" font-weight="400"><tspan class="TextPosition" x="1706" y="14635"><tspan fill="rgb(0,0,0)" stroke="none">25</tspan></tspan></tspan></text>
 <text class="TextShape"><tspan class="TextParagraph" font-family="Liberation Sans, sans-serif" font-size="353px" font-weight="400"><tspan class="TextPosition" x="1706" y="13180"><tspan fill="rgb(0,0,0)" stroke="none">50</tspan></tspan></tspan></text>
 <text class="TextShape"><tspan class="TextParagraph" font-family="Liberation Sans, sans-serif" font-size="353px" font-weight="400"><tspan class="TextPosition" x="1706" y="11725"><tspan fill="rgb(0,0,0)" stroke="none">75</tspan></tspan></tspan></text>
 <text class="TextShape"><tspan class="TextParagraph" font-family="Liberation Sans, sans-serif" font-size="353px" font-weight="400"><tspan class="TextPosition" x="1520" y="10269"><tspan fill="rgb(0,0,0)" stroke="none">100</tspan></tspan></tspan></text>
 <text class="TextShape"><tspan class="TextParagraph" font-family="Liberation Sans, sans-serif" font-size="353px" font-weight="400"><tspan class="TextPosition" x="1520" y="8814"><tspan fill="rgb(0,0,0)" stroke="none">125</tspan></tspan></tspan></text>
 <text class="TextShape"><tspan class="TextParagraph" font-family="Liberation Sans, sans-serif" font-size="353px" font-weight="400"><tspan class="TextPosition" x="1520" y="7359"><tspan fill="rgb(0,0,0)" stroke="none">150</tspan></tspan></tspan></text>
 <text class="TextShape"><tspan class="TextParagraph" font-family="Liberation Sans, sans-serif" font-size="353px" font-weight="400"><tspan class="TextPosition" x="1520" y="5903"><tspan fill="rgb(0,0,0)" stroke="none">175</tspan></tspan></tspan></text>
 <text class="TextShape"><tspan class="TextParagraph" font-family="Liberation Sans, sans-serif" font-size="353px" font-weight="400"><tspan class="TextPosition" x="1520" y="4448"><tspan fill="rgb(0,0,0)" stroke="none">200</tspan></tspan></tspan></text>
 <text class="TextShape"><tspan class="TextParagraph" font-family="Liberation Sans, sans-serif" font-size="353px" font-weight="400"><tspan class="TextPosition" x="1520" y="2993"><tspan fill="rgb(0,0,0)" stroke="none">225</tspan></tspan></tspan></text>
 <text class="TextShape"><tspan class="TextParagraph" font-family="Liberation Sans, sans-serif" font-size="459px" font-weight="400"><tspan class="TextPosition" x="10901" y="1030"><tspan fill="rgb(0,0,0)" stroke="none">Vergleich Threads</tspan></tspan></tspan></text>
 <text class="TextShape"><tspan class="TextParagraph" font-family="Liberation Sans, sans-serif" font-size="388px" font-weight="400"><tspan class="TextPosition" x="10199" y="2119"><tspan fill="rgb(0,0,0)" stroke="none">partdiff_blatt3_threaded - gcc</tspan></tspan></tspan></text>
 <text class="TextShape"><tspan class="TextParagraph" font-family="Liberation Sans, sans-serif" font-size="318px" font-weight="400"><tspan class="TextPosition" x="12610" y="17364"><tspan fill="rgb(0,0,0)" stroke="none">Threads</tspan></tspan></tspan></text>
 <text class="TextShape" transform="rotate(-90 837 10202)"><tspan class="TextParagraph" font-family="Liberation Sans, sans-serif" font-size="318px" font-weight="400"><tspan class="TextPosition" x="837" y="10202"><tspan fill="rgb(0,0,0)" stroke="none">Zeit in s</tspan></tspan></tspan></text>
</svg>