<?xml version="1.0" encoding="UTF-8"?>
<!DOCTYPE svg PUBLIC "-//W3C//DTD SVG 1.1//EN" "http://www.w3.org/Graphics/SVG/1.1/DTD/svg11.dtd">
<svg width="251mm" height="163mm" viewBox="0 0 25100 16300" version="1.1" xmlns="http://www.w3.org/2000/svg" xmlns:xlink="http://www.w3.org/1999/xlink" stroke-width="28.222" stroke-linejoin="round" xml:space="preserve">
 <path fill="rgb(255,255,255)" stroke="none" d="M 12570,16282 L 0,16282 0,0 25139,0 25139,16282 12570,16282 Z"/>
 <path fill="none" stroke="rgb(179,179,179)" stroke-linejoin="round" d="M 11480,14329 L 1949,14329 1949,1764 21010,1764 21010,14329 11480,14329 Z"/>
 <path fill="none" stroke="rgb(179,179,179)" stroke-linejoin="round" d="M 21010,14328 L 1949,14328"/>
 <path fill="none" stroke="rgb(179,179,179)" stroke-linejoin="round" d="M 21010,12532 L 1949,12532"/>
 <path fill="none" stroke="rgb(179,179,179)" stroke-linejoin="round" d="M 21010,10737 L 1949,10737"/>
 <path fill="none" stroke="rgb(179,179,179)" stroke-linejoin="round" d="M 21010,8942 L 1949,8942"/>
 <path fill="none" stroke="rgb(179,179,179)" stroke-linejoin="round" d="M 21010,7148 L 1949,7148"/>
 <path fill="none" stroke="rgb(179,179,179)" stroke-linejoin="round" d="M 21010,5353 L 1949,5353"/>
 <path fill="none" stroke="rgb(179,179,179)" stroke-linejoin="round" d="M 21010,3558 L 1949,3558"/>
 <path fill="none" stroke="rgb(179,179,179)" stroke-linejoin="round" d="M 21010,1763 L 1949,1763"/>
 <path fill="none" stroke="rgb(179,179,179)" stroke-linejoin="round" d="M 1949,14478 L 1949,14328"/>
 <path fill="none" stroke="rgb(179,179,179)" stroke-linejoin="round" d="M 1949,14478 L 1949,14328"/>
 <path fill="none" stroke="rgb(179,179,179)" stroke-linejoin="round" d="M 2777,14478 L 2777,14328"/>
 <path fill="none" stroke="rgb(179,179,179)" stroke-linejoin="round" d="M 2777,14478 L 2777,14328"/>
 <path fill="none" stroke="rgb(179,179,179)" stroke-linejoin="round" d="M 3606,14478 L 3606,14328"/>
 <path fill="none" stroke="rgb(179,179,179)" stroke-linejoin="round" d="M 3606,14478 L 3606,14328"/>
 <path fill="none" stroke="rgb(179,179,179)" stroke-linejoin="round" d="M 4435,14478 L 4435,14328"/>
 <path fill="none" stroke="rgb(179,179,179)" stroke-linejoin="round" d="M 4435,14478 L 4435,14328"/>
 <path fill="none" stroke="rgb(179,179,179)" stroke-linejoin="round" d="M 5264,14478 L 5264,14328"/>
 <path fill="none" stroke="rgb(179,179,179)" stroke-linejoin="round" d="M 5264,14478 L 5264,14328"/>
 <path fill="none" stroke="rgb(179,179,179)" stroke-linejoin="round" d="M 6092,14478 L 6092,14328"/>
 <path fill="none" stroke="rgb(179,179,179)" stroke-linejoin="round" d="M 6092,14478 L 6092,14328"/>
 <path fill="none" stroke="rgb(179,179,179)" stroke-linejoin="round" d="M 6921,14478 L 6921,14328"/>
 <path fill="none" stroke="rgb(179,179,179)" stroke-linejoin="round" d="M 6921,14478 L 6921,14328"/>
 <path fill="none" stroke="rgb(179,179,179)" stroke-linejoin="round" d="M 7750,14478 L 7750,14328"/>
 <path fill="none" stroke="rgb(179,179,179)" stroke-linejoin="round" d="M 7750,14478 L 7750,14328"/>
 <path fill="none" stroke="rgb(179,179,179)" stroke-linejoin="round" d="M 8579,14478 L 8579,14328"/>
 <path fill="none" stroke="rgb(179,179,179)" stroke-linejoin="round" d="M 8579,14478 L 8579,14328"/>
 <path fill="none" stroke="rgb(179,179,179)" stroke-linejoin="round" d="M 9408,14478 L 9408,14328"/>
 <path fill="none" stroke="rgb(179,179,179)" stroke-linejoin="round" d="M 9408,14478 L 9408,14328"/>
 <path fill="none" stroke="rgb(179,179,179)" stroke-linejoin="round" d="M 10236,14478 L 10236,14328"/>
 <path fill="none" stroke="rgb(179,179,179)" stroke-linejoin="round" d="M 10236,14478 L 10236,14328"/>
 <path fill="none" stroke="rgb(179,179,179)" stroke-linejoin="round" d="M 11065,14478 L 11065,14328"/>
 <path fill="none" stroke="rgb(179,179,179)" stroke-linejoin="round" d="M 11065,14478 L 11065,14328"/>
 <path fill="none" stroke="rgb(179,179,179)" stroke-linejoin="round" d="M 11894,14478 L 11894,14328"/>
 <path fill="none" stroke="rgb(179,179,179)" stroke-linejoin="round" d="M 11894,14478 L 11894,14328"/>
 <path fill="none" stroke="rgb(179,179,179)" stroke-linejoin="round" d="M 12722,14478 L 12722,14328"/>
 <path fill="none" stroke="rgb(179,179,179)" stroke-linejoin="round" d="M 12722,14478 L 12722,14328"/>
 <path fill="none" stroke="rgb(179,179,179)" stroke-linejoin="round" d="M 13550,14478 L 13550,14328"/>
 <path fill="none" stroke="rgb(179,179,179)" stroke-linejoin="round" d="M 13550,14478 L 13550,14328"/>
 <path fill="none" stroke="rgb(179,179,179)" stroke-linejoin="round" d="M 14379,14478 L 14379,14328"/>
 <path fill="none" stroke="rgb(179,179,179)" stroke-linejoin="round" d="M 14379,14478 L 14379,14328"/>
 <path fill="none" stroke="rgb(179,179,179)" stroke-linejoin="round" d="M 15208,14478 L 15208,14328"/>
 <path fill="none" stroke="rgb(179,179,179)" stroke-linejoin="round" d="M 15208,14478 L 15208,14328"/>
 <path fill="none" stroke="rgb(179,179,179)" stroke-linejoin="round" d="M 16037,14478 L 16037,14328"/>
 <path fill="none" stroke="rgb(179,179,179)" stroke-linejoin="round" d="M 16037,14478 L 16037,14328"/>
 <path fill="none" stroke="rgb(179,179,179)" stroke-linejoin="round" d="M 16866,14478 L 16866,14328"/>
 <path fill="none" stroke="rgb(179,179,179)" stroke-linejoin="round" d="M 16866,14478 L 16866,14328"/>
 <path fill="none" stroke="rgb(179,179,179)" stroke-linejoin="round" d="M 17694,14478 L 17694,14328"/>
 <path fill="none" stroke="rgb(179,179,179)" stroke-linejoin="round" d="M 17694,14478 L 17694,14328"/>
 <path fill="none" stroke="rgb(179,179,179)" stroke-linejoin="round" d="M 18523,14478 L 18523,14328"/>
 <path fill="none" stroke="rgb(179,179,179)" stroke-linejoin="round" d="M 18523,14478 L 18523,14328"/>
 <path fill="none" stroke="rgb(179,179,179)" stroke-linejoin="round" d="M 19352,14478 L 19352,14328"/>
 <path fill="none" stroke="rgb(179,179,179)" stroke-linejoin="round" d="M 19352,14478 L 19352,14328"/>
 <path fill="none" stroke="rgb(179,179,179)" stroke-linejoin="round" d="M 20181,14478 L 20181,14328"/>
 <path fill="none" stroke="rgb(179,179,179)" stroke-linejoin="round" d="M 20181,14478 L 20181,14328"/>
 <path fill="none" stroke="rgb(179,179,179)" stroke-linejoin="round" d="M 21010,14478 L 21010,14328"/>
 <path fill="none" stroke="rgb(179,179,179)" stroke-linejoin="round" d="M 21010,14478 L 21010,14328"/>
 <path fill="none" stroke="rgb(179,179,179)" stroke-linejoin="round" d="M 1949,14328 L 21010,14328"/>
 <path fill="none" stroke="rgb(179,179,179)" stroke-linejoin="round" d="M 1799,14328 L 1949,14328"/>
 <path fill="none" stroke="rgb(179,179,179)" stroke-linejoin="round" d="M 1799,14328 L 1949,14328"/>
 <path fill="none" stroke="rgb(179,179,179)" stroke-linejoin="round" d="M 1799,12532 L 1949,12532"/>
 <path fill="none" stroke="rgb(179,179,179)" stroke-linejoin="round" d="M 1799,12532 L 1949,12532"/>
 <path fill="none" stroke="rgb(179,179,179)" stroke-linejoin="round" d="M 1799,10737 L 1949,10737"/>
 <path fill="none" stroke="rgb(179,179,179)" stroke-linejoin="round" d="M 1799,10737 L 1949,10737"/>
 <path fill="none" stroke="rgb(179,179,179)" stroke-linejoin="round" d="M 1799,8942 L 1949,8942"/>
 <path fill="none" stroke="rgb(179,179,179)" stroke-linejoin="round" d="M 1799,8942 L 1949,8942"/>
 <path fill="none" stroke="rgb(179,179,179)" stroke-linejoin="round" d="M 1799,7148 L 1949,7148"/>
 <path fill="none" stroke="rgb(179,179,179)" stroke-linejoin="round" d="M 1799,7148 L 1949,7148"/>
 <path fill="none" stroke="rgb(179,179,179)" stroke-linejoin="round" d="M 1799,5353 L 1949,5353"/>
 <path fill="none" stroke="rgb(179,179,179)" stroke-linejoin="round" d="M 1799,5353 L 1949,5353"/>
 <path fill="none" stroke="rgb(179,179,179)" stroke-linejoin="round" d="M 1799,3558 L 1949,3558"/>
 <path fill="none" stroke="rgb(179,179,179)" stroke-linejoin="round" d="M 1799,3558 L 1949,3558"/>
 <path fill="none" stroke="rgb(179,179,179)" stroke-linejoin="round" d="M 1799,1763 L 1949,1763"/>
 <path fill="none" stroke="rgb(179,179,179)" stroke-linejoin="round" d="M 1799,1763 L 1949,1763"/>
 <path fill="none" stroke="rgb(179,179,179)" stroke-linejoin="round" d="M 1949,14328 L 1949,1763"/>
 <path fill="none" stroke="rgb(42,96,153)" stroke-width="80" stroke-linejoin="round" d="M 1949,3355 L 1990,3345 2031,3337 2073,3329 2114,3325 2156,3323 2197,3326 2239,3334 2280,3347 2321,3367 2363,3395 2404,3431 2446,3476 2487,3531 2529,3597 2570,3675 2612,3765 2653,3869 2694,3986 2736,4119 2777,4267 2819,4432 2860,4611 2902,4803 2943,5006 2984,5217 3026,5435 3067,5659 3109,5885 3150,6112 3192,6338 3233,6561 3275,6779 3316,6991 3357,7193 3399,7385 3440,7564 3482,7728 3523,7875 3565,8004 3606,8112 3648,8198 3689,8263 3730,8310 3772,8340 3813,8355 3855,8356 3896,8347 3938,8328 3979,8302 4020,8271 4062,8236 4103,8199 4145,8162 4186,8129 4228,8099 4269,8074 4311,8058 4352,8051 4393,8055 4435,8074 4476,8107 4518,8153 4559,8213 4601,8285 4642,8367 4683,8457 4725,8555 4766,8659 4808,8768 4849,8881 4891,8996 4932,9111 4974,9226 5015,9340 5056,9450 5098,9556 5139,9657 5181,9750 5222,9835 5264,9910 5305,9974 5347,10029 5388,10074 5429,10110 5471,10139 5512,10160 5554,10176 5595,10186 5637,10191 5678,10193 5719,10192 5761,10189 5802,10185 5844,10180 5885,10176 5927,10172 5968,10171 6010,10173 6051,10178 6092,10187 6134,10202 6175,10221 6217,10245 6258,10272 6300,10302 6341,10336 6382,10372 6424,10409 6465,10448 6507,10488 6548,10529 6590,10569 6631,10609 6673,10647 6714,10684 6755,10720 6797,10753 6838,10782 6880,10809 6921,10831 6963,10850 7004,10864 7046,10875 7087,10882 7128,10887 7170,10889 7211,10889 7253,10888 7294,10885 7336,10881 7377,10877 7418,10873 7460,10869 7501,10865 7543,10863 7584,10862 7626,10863 7667,10866 7709,10871 7750,10880 7791,10892 7833,10907 7874,10924 7916,10944 7957,10966 7999,10990 8040,11015 8081,11041 8123,11068 8164,11095 8206,11122 8247,11149 8289,11175 8330,11200 8372,11224 8413,11247 8454,11267 8496,11285 8537,11301 8579,11313 8620,11323 8662,11329 8703,11333 8745,11334 8786,11334 8827,11331 8869,11326 8910,11321 8952,11314 8993,11307 9035,11299 9076,11290 9117,11282 9159,11275 9200,11267 9242,11261 9283,11256 9325,11252 9366,11251 9408,11251 9449,11253 9490,11258 9532,11264 9573,11272 9615,11281 9656,11292 9698,11304 9739,11317 9780,11331 9822,11345 9863,11359 9905,11373 9946,11388 9988,11402 10029,11415 10071,11428 10112,11440 10153,11451 10195,11461 10236,11469 10278,11476 10319,11481 10361,11484 10402,11486 10444,11487 10485,11487 10526,11486 10568,11485 10609,11482 10651,11479 10692,11476 10734,11472 10775,11468 10816,11464 10858,11460 10899,11457 10941,11453 10982,11450 11024,11448 11065,11446 11107,11445 11148,11445 11189,11446 11231,11447 11272,11449 11314,11451 11355,11453 11397,11456 11438,11460 11480,11463 11521,11467 11562,11471 11604,11475 11645,11478 11687,11482 11728,11486 11770,11489 11811,11492 11852,11495 11894,11497 11935,11499 11977,11500 12018,11501 12060,11501 12101,11501 12143,11500 12184,11499 12225,11498 12267,11496 12308,11494 12350,11491 12391,11487 12433,11484 12474,11480 12515,11475 12557,11470 12597,11465 12639,11459 12680,11453 12722,11447 12763,11440 12805,11432 12846,11425 12887,11417 12929,11409 12970,11401 13012,11393 13053,11385 13095,11377 13136,11369 13178,11361 13219,11354 13260,11347 13302,11340 13343,11333 13385,11327 13426,11321 13468,11316 13509,11312 13550,11308 13592,11305 13633,11302 13675,11300 13716,11299 13758,11297 13799,11297 13841,11296 13882,11295 13923,11295 13965,11295 14006,11294 14048,11293 14089,11292 14131,11291 14172,11289 14213,11287 14255,11285 14296,11281 14338,11277 14379,11272 14421,11266 14462,11260 14504,11252 14545,11244 14586,11236 14628,11226 14669,11217 14711,11207 14752,11197 14794,11186 14835,11176 14877,11165 14918,11155 14959,11144 15001,11134 15042,11124 15084,11114 15125,11105 15167,11096 15208,11088 15249,11080 15291,11073 15332,11066 15374,11060 15415,11055 15457,11050 15498,11045 15540,11041 15581,11037 15622,11034 15664,11030 15705,11027 15747,11024 15788,11022 15830,11019 15871,11017 15912,11015 15954,11012 15995,11010 16037,11008 16078,11005 16120,11003 16161,11000 16203,10997 16244,10995 16285,10992 16327,10988 16368,10985 16410,10982 16451,10978 16493,10974 16534,10970 16576,10965 16617,10961 16658,10956 16700,10950 16741,10945 16783,10939 16824,10932 16866,10926 16907,10919 16948,10911 16990,10904 17031,10896 17073,10888 17114,10879 17156,10871 17197,10862 17239,10854 17280,10845 17321,10837 17363,10828 17404,10820 17446,10812 17487,10804 17529,10796 17570,10788 17611,10781 17653,10774 17694,10768 17736,10762 17777,10756 17819,10751 17860,10746 17902,10742 17943,10738 17984,10734 18026,10730 18067,10727 18109,10724 18150,10720 18192,10718 18233,10715 18275,10712 18316,10709 18357,10707 18399,10704 18440,10702 18482,10699 18523,10696 18565,10693 18606,10690 18647,10687 18689,10684 18730,10681 18772,10678 18813,10675 18855,10671 18896,10668 18938,10665 18979,10661 19020,10658 19062,10654 19103,10651 19145,10648 19186,10644 19228,10641 19269,10638 19310,10635 19352,10632 19393,10629 19435,10626 19476,10623 19518,10620 19559,10618 19601,10615 19642,10613 19683,10611 19725,10609 19766,10608 19808,10607 19849,10606 19891,10605 19932,10605 19974,10605 20015,10605 20056,10606 20098,10607 20139,10608 20181,10610 20222,10613 20264,10615 20305,10619 20346,10622 20388,10626 20429,10630 20471,10635 20512,10640 20554,10645 20595,10650 20637,10656 20678,10662 20719,10668 20761,10674 20802,10680 20844,10687 20885,10693 20927,10700 20968,10706 21010,10713"/>
 <path fill="none" stroke="rgb(255,66,14)" stroke-width="80" stroke-linejoin="round" d="M 1949,2712 L 1990,3074 2031,3436 2073,3796 2114,4154 2156,4508 2197,4858 2239,5203 2280,5542 2321,5874 2363,6199 2404,6516 2446,6823 2487,7121 2529,7407 2570,7682 2612,7944 2653,8192 2694,8427 2736,8646 2777,8850 2819,9037 2860,9209 2902,9365 2943,9508 2984,9637 3026,9754 3067,9860 3109,9956 3150,10042 3192,10119 3233,10189 3275,10252 3316,10309 3357,10362 3399,10410 3440,10455 3482,10497 3523,10539 3565,10580 3606,10621 3648,10664 3689,10708 3730,10752 3772,10798 3813,10844 3855,10891 3896,10938 3938,10985 3979,11032 4020,11079 4062,11125 4103,11171 4145,11216 4186,11260 4228,11303 4269,11345 4311,11385 4352,11424 4393,11460 4435,11495 4476,11527 4518,11558 4559,11586 4601,11613 4642,11638 4683,11661 4725,11683 4766,11704 4808,11724 4849,11743 4891,11761 4932,11778 4974,11795 5015,11811 5056,11827 5098,11843 5139,11859 5181,11875 5222,11891 5264,11908 5305,11925 5347,11943 5388,11961 5429,11979 5471,11998 5512,12017 5554,12035 5595,12054 5637,12073 5678,12091 5719,12109 5761,12127 5802,12144 5844,12160 5885,12176 5927,12191 5968,12206 6010,12219 6051,12232 6092,12243 6134,12253 6175,12262 6217,12270 6258,12277 6300,12284 6341,12289 6382,12294 6424,12299 6465,12303 6507,12307 6548,12310 6590,12314 6631,12317 6673,12320 6714,12324 6755,12327 6797,12331 6838,12336 6880,12341 6921,12346 6963,12352 7004,12359 7046,12366 7087,12374 7128,12382 7170,12390 7211,12399 7253,12407 7294,12416 7336,12424 7377,12433 7418,12441 7460,12448 7501,12455 7543,12462 7584,12468 7626,12474 7667,12478 7709,12482 7750,12484 7791,12486 7833,12487 7874,12487 7916,12486 7957,12484 7999,12482 8040,12480 8081,12477 8123,12473 8164,12470 8206,12467 8247,12463 8289,12460 8330,12457 8372,12454 8413,12452 8454,12450 8496,12449 8537,12449 8579,12449 8620,12450 8662,12452 8703,12455 8745,12458 8786,12462 8827,12467 8869,12471 8910,12476 8952,12480 8993,12485 9035,12489 9076,12493 9117,12497 9159,12500 9200,12503 9242,12504 9283,12505 9325,12505 9366,12504 9408,12502 9449,12498 9490,12493 9532,12488 9573,12481 9615,12473 9656,12464 9698,12455 9739,12445 9780,12434 9822,12423 9863,12412 9905,12400 9946,12389 9988,12377 10029,12365 10071,12353 10112,12342 10153,12331 10195,12320 10236,12309 10278,12300 10319,12290 10361,12282 10402,12273 10444,12265 10485,12258 10526,12250 10568,12243 10609,12236 10651,12229 10692,12222 10734,12215 10775,12208 10816,12200 10858,12193 10899,12185 10941,12177 10982,12169 11024,12160 11065,12150 11107,12141 11148,12130 11189,12119 11231,12108 11272,12097 11314,12086 11355,12074 11397,12062 11438,12051 11480,12039 11521,12028 11562,12016 11604,12005 11645,11995 11687,11985 11728,11975 11770,11966 11811,11958 11852,11950 11894,11944 11935,11938 11977,11933 12018,11928 12060,11925 12101,11922 12143,11919 12184,11918 12225,11917 12267,11916 12308,11916 12350,11916 12391,11917 12433,11918 12474,11920 12515,11921 12557,11923 12597,11925 12639,11927 12680,11929 12722,11932 12763,11934 12805,11936 12846,11938 12887,11941 12929,11943 12970,11945 13012,11947 13053,11949 13095,11950 13136,11952 13178,11953 13219,11954 13260,11955 13302,11956 13343,11956 13385,11957 13426,11957 13468,11956 13509,11956 13550,11955 13592,11953 13633,11952 13675,11950 13716,11948 13758,11945 13799,11943 13841,11940 13882,11937 13923,11934 13965,11931 14006,11927 14048,11924 14089,11920 14131,11917 14172,11913 14213,11910 14255,11907 14296,11903 14338,11900 14379,11897 14421,11894 14462,11891 14504,11889 14545,11886 14586,11884 14628,11881 14669,11879 14711,11877 14752,11875 14794,11873 14835,11871 14877,11869 14918,11867 14959,11865 15001,11862 15042,11860 15084,11858 15125,11856 15167,11854 15208,11852 15249,11849 15291,11847 15332,11844 15374,11842 15415,11839 15457,11836 15498,11833 15540,11829 15581,11826 15622,11823 15664,11819 15705,11815 15747,11811 15788,11807 15830,11802 15871,11797 15912,11792 15954,11787 15995,11782 16037,11776 16078,11770 16120,11764 16161,11758 16203,11751 16244,11745 16285,11738 16327,11731 16368,11725 16410,11718 16451,11711 16493,11705 16534,11698 16576,11692 16617,11686 16658,11680 16700,11674 16741,11669 16783,11664 16824,11660 16866,11655 16907,11652 16948,11648 16990,11645 17031,11642 17073,11640 17114,11638 17156,11636 17197,11634 17239,11632 17280,11630 17321,11628 17363,11626 17404,11624 17446,11622 17487,11620 17529,11618 17570,11615 17611,11612 17653,11609 17694,11605 17736,11601 17777,11597 17819,11592 17860,11587 17902,11581 17943,11576 17984,11569 18026,11563 18067,11557 18109,11550 18150,11543 18192,11536 18233,11528 18275,11521 18316,11513 18357,11506 18399,11498 18440,11491 18482,11483 18523,11476 18565,11468 18606,11461 18647,11453 18689,11446 18730,11438 18772,11431 18813,11424 18855,11416 18896,11409 18938,11402 18979,11394 19020,11387 19062,11380 19103,11372 19145,11365 19186,11358 19228,11350 19269,11343 19310,11335 19352,11327 19393,11320 19435,11312 19476,11304 19518,11297 19559,11289 19601,11281 19642,11273 19683,11265 19725,11258 19766,11250 19808,11242 19849,11235 19891,11227 19932,11220 19974,11213 20015,11205 20056,11198 20098,11191 20139,11185 20181,11178 20222,11172 20264,11166 20305,11160 20346,11154 20388,11148 20429,11142 20471,11137 20512,11131 20554,11126 20595,11121 20637,11116 20678,11111 20719,11106 20761,11101 20802,11096 20844,11092 20885,11087 20927,11082 20968,11077 21010,11073"/>
 <path fill="none" stroke="rgb(0,0,0)" stroke-width="80" stroke-linejoin="round" stroke-dasharray="640,240" d="M 1949,3517 L 1990,3798 2031,4079 2073,4358 2114,4637 2156,4913 2197,5187 2239,5457 2280,5725 2321,5988 2363,6247 2404,6501 2446,6750 2487,6992 2529,7228 2570,7458 2612,7680 2653,7894 2694,8099 2736,8295 2777,8482 2819,8660 2860,8828 2902,8987 2943,9137 2984,9278 3026,9412 3067,9538 3109,9657 3150,9769 3192,9875 3233,9974 3275,10068 3316,10156 3357,10240 3399,10318 3440,10393 3482,10464 3523,10531 3565,10595 3606,10656 3648,10715 3689,10772 3730,10826 3772,10879 3813,10929 3855,10977 3896,11024 3938,11068 3979,11111 4020,11152 4062,11192 4103,11229 4145,11266 4186,11301 4228,11334 4269,11366 4311,11398 4352,11427 4393,11456 4435,11484 4476,11511 4518,11537 4559,11562 4601,11586 4642,11610 4683,11633 4725,11655 4766,11677 4808,11697 4849,11718 4891,11738 4932,11757 4974,11776 5015,11794 5056,11813 5098,11830 5139,11848 5181,11865 5222,11883 5264,11900 5305,11917 5347,11933 5388,11950 5429,11967 5471,11983 5512,11999 5554,12015 5595,12030 5637,12045 5678,12060 5719,12074 5761,12088 5802,12101 5844,12114 5885,12127 5927,12139 5968,12150 6010,12161 6051,12171 6092,12181 6134,12190 6175,12198 6217,12205 6258,12212 6300,12219 6341,12225 6382,12231 6424,12237 6465,12242 6507,12247 6548,12252 6590,12257 6631,12262 6673,12267 6714,12272 6755,12277 6797,12282 6838,12288 6880,12294 6921,12300 6963,12307 7004,12313 7046,12321 7087,12328 7128,12336 7170,12343 7211,12351 7253,12359 7294,12366 7336,12374 7377,12381 7418,12388 7460,12394 7501,12400 7543,12406 7584,12411 7626,12415 7667,12419 7709,12422 7750,12424 7791,12425 7833,12426 7874,12425 7916,12425 7957,12423 7999,12422 8040,12420 8081,12418 8123,12415 8164,12413 8206,12411 8247,12409 8289,12407 8330,12406 8372,12406 8413,12405 8454,12406 8496,12407 8537,12410 8579,12413 8620,12417 8662,12423 8703,12429 8745,12436 8786,12443 8827,12450 8869,12458 8910,12466 8952,12473 8993,12480 9035,12487 9076,12493 9117,12498 9159,12503 9200,12506 9242,12508 9283,12508 9325,12507 9366,12504 9408,12500 9449,12493 9490,12484 9532,12474 9573,12463 9615,12450 9656,12436 9698,12421 9739,12406 9780,12391 9822,12375 9863,12360 9905,12344 9946,12330 9988,12316 10029,12303 10071,12291 10112,12280 10153,12271 10195,12264 10236,12259 10278,12256 10319,12255 10361,12255 10402,12257 10444,12260 10485,12265 10526,12269 10568,12275 10609,12280 10651,12285 10692,12290 10734,12294 10775,12298 10816,12300 10858,12301 10899,12300 10941,12297 10982,12292 11024,12285 11065,12275 11107,12262 11148,12247 11189,12229 11231,12209 11272,12187 11314,12164 11355,12139 11397,12114 11438,12088 11480,12062 11521,12036 11562,12011 11604,11986 11645,11962 11687,11939 11728,11917 11770,11898 11811,11881 11852,11866 11894,11854 11935,11844 11977,11838 12018,11834 12060,11833 12101,11834 12143,11837 12184,11841 12225,11848 12267,11855 12308,11864 12350,11874 12391,11885 12433,11896 12474,11907 12515,11919 12557,11930 12597,11942 12639,11953 12680,11963 12722,11972 12763,11980 12805,11987 12846,11994 12887,11999 12929,12004 12970,12008 13012,12011 13053,12014 13095,12017 13136,12019 13178,12022 13219,12024 13260,12026 13302,12028 13343,12030 13385,12033 13426,12036 13468,12039 13509,12043 13550,12048 13592,12053 13633,12059 13675,12066 13716,12072 13758,12080 13799,12087 13841,12095 13882,12103 13923,12110 13965,12118 14006,12125 14048,12132 14089,12139 14131,12145 14172,12151 14213,12156 14255,12160 14296,12164 14338,12166 14379,12167 14421,12168 14462,12167 14504,12165 14545,12163 14586,12159 14628,12155 14669,12151 14711,12145 14752,12140 14794,12134 14835,12127 14877,12121 14918,12114 14959,12107 15001,12100 15042,12094 15084,12087 15125,12081 15167,12075 15208,12070 15249,12065 15291,12061 15332,12057 15374,12053 15415,12050 15457,12047 15498,12044 15540,12041 15581,12038 15622,12035 15664,12032 15705,12029 15747,12025 15788,12022 15830,12018 15871,12013 15912,12008 15954,12002 15995,11996 16037,11989 16078,11982 16120,11973 16161,11964 16203,11955 16244,11945 16285,11935 16327,11925 16368,11915 16410,11904 16451,11894 16493,11884 16534,11874 16576,11865 16617,11856 16658,11848 16700,11840 16741,11833 16783,11827 16824,11821 16866,11817 16907,11814 16948,11812 16990,11811 17031,11810 17073,11811 17114,11812 17156,11813 17197,11815 17239,11818 17280,11820 17321,11823 17363,11825 17404,11828 17446,11830 17487,11832 17529,11834 17570,11835 17611,11836 17653,11836 17694,11835 17736,11834 17777,11831 17819,11828 17860,11824 17902,11820 17943,11815 17984,11809 18026,11803 18067,11796 18109,11789 18150,11781 18192,11773 18233,11765 18275,11756 18316,11748 18357,11739 18399,11730 18440,11720 18482,11711 18523,11702 18565,11693 18606,11684 18647,11675 18689,11667 18730,11658 18772,11649 18813,11641 18855,11633 18896,11625 18938,11617 18979,11609 19020,11601 19062,11594 19103,11587 19145,11580 19186,11573 19228,11567 19269,11561 19310,11555 19352,11550 19393,11544 19435,11539 19476,11535 19518,11530 19559,11526 19601,11523 19642,11519 19683,11516 19725,11513 19766,11510 19808,11507 19849,11505 19891,11503 19932,11501 19974,11500 20015,11498 20056,11497 20098,11496 20139,11495 20181,11495 20222,11494 20264,11494 20305,11494 20346,11494 20388,11494 20429,11495 20471,11495 20512,11496 20554,11496 20595,11497 20637,11498 20678,11499 20719,11500 20761,11501 20802,11502 20844,11504 20885,11505 20927,11506 20968,11508 21010,11509"/>
 <text class="TextShape"><tspan class="TextParagraph" font-family="Liberation Sans, sans-serif" font-size="353px" font-weight="400"><tspan class="TextPosition" x="1856" y="14896"><tspan fill="rgb(0,0,0)" stroke="none">1</tspan></tspan></tspan></text>
 <text class="TextShape"><tspan class="TextParagraph" font-family="Liberation Sans, sans-serif" font-size="353px" font-weight="400"><tspan class="TextPosition" x="2684" y="14896"><tspan fill="rgb(0,0,0)" stroke="none">2</tspan></tspan></tspan></text>
 <text class="TextShape"><tspan class="TextParagraph" font-family="Liberation Sans, sans-serif" font-size="353px" font-weight="400"><tspan class="TextPosition" x="3513" y="14896"><tspan fill="rgb(0,0,0)" stroke="none">3</tspan></tspan></tspan></text>
 <text class="TextShape"><tspan class="TextParagraph" font-family="Liberation Sans, sans-serif" font-size="353px" font-weight="400"><tspan class="TextPosition" x="4342" y="14896"><tspan fill="rgb(0,0,0)" stroke="none">4</tspan></tspan></tspan></text>
 <text class="TextShape"><tspan class="TextParagraph" font-family="Liberation Sans, sans-serif" font-size="353px" font-weight="400"><tspan class="TextPosition" x="5171" y="14896"><tspan fill="rgb(0,0,0)" stroke="none">5</tspan></tspan></tspan></text>
 <text class="TextShape"><tspan class="TextParagraph" font-family="Liberation Sans, sans-serif" font-size="353px" font-weight="400"><tspan class="TextPosition" x="5999" y="14896"><tspan fill="rgb(0,0,0)" stroke="none">6</tspan></tspan></tspan></text>
 <text class="TextShape"><tspan class="TextParagraph" font-family="Liberation Sans, sans-serif" font-size="353px" font-weight="400"><tspan class="TextPosition" x="6828" y="14896"><tspan fill="rgb(0,0,0)" stroke="none">7</tspan></tspan></tspan></text>
 <text class="TextShape"><tspan class="TextParagraph" font-family="Liberation Sans, sans-serif" font-size="353px" font-weight="400"><tspan class="TextPosition" x="7657" y="14896"><tspan fill="rgb(0,0,0)" stroke="none">8</tspan></tspan></tspan></text>
 <text class="TextShape"><tspan class="TextParagraph" font-family="Liberation Sans, sans-serif" font-size="353px" font-weight="400"><tspan class="TextPosition" x="8486" y="14896"><tspan fill="rgb(0,0,0)" stroke="none">9</tspan></tspan></tspan></text>
 <text class="TextShape"><tspan class="TextParagraph" font-family="Liberation Sans, sans-serif" font-size="353px" font-weight="400"><tspan class="TextPosition" x="9223" y="14896"><tspan fill="rgb(0,0,0)" stroke="none">10</tspan></tspan></tspan></text>
 <text class="TextShape"><tspan class="TextParagraph" font-family="Liberation Sans, sans-serif" font-size="353px" font-weight="400"><tspan class="TextPosition" x="10051" y="14896"><tspan fill="rgb(0,0,0)" stroke="none">11</tspan></tspan></tspan></text>
 <text class="TextShape"><tspan class="TextParagraph" font-family="Liberation Sans, sans-serif" font-size="353px" font-weight="400"><tspan class="TextPosition" x="10880" y="14896"><tspan fill="rgb(0,0,0)" stroke="none">12</tspan></tspan></tspan></text>
 <text class="TextShape"><tspan class="TextParagraph" font-family="Liberation Sans, sans-serif" font-size="353px" font-weight="400"><tspan class="TextPosition" x="11709" y="14896"><tspan fill="rgb(0,0,0)" stroke="none">13</tspan></tspan></tspan></text>
 <text class="TextShape"><tspan class="TextParagraph" font-family="Liberation Sans, sans-serif" font-size="353px" font-weight="400"><tspan class="TextPosition" x="12538" y="14896"><tspan fill="rgb(0,0,0)" stroke="none">14</tspan></tspan></tspan></text>
 <text class="TextShape"><tspan class="TextParagraph" font-family="Liberation Sans, sans-serif" font-size="353px" font-weight="400"><tspan class="TextPosition" x="13366" y="14896"><tspan fill="rgb(0,0,0)" stroke="none">15</tspan></tspan></tspan></text>
 <text class="TextShape"><tspan class="TextParagraph" font-family="Liberation Sans, sans-serif" font-size="353px" font-weight="400"><tspan class="TextPosition" x="14195" y="14896"><tspan fill="rgb(0,0,0)" stroke="none">16</tspan></tspan></tspan></text>
 <text class="TextShape"><tspan class="TextParagraph" font-family="Liberation Sans, sans-serif" font-size="353px" font-weight="400"><tspan class="TextPosition" x="15024" y="14896"><tspan fill="rgb(0,0,0)" stroke="none">17</tspan></tspan></tspan></text>
 <text class="TextShape"><tspan class="TextParagraph" font-family="Liberation Sans, sans-serif" font-size="353px" font-weight="400"><tspan class="TextPosition" x="15853" y="14896"><tspan fill="rgb(0,0,0)" stroke="none">18</tspan></tspan></tspan></text>
 <text class="TextShape"><tspan class="TextParagraph" font-family="Liberation Sans, sans-serif" font-size="353px" font-weight="400"><tspan class="TextPosition" x="16682" y="14896"><tspan fill="rgb(0,0,0)" stroke="none">19</tspan></tspan></tspan></text>
 <text class="TextShape"><tspan class="TextParagraph" font-family="Liberation Sans, sans-serif" font-size="353px" font-weight="400"><tspan class="TextPosition" x="17510" y="14896"><tspan fill="rgb(0,0,0)" stroke="none">20</tspan></tspan></tspan></text>
 <text class="TextShape"><tspan class="TextParagraph" font-family="Liberation Sans, sans-serif" font-size="353px" font-weight="400"><tspan class="TextPosition" x="18339" y="14896"><tspan fill="rgb(0,0,0)" stroke="none">21</tspan></tspan></tspan></text>
 <text class="TextShape"><tspan class="TextParagraph" font-family="Liberation Sans, sans-serif" font-size="353px" font-weight="400"><tspan class="TextPosition" x="19168" y="14896"><tspan fill="rgb(0,0,0)" stroke="none">22</tspan></tspan></tspan></text>
 <text class="TextShape"><tspan class="TextParagraph" font-family="Liberation Sans, sans-serif" font-size="353px" font-weight="400"><tspan class="TextPosition" x="19997" y="14896"><tspan fill="rgb(0,0,0)" stroke="none">23</tspan></tspan></tspan></text>
 <text class="TextShape"><tspan class="TextParagraph" font-family="Liberation Sans, sans-serif" font-size="353px" font-weight="400"><tspan class="TextPosition" x="20826" y="14896"><tspan fill="rgb(0,0,0)" stroke="none">24</tspan></tspan></tspan></text>
 <text class="TextShape"><tspan class="TextParagraph" font-family="Liberation Sans, sans-serif" font-size="353px" font-weight="400"><tspan class="TextPosition" x="1514" y="14449"><tspan fill="rgb(0,0,0)" stroke="none">0</tspan></tspan></tspan></text>
 <text class="TextShape"><tspan class="TextParagraph" font-family="Liberation Sans, sans-serif" font-size="353px" font-weight="400"><tspan class="TextPosition" x="1514" y="12653"><tspan fill="rgb(0,0,0)" stroke="none">1</tspan></tspan></tspan></text>
 <text class="TextShape"><tspan class="TextParagraph" font-family="Liberation Sans, sans-serif" font-size="353px" font-weight="400"><tspan class="TextPosition" x="1514" y="10858"><tspan fill="rgb(0,0,0)" stroke="none">2</tspan></tspan></tspan></text>
 <text class="TextShape"><tspan class="TextParagraph" font-family="Liberation Sans, sans-serif" font-size="353px" font-weight="400"><tspan class="TextPosition" x="1514" y="9063"><tspan fill="rgb(0,0,0)" stroke="none">3</tspan></tspan></tspan></text>
 <text class="TextShape"><tspan class="TextParagraph" font-family="Liberation Sans, sans-serif" font-size="353px" font-weight="400"><tspan class="TextPosition" x="1514" y="7268"><tspan fill="rgb(0,0,0)" stroke="none">4</tspan></tspan></tspan></text>
 <text class="TextShape"><tspan class="TextParagraph" font-family="Liberation Sans, sans-serif" font-size="353px" font-weight="400"><tspan class="TextPosition" x="1514" y="5473"><tspan fill="rgb(0,0,0)" stroke="none">5</tspan></tspan></tspan></text>
 <text class="TextShape"><tspan class="TextParagraph" font-family="Liberation Sans, sans-serif" font-size="353px" font-weight="400"><tspan class="TextPosition" x="1514" y="3678"><tspan fill="rgb(0,0,0)" stroke="none">6</tspan></tspan></tspan></text>
 <text class="TextShape"><tspan class="TextParagraph" font-family="Liberation Sans, sans-serif" font-size="353px" font-weight="400"><tspan class="TextPosition" x="1514" y="1883"><tspan fill="rgb(0,0,0)" stroke="none">7</tspan></tspan></tspan></text>
 <text class="TextShape"><tspan class="TextParagraph" font-family="Liberation Sans, sans-serif" font-size="459px" font-weight="400"><tspan class="TextPosition" x="11617" y="996"><tspan fill="rgb(0,0,0)" stroke="none">COLUMN</tspan></tspan></tspan></text>
 <path fill="none" stroke="rgb(42,96,153)" stroke-width="80" stroke-linejoin="round" d="M 21815,7642 L 23415,7642"/>
 <path fill="none" stroke="rgb(255,66,14)" stroke-width="80" stroke-linejoin="round" d="M 21815,8140 L 23415,8140"/>
 <path fill="none" stroke="rgb(0,0,0)" stroke-width="80" stroke-linejoin="round" stroke-dasharray="640,240" d="M 21815,8637 L 23415,8637"/>
 <text class="TextShape"><tspan class="TextParagraph" font-family="Liberation Sans, sans-serif" font-size="353px" font-weight="400"><tspan class="TextPosition" x="23515" y="7762"><tspan fill="rgb(0,0,0)" stroke="none">dynamic</tspan></tspan></tspan></text>
 <text class="TextShape"><tspan class="TextParagraph" font-family="Liberation Sans, sans-serif" font-size="353px" font-weight="400"><tspan class="TextPosition" x="23515" y="8259"><tspan fill="rgb(0,0,0)" stroke="none">guided</tspan></tspan></tspan></text>
 <text class="TextShape"><tspan class="TextParagraph" font-family="Liberation Sans, sans-serif" font-size="353px" font-weight="400"><tspan class="TextPosition" x="23515" y="8757"><tspan fill="rgb(0,0,0)" stroke="none">static</tspan></tspan></tspan></text>
 <text class="TextShape"><tspan class="TextParagraph" font-family="Liberation Sans, sans-serif" font-size="318px" font-weight="400"><tspan class="TextPosition" x="10759" y="15688"><tspan fill="rgb(0,0,0)" stroke="none">Threads</tspan></tspan></tspan></text>
 <text class="TextShape" transform="rotate(-90 837 8535)"><tspan class="TextParagraph" font-family="Liberation Sans, sans-serif" font-size="318px" font-weight="400"><tspan class="TextPosition" x="837" y="8535"><tspan fill="rgb(0,0,0)" stroke="none">Zeit</tspan></tspan></tspan></text>
</svg>