<?xml version="1.0" encoding="UTF-8"?>
<!DOCTYPE svg PUBLIC "-//W3C//DTD SVG 1.1//EN" "http://www.w3.org/Graphics/SVG/1.1/DTD/svg11.dtd">
<svg width="251mm" height="163mm" viewBox="0 0 25100 16300" version="1.1" xmlns="http://www.w3.org/2000/svg" xmlns:xlink="http://www.w3.org/1999/xlink" stroke-width="28.222" stroke-linejoin="round" xml:space="preserve">
 <path fill="rgb(255,255,255)" stroke="none" d="M 12570,16282 L 0,16282 0,0 25139,0 25139,16282 12570,16282 Z"/>
 <path fill="none" stroke="rgb(179,179,179)" stroke-linejoin="round" d="M 11479,14329 L 2134,14329 2134,1764 20824,1764 20824,14329 11479,14329 Z"/>
 <path fill="none" stroke="rgb(179,179,179)" stroke-linejoin="round" d="M 20824,14328 L 2134,14328"/>
 <path fill="none" stroke="rgb(179,179,179)" stroke-linejoin="round" d="M 20824,12233 L 2134,12233"/>
 <path fill="none" stroke="rgb(179,179,179)" stroke-linejoin="round" d="M 20824,10139 L 2134,10139"/>
 <path fill="none" stroke="rgb(179,179,179)" stroke-linejoin="round" d="M 20824,8046 L 2134,8046"/>
 <path fill="none" stroke="rgb(179,179,179)" stroke-linejoin="round" d="M 20824,5951 L 2134,5951"/>
 <path fill="none" stroke="rgb(179,179,179)" stroke-linejoin="round" d="M 20824,3857 L 2134,3857"/>
 <path fill="none" stroke="rgb(179,179,179)" stroke-linejoin="round" d="M 20824,1763 L 2134,1763"/>
 <path fill="none" stroke="rgb(179,179,179)" stroke-linejoin="round" d="M 2134,14478 L 2134,14328"/>
 <path fill="none" stroke="rgb(179,179,179)" stroke-linejoin="round" d="M 2134,14478 L 2134,14328"/>
 <path fill="none" stroke="rgb(179,179,179)" stroke-linejoin="round" d="M 2946,14478 L 2946,14328"/>
 <path fill="none" stroke="rgb(179,179,179)" stroke-linejoin="round" d="M 2946,14478 L 2946,14328"/>
 <path fill="none" stroke="rgb(179,179,179)" stroke-linejoin="round" d="M 3759,14478 L 3759,14328"/>
 <path fill="none" stroke="rgb(179,179,179)" stroke-linejoin="round" d="M 3759,14478 L 3759,14328"/>
 <path fill="none" stroke="rgb(179,179,179)" stroke-linejoin="round" d="M 4571,14478 L 4571,14328"/>
 <path fill="none" stroke="rgb(179,179,179)" stroke-linejoin="round" d="M 4571,14478 L 4571,14328"/>
 <path fill="none" stroke="rgb(179,179,179)" stroke-linejoin="round" d="M 5384,14478 L 5384,14328"/>
 <path fill="none" stroke="rgb(179,179,179)" stroke-linejoin="round" d="M 5384,14478 L 5384,14328"/>
 <path fill="none" stroke="rgb(179,179,179)" stroke-linejoin="round" d="M 6197,14478 L 6197,14328"/>
 <path fill="none" stroke="rgb(179,179,179)" stroke-linejoin="round" d="M 6197,14478 L 6197,14328"/>
 <path fill="none" stroke="rgb(179,179,179)" stroke-linejoin="round" d="M 7009,14478 L 7009,14328"/>
 <path fill="none" stroke="rgb(179,179,179)" stroke-linejoin="round" d="M 7009,14478 L 7009,14328"/>
 <path fill="none" stroke="rgb(179,179,179)" stroke-linejoin="round" d="M 7822,14478 L 7822,14328"/>
 <path fill="none" stroke="rgb(179,179,179)" stroke-linejoin="round" d="M 7822,14478 L 7822,14328"/>
 <path fill="none" stroke="rgb(179,179,179)" stroke-linejoin="round" d="M 8635,14478 L 8635,14328"/>
 <path fill="none" stroke="rgb(179,179,179)" stroke-linejoin="round" d="M 8635,14478 L 8635,14328"/>
 <path fill="none" stroke="rgb(179,179,179)" stroke-linejoin="round" d="M 9447,14478 L 9447,14328"/>
 <path fill="none" stroke="rgb(179,179,179)" stroke-linejoin="round" d="M 9447,14478 L 9447,14328"/>
 <path fill="none" stroke="rgb(179,179,179)" stroke-linejoin="round" d="M 10260,14478 L 10260,14328"/>
 <path fill="none" stroke="rgb(179,179,179)" stroke-linejoin="round" d="M 10260,14478 L 10260,14328"/>
 <path fill="none" stroke="rgb(179,179,179)" stroke-linejoin="round" d="M 11073,14478 L 11073,14328"/>
 <path fill="none" stroke="rgb(179,179,179)" stroke-linejoin="round" d="M 11073,14478 L 11073,14328"/>
 <path fill="none" stroke="rgb(179,179,179)" stroke-linejoin="round" d="M 11885,14478 L 11885,14328"/>
 <path fill="none" stroke="rgb(179,179,179)" stroke-linejoin="round" d="M 11885,14478 L 11885,14328"/>
 <path fill="none" stroke="rgb(179,179,179)" stroke-linejoin="round" d="M 12697,14478 L 12697,14328"/>
 <path fill="none" stroke="rgb(179,179,179)" stroke-linejoin="round" d="M 12697,14478 L 12697,14328"/>
 <path fill="none" stroke="rgb(179,179,179)" stroke-linejoin="round" d="M 13510,14478 L 13510,14328"/>
 <path fill="none" stroke="rgb(179,179,179)" stroke-linejoin="round" d="M 13510,14478 L 13510,14328"/>
 <path fill="none" stroke="rgb(179,179,179)" stroke-linejoin="round" d="M 14322,14478 L 14322,14328"/>
 <path fill="none" stroke="rgb(179,179,179)" stroke-linejoin="round" d="M 14322,14478 L 14322,14328"/>
 <path fill="none" stroke="rgb(179,179,179)" stroke-linejoin="round" d="M 15135,14478 L 15135,14328"/>
 <path fill="none" stroke="rgb(179,179,179)" stroke-linejoin="round" d="M 15135,14478 L 15135,14328"/>
 <path fill="none" stroke="rgb(179,179,179)" stroke-linejoin="round" d="M 15948,14478 L 15948,14328"/>
 <path fill="none" stroke="rgb(179,179,179)" stroke-linejoin="round" d="M 15948,14478 L 15948,14328"/>
 <path fill="none" stroke="rgb(179,179,179)" stroke-linejoin="round" d="M 16760,14478 L 16760,14328"/>
 <path fill="none" stroke="rgb(179,179,179)" stroke-linejoin="round" d="M 16760,14478 L 16760,14328"/>
 <path fill="none" stroke="rgb(179,179,179)" stroke-linejoin="round" d="M 17573,14478 L 17573,14328"/>
 <path fill="none" stroke="rgb(179,179,179)" stroke-linejoin="round" d="M 17573,14478 L 17573,14328"/>
 <path fill="none" stroke="rgb(179,179,179)" stroke-linejoin="round" d="M 18386,14478 L 18386,14328"/>
 <path fill="none" stroke="rgb(179,179,179)" stroke-linejoin="round" d="M 18386,14478 L 18386,14328"/>
 <path fill="none" stroke="rgb(179,179,179)" stroke-linejoin="round" d="M 19198,14478 L 19198,14328"/>
 <path fill="none" stroke="rgb(179,179,179)" stroke-linejoin="round" d="M 19198,14478 L 19198,14328"/>
 <path fill="none" stroke="rgb(179,179,179)" stroke-linejoin="round" d="M 20011,14478 L 20011,14328"/>
 <path fill="none" stroke="rgb(179,179,179)" stroke-linejoin="round" d="M 20011,14478 L 20011,14328"/>
 <path fill="none" stroke="rgb(179,179,179)" stroke-linejoin="round" d="M 20824,14478 L 20824,14328"/>
 <path fill="none" stroke="rgb(179,179,179)" stroke-linejoin="round" d="M 20824,14478 L 20824,14328"/>
 <path fill="none" stroke="rgb(179,179,179)" stroke-linejoin="round" d="M 2134,14328 L 20824,14328"/>
 <path fill="none" stroke="rgb(179,179,179)" stroke-linejoin="round" d="M 1984,14328 L 2134,14328"/>
 <path fill="none" stroke="rgb(179,179,179)" stroke-linejoin="round" d="M 1984,14328 L 2134,14328"/>
 <path fill="none" stroke="rgb(179,179,179)" stroke-linejoin="round" d="M 1984,12233 L 2134,12233"/>
 <path fill="none" stroke="rgb(179,179,179)" stroke-linejoin="round" d="M 1984,12233 L 2134,12233"/>
 <path fill="none" stroke="rgb(179,179,179)" stroke-linejoin="round" d="M 1984,10139 L 2134,10139"/>
 <path fill="none" stroke="rgb(179,179,179)" stroke-linejoin="round" d="M 1984,10139 L 2134,10139"/>
 <path fill="none" stroke="rgb(179,179,179)" stroke-linejoin="round" d="M 1984,8046 L 2134,8046"/>
 <path fill="none" stroke="rgb(179,179,179)" stroke-linejoin="round" d="M 1984,8046 L 2134,8046"/>
 <path fill="none" stroke="rgb(179,179,179)" stroke-linejoin="round" d="M 1984,5951 L 2134,5951"/>
 <path fill="none" stroke="rgb(179,179,179)" stroke-linejoin="round" d="M 1984,5951 L 2134,5951"/>
 <path fill="none" stroke="rgb(179,179,179)" stroke-linejoin="round" d="M 1984,3857 L 2134,3857"/>
 <path fill="none" stroke="rgb(179,179,179)" stroke-linejoin="round" d="M 1984,3857 L 2134,3857"/>
 <path fill="none" stroke="rgb(179,179,179)" stroke-linejoin="round" d="M 1984,1763 L 2134,1763"/>
 <path fill="none" stroke="rgb(179,179,179)" stroke-linejoin="round" d="M 1984,1763 L 2134,1763"/>
 <path fill="none" stroke="rgb(179,179,179)" stroke-linejoin="round" d="M 2134,14328 L 2134,1763"/>
 <path fill="none" stroke="rgb(42,96,153)" stroke-width="80" stroke-linejoin="round" d="M 2134,11334 L 2174,10729 2215,10126 2255,9529 2296,8941 2337,8364 2377,7803 2418,7259 2459,6736 2499,6236 2540,5762 2580,5318 2621,4906 2662,4529 2702,4190 2743,3893 2784,3640 2824,3433 2865,3277 2906,3173 2946,3125 2987,3135 3027,3198 3068,3311 3109,3468 3149,3665 3190,3897 3231,4158 3271,4445 3312,4753 3352,5076 3393,5410 3434,5751 3474,6093 3515,6432 3556,6762 3596,7080 3637,7380 3678,7657 3718,7907 3759,8126 3799,8307 3840,8456 3881,8573 3921,8661 3962,8723 4003,8761 4043,8778 4084,8776 4124,8759 4165,8728 4206,8686 4246,8636 4287,8581 4328,8523 4368,8465 4409,8409 4450,8358 4490,8314 4531,8281 4571,8260 4612,8254 4653,8262 4693,8283 4734,8316 4775,8360 4815,8413 4856,8474 4897,8543 4937,8617 4978,8697 5018,8780 5059,8865 5100,8952 5140,9039 5181,9125 5222,9209 5262,9289 5303,9365 5343,9435 5384,9498 5425,9553 5465,9601 5506,9642 5547,9676 5587,9705 5628,9728 5669,9746 5709,9760 5750,9771 5790,9778 5831,9783 5872,9786 5912,9788 5953,9788 5994,9788 6034,9788 6075,9789 6115,9792 6156,9796 6197,9802 6237,9811 6278,9823 6319,9838 6359,9854 6400,9873 6441,9894 6481,9916 6522,9939 6562,9964 6603,9989 6644,10015 6684,10042 6725,10068 6766,10095 6806,10122 6847,10148 6888,10173 6928,10197 6969,10221 7009,10243 7050,10263 7091,10282 7131,10300 7172,10316 7213,10331 7253,10346 7294,10360 7334,10373 7375,10385 7416,10397 7456,10409 7497,10421 7538,10433 7578,10445 7619,10457 7660,10470 7700,10483 7741,10497 7781,10511 7822,10527 7863,10544 7903,10562 7944,10580 7985,10599 8025,10619 8066,10639 8106,10659 8147,10680 8188,10700 8228,10720 8269,10740 8310,10759 8350,10778 8391,10796 8432,10813 8472,10829 8513,10844 8553,10858 8594,10870 8635,10881 8675,10889 8716,10897 8757,10902 8797,10907 8838,10910 8879,10912 8919,10914 8960,10914 9000,10915 9041,10914 9082,10914 9122,10913 9163,10913 9204,10912 9244,10912 9285,10912 9325,10913 9366,10915 9407,10918 9447,10922 9488,10927 9529,10933 9569,10940 9610,10948 9651,10957 9691,10966 9732,10977 9772,10987 9813,10999 9854,11010 9894,11022 9935,11034 9976,11046 10016,11058 10057,11070 10097,11082 10138,11093 10179,11104 10219,11115 10260,11125 10301,11134 10341,11142 10382,11150 10423,11158 10463,11165 10504,11171 10544,11177 10585,11183 10626,11188 10666,11193 10707,11198 10748,11203 10788,11208 10829,11213 10870,11217 10910,11222 10951,11227 10991,11232 11032,11237 11073,11243 11113,11248 11154,11255 11195,11261 11235,11267 11276,11274 11316,11281 11357,11288 11398,11295 11438,11303 11479,11310 11520,11318 11560,11325 11601,11332 11642,11340 11682,11347 11723,11354 11763,11362 11804,11368 11845,11375 11885,11382 11926,11388 11967,11394 12007,11400 12048,11406 12088,11412 12129,11417 12170,11423 12210,11428 12251,11433 12292,11438 12332,11443 12373,11449 12414,11454 12454,11459 12495,11464 12535,11469 12575,11474 12616,11479 12656,11484 12697,11490 12738,11495 12778,11501 12819,11506 12860,11512 12900,11518 12941,11524 12981,11530 13022,11536 13063,11542 13103,11548 13144,11554 13185,11561 13225,11567 13266,11573 13306,11579 13347,11586 13388,11592 13428,11598 13469,11604 13510,11610 13550,11616 13591,11622 13632,11628 13672,11633 13713,11639 13753,11645 13794,11650 13835,11656 13875,11661 13916,11666 13957,11672 13997,11677 14038,11682 14078,11687 14119,11692 14160,11697 14200,11701 14241,11706 14282,11710 14322,11715 14363,11719 14404,11723 14444,11727 14485,11731 14525,11735 14566,11739 14607,11743 14647,11746 14688,11750 14729,11753 14769,11757 14810,11760 14851,11764 14891,11767 14932,11771 14972,11774 15013,11777 15054,11781 15094,11784 15135,11787 15176,11790 15216,11794 15257,11797 15297,11800 15338,11804 15379,11807 15419,11810 15460,11814 15501,11817 15541,11821 15582,11824 15623,11827 15663,11831 15704,11834 15744,11838 15785,11841 15826,11845 15866,11848 15907,11851 15948,11855 15988,11858 16029,11862 16069,11865 16110,11869 16151,11872 16191,11876 16232,11879 16273,11883 16313,11886 16354,11889 16395,11893 16435,11896 16476,11899 16516,11902 16557,11905 16598,11908 16638,11911 16679,11914 16720,11916 16760,11919 16801,11922 16842,11924 16882,11926 16923,11929 16963,11931 17004,11933 17045,11935 17085,11937 17126,11939 17167,11942 17207,11944 17248,11946 17288,11949 17329,11951 17370,11954 17410,11956 17451,11959 17492,11962 17532,11965 17573,11969 17614,11972 17654,11976 17695,11980 17735,11984 17776,11988 17817,11992 17857,11996 17898,12000 17939,12005 17979,12009 18020,12013 18060,12018 18101,12022 18142,12026 18182,12030 18223,12034 18264,12038 18304,12042 18345,12045 18386,12048 18426,12051 18467,12054 18507,12057 18548,12060 18589,12062 18629,12064 18670,12066 18711,12069 18751,12071 18792,12073 18833,12075 18873,12076 18914,12078 18954,12080 18995,12082 19036,12085 19076,12087 19117,12089 19158,12091 19198,12094 19239,12097 19279,12100 19320,12103 19361,12106 19401,12109 19442,12112 19483,12115 19523,12118 19564,12121 19605,12124 19645,12127 19686,12130 19726,12132 19767,12135 19808,12137 19848,12139 19889,12141 19930,12142 19970,12143 20011,12144 20051,12145 20092,12145 20133,12144 20173,12144 20214,12143 20255,12142 20295,12140 20336,12139 20377,12137 20417,12135 20458,12132 20498,12130 20539,12127 20580,12125 20620,12122 20661,12119 20702,12116 20742,12113 20783,12110 20824,12107"/>
 <path fill="none" stroke="rgb(255,66,14)" stroke-width="80" stroke-linejoin="round" d="M 2134,12051 L 2174,12118 2215,12184 2255,12251 2296,12316 2337,12382 2377,12446 2418,12510 2459,12572 2499,12634 2540,12694 2580,12753 2621,12810 2662,12865 2702,12918 2743,12969 2784,13018 2824,13065 2865,13109 2906,13151 2946,13189 2987,13225 3027,13258 3068,13289 3109,13316 3149,13342 3190,13365 3231,13387 3271,13406 3312,13424 3352,13440 3393,13455 3434,13468 3474,13481 3515,13492 3556,13503 3596,13513 3637,13522 3678,13532 3718,13541 3759,13550 3799,13559 3840,13568 3881,13577 3921,13587 3962,13596 4003,13606 4043,13615 4084,13625 4124,13634 4165,13644 4206,13653 4246,13662 4287,13671 4328,13681 4368,13690 4409,13698 4450,13707 4490,13716 4531,13724 4571,13732 4612,13740 4653,13748 4693,13755 4734,13762 4775,13769 4815,13776 4856,13782 4897,13789 4937,13795 4978,13801 5018,13807 5059,13813 5100,13818 5140,13823 5181,13829 5222,13834 5262,13839 5303,13844 5343,13848 5384,13853 5425,13857 5465,13862 5506,13866 5547,13870 5587,13874 5628,13878 5669,13882 5709,13886 5750,13890 5790,13893 5831,13897 5872,13900 5912,13904 5953,13907 5994,13910 6034,13913 6075,13916 6115,13919 6156,13922 6197,13925 6237,13928 6278,13930 6319,13933 6359,13935 6400,13938 6441,13940 6481,13943 6522,13945 6562,13947 6603,13949 6644,13952 6684,13954 6725,13956 6766,13958 6806,13960 6847,13962 6888,13964 6928,13966 6969,13968 7009,13970 7050,13972 7091,13974 7131,13976 7172,13978 7213,13980 7253,13982 7294,13984 7334,13985 7375,13987 7416,13989 7456,13991 7497,13993 7538,13995 7578,13996 7619,13998 7660,14000 7700,14001 7741,14003 7781,14004 7822,14006 7863,14007 7903,14009 7944,14010 7985,14011 8025,14013 8066,14014 8106,14015 8147,14016 8188,14018 8228,14019 8269,14020 8310,14021 8350,14022 8391,14023 8432,14024 8472,14025 8513,14026 8553,14027 8594,14028 8635,14029 8675,14030 8716,14031 8757,14032 8797,14033 8838,14034 8879,14035 8919,14036 8960,14037 9000,14038 9041,14039 9082,14039 9122,14040 9163,14041 9204,14042 9244,14043 9285,14044 9325,14045 9366,14046 9407,14046 9447,14047 9488,14048 9529,14049 9569,14050 9610,14050 9651,14051 9691,14052 9732,14053 9772,14053 9813,14054 9854,14055 9894,14056 9935,14056 9976,14057 10016,14058 10057,14059 10097,14059 10138,14060 10179,14061 10219,14062 10260,14063 10301,14063 10341,14064 10382,14065 10423,14066 10463,14067 10504,14068 10544,14069 10585,14069 10626,14070 10666,14071 10707,14072 10748,14073 10788,14073 10829,14074 10870,14074 10910,14075 10951,14075 10991,14076 11032,14076 11073,14076 11113,14076 11154,14077 11195,14077 11235,14076 11276,14076 11316,14076 11357,14076 11398,14076 11438,14075 11479,14075 11520,14074 11560,14074 11601,14073 11642,14072 11682,14072 11723,14071 11763,14070 11804,14069 11845,14068 11885,14068 11926,14067 11967,14066 12007,14065 12048,14064 12088,14063 12129,14062 12170,14061 12210,14060 12251,14059 12292,14058 12332,14057 12373,14057 12414,14056 12454,14055 12495,14055 12535,14054 12575,14054 12616,14054 12656,14054 12697,14054 12738,14054 12778,14054 12819,14054 12860,14055 12900,14055 12941,14056 12981,14057 13022,14057 13063,14058 13103,14059 13144,14060 13185,14061 13225,14062 13266,14062 13306,14063 13347,14064 13388,14065 13428,14066 13469,14066 13510,14067 13550,14068 13591,14068 13632,14069 13672,14069 13713,14069 13753,14070 13794,14070 13835,14070 13875,14071 13916,14071 13957,14071 13997,14071 14038,14071 14078,14071 14119,14072 14160,14072 14200,14072 14241,14072 14282,14073 14322,14073 14363,14073 14404,14074 14444,14074 14485,14074 14525,14075 14566,14075 14607,14076 14647,14076 14688,14077 14729,14077 14769,14078 14810,14078 14851,14079 14891,14079 14932,14079 14972,14080 15013,14080 15054,14080 15094,14081 15135,14081 15176,14081 15216,14081 15257,14082 15297,14082 15338,14082 15379,14082 15419,14082 15460,14082 15501,14082 15541,14082 15582,14082 15623,14082 15663,14082 15704,14082 15744,14082 15785,14082 15826,14082 15866,14082 15907,14082 15948,14082 15988,14083 16029,14083 16069,14083 16110,14083 16151,14084 16191,14084 16232,14084 16273,14085 16313,14085 16354,14086 16395,14086 16435,14086 16476,14087 16516,14087 16557,14088 16598,14088 16638,14088 16679,14089 16720,14089 16760,14089 16801,14089 16842,14089 16882,14089 16923,14090 16963,14090 17004,14090 17045,14090 17085,14090 17126,14090 17167,14090 17207,14089 17248,14089 17288,14089 17329,14089 17370,14089 17410,14089 17451,14089 17492,14089 17532,14089 17573,14089 17614,14089 17654,14089 17695,14089 17735,14089 17776,14089 17817,14089 17857,14089 17898,14090 17939,14090 17979,14090 18020,14090 18060,14090 18101,14090 18142,14090 18182,14090 18223,14090 18264,14091 18304,14091 18345,14091 18386,14091 18426,14091 18467,14091 18507,14091 18548,14091 18589,14091 18629,14091 18670,14091 18711,14091 18751,14091 18792,14090 18833,14090 18873,14090 18914,14090 18954,14090 18995,14090 19036,14089 19076,14089 19117,14089 19158,14089 19198,14088 19239,14088 19279,14088 19320,14087 19361,14087 19401,14087 19442,14086 19483,14086 19523,14086 19564,14085 19605,14085 19645,14084 19686,14084 19726,14083 19767,14083 19808,14082 19848,14082 19889,14082 19930,14081 19970,14081 20011,14080 20051,14080 20092,14079 20133,14079 20173,14078 20214,14078 20255,14077 20295,14077 20336,14076 20377,14076 20417,14076 20458,14075 20498,14075 20539,14074 20580,14074 20620,14073 20661,14073 20702,14072 20742,14072 20783,14072 20824,14071"/>
 <path fill="none" stroke="rgb(0,0,0)" stroke-width="80" stroke-linejoin="round" stroke-dasharray="640,240" d="M 2134,12051 L 2174,12117 2215,12183 2255,12248 2296,12313 2337,12378 2377,12441 2418,12504 2459,12566 2499,12627 2540,12686 2580,12744 2621,12800 2662,12855 2702,12908 2743,12958 2784,13007 2824,13053 2865,13097 2906,13138 2946,13176 2987,13211 3027,13244 3068,13274 3109,13302 3149,13327 3190,13350 3231,13371 3271,13391 3312,13409 3352,13425 3393,13439 3434,13453 3474,13465 3515,13477 3556,13488 3596,13498 3637,13508 3678,13517 3718,13526 3759,13535 3799,13544 3840,13554 3881,13563 3921,13573 3962,13582 4003,13592 4043,13602 4084,13611 4124,13621 4165,13631 4206,13640 4246,13649 4287,13659 4328,13668 4368,13677 4409,13685 4450,13694 4490,13702 4531,13710 4571,13718 4612,13725 4653,13732 4693,13739 4734,13746 4775,13752 4815,13758 4856,13764 4897,13770 4937,13776 4978,13781 5018,13787 5059,13792 5100,13797 5140,13802 5181,13807 5222,13811 5262,13816 5303,13821 5343,13826 5384,13830 5425,13835 5465,13840 5506,13845 5547,13849 5587,13854 5628,13859 5669,13863 5709,13868 5750,13872 5790,13877 5831,13881 5872,13885 5912,13889 5953,13893 5994,13897 6034,13901 6075,13904 6115,13908 6156,13911 6197,13914 6237,13917 6278,13919 6319,13922 6359,13924 6400,13926 6441,13928 6481,13930 6522,13932 6562,13933 6603,13935 6644,13937 6684,13938 6725,13940 6766,13941 6806,13943 6847,13945 6888,13946 6928,13948 6969,13949 7009,13951 7050,13953 7091,13955 7131,13957 7172,13959 7213,13961 7253,13964 7294,13966 7334,13968 7375,13970 7416,13972 7456,13975 7497,13977 7538,13979 7578,13981 7619,13983 7660,13985 7700,13987 7741,13989 7781,13991 7822,13992 7863,13994 7903,13995 7944,13996 7985,13998 8025,13999 8066,14000 8106,14001 8147,14001 8188,14002 8228,14003 8269,14004 8310,14004 8350,14005 8391,14006 8432,14006 8472,14007 8513,14007 8553,14008 8594,14008 8635,14009 8675,14009 8716,14010 8757,14011 8797,14011 8838,14012 8879,14013 8919,14013 8960,14014 9000,14015 9041,14016 9082,14016 9122,14017 9163,14018 9204,14019 9244,14020 9285,14020 9325,14021 9366,14022 9407,14023 9447,14024 9488,14025 9529,14026 9569,14026 9610,14027 9651,14028 9691,14029 9732,14030 9772,14031 9813,14032 9854,14033 9894,14033 9935,14034 9976,14035 10016,14036 10057,14037 10097,14038 10138,14038 10179,14039 10219,14040 10260,14041 10301,14042 10341,14042 10382,14043 10423,14044 10463,14044 10504,14045 10544,14045 10585,14046 10626,14046 10666,14046 10707,14047 10748,14047 10788,14047 10829,14047 10870,14047 10910,14047 10951,14046 10991,14046 11032,14045 11073,14045 11113,14044 11154,14043 11195,14042 11235,14041 11276,14040 11316,14038 11357,14037 11398,14036 11438,14035 11479,14033 11520,14032 11560,14031 11601,14029 11642,14028 11682,14027 11723,14026 11763,14025 11804,14025 11845,14024 11885,14024 11926,14023 11967,14023 12007,14023 12048,14024 12088,14024 12129,14024 12170,14025 12210,14025 12251,14026 12292,14027 12332,14027 12373,14028 12414,14029 12454,14030 12495,14031 12535,14032 12575,14032 12616,14033 12656,14034 12697,14035 12738,14035 12778,14036 12819,14036 12860,14037 12900,14037 12941,14037 12981,14038 13022,14038 13063,14038 13103,14038 13144,14039 13185,14039 13225,14039 13266,14039 13306,14039 13347,14040 13388,14040 13428,14040 13469,14040 13510,14041 13550,14041 13591,14042 13632,14042 13672,14043 13713,14043 13753,14044 13794,14045 13835,14045 13875,14046 13916,14047 13957,14048 13997,14048 14038,14049 14078,14050 14119,14050 14160,14051 14200,14052 14241,14053 14282,14053 14322,14054 14363,14055 14404,14055 14444,14056 14485,14056 14525,14057 14566,14057 14607,14058 14647,14058 14688,14058 14729,14059 14769,14059 14810,14059 14851,14060 14891,14060 14932,14060 14972,14060 15013,14060 15054,14060 15094,14060 15135,14060 15176,14059 15216,14059 15257,14059 15297,14059 15338,14058 15379,14058 15419,14058 15460,14057 15501,14057 15541,14057 15582,14056 15623,14056 15663,14056 15704,14055 15744,14055 15785,14055 15826,14055 15866,14055 15907,14055 15948,14055 15988,14055 16029,14055 16069,14056 16110,14056 16151,14056 16191,14057 16232,14057 16273,14058 16313,14058 16354,14059 16395,14060 16435,14060 16476,14061 16516,14062 16557,14062 16598,14063 16638,14064 16679,14064 16720,14065 16760,14066 16801,14066 16842,14067 16882,14067 16923,14068 16963,14068 17004,14069 17045,14069 17085,14070 17126,14070 17167,14070 17207,14071 17248,14071 17288,14071 17329,14071 17370,14071 17410,14072 17451,14072 17492,14072 17532,14072 17573,14072 17614,14071 17654,14071 17695,14071 17735,14071 17776,14071 17817,14070 17857,14070 17898,14070 17939,14070 17979,14069 18020,14069 18060,14069 18101,14069 18142,14068 18182,14068 18223,14068 18264,14068 18304,14068 18345,14068 18386,14068 18426,14068 18467,14069 18507,14069 18548,14069 18589,14069 18629,14070 18670,14070 18711,14071 18751,14071 18792,14071 18833,14072 18873,14072 18914,14073 18954,14073 18995,14073 19036,14073 19076,14074 19117,14074 19158,14074 19198,14074 19239,14074 19279,14074 19320,14073 19361,14073 19401,14073 19442,14072 19483,14072 19523,14071 19564,14071 19605,14070 19645,14070 19686,14069 19726,14069 19767,14068 19808,14068 19848,14067 19889,14066 19930,14066 19970,14066 20011,14065 20051,14065 20092,14065 20133,14064 20173,14064 20214,14064 20255,14064 20295,14064 20336,14064 20377,14064 20417,14064 20458,14064 20498,14064 20539,14064 20580,14064 20620,14064 20661,14065 20702,14065 20742,14065 20783,14065 20824,14065"/>
 <text class="TextShape"><tspan class="TextParagraph" font-family="Liberation Sans, sans-serif" font-size="353px" font-weight="400"><tspan class="TextPosition" x="2041" y="14896"><tspan fill="rgb(0,0,0)" stroke="none">1</tspan></tspan></tspan></text>
 <text class="TextShape"><tspan class="TextParagraph" font-family="Liberation Sans, sans-serif" font-size="353px" font-weight="400"><tspan class="TextPosition" x="2853" y="14896"><tspan fill="rgb(0,0,0)" stroke="none">2</tspan></tspan></tspan></text>
 <text class="TextShape"><tspan class="TextParagraph" font-family="Liberation Sans, sans-serif" font-size="353px" font-weight="400"><tspan class="TextPosition" x="3666" y="14896"><tspan fill="rgb(0,0,0)" stroke="none">3</tspan></tspan></tspan></text>
 <text class="TextShape"><tspan class="TextParagraph" font-family="Liberation Sans, sans-serif" font-size="353px" font-weight="400"><tspan class="TextPosition" x="4478" y="14896"><tspan fill="rgb(0,0,0)" stroke="none">4</tspan></tspan></tspan></text>
 <text class="TextShape"><tspan class="TextParagraph" font-family="Liberation Sans, sans-serif" font-size="353px" font-weight="400"><tspan class="TextPosition" x="5291" y="14896"><tspan fill="rgb(0,0,0)" stroke="none">5</tspan></tspan></tspan></text>
 <text class="TextShape"><tspan class="TextParagraph" font-family="Liberation Sans, sans-serif" font-size="353px" font-weight="400"><tspan class="TextPosition" x="6104" y="14896"><tspan fill="rgb(0,0,0)" stroke="none">6</tspan></tspan></tspan></text>
 <text class="TextShape"><tspan class="TextParagraph" font-family="Liberation Sans, sans-serif" font-size="353px" font-weight="400"><tspan class="TextPosition" x="6916" y="14896"><tspan fill="rgb(0,0,0)" stroke="none">7</tspan></tspan></tspan></text>
 <text class="TextShape"><tspan class="TextParagraph" font-family="Liberation Sans, sans-serif" font-size="353px" font-weight="400"><tspan class="TextPosition" x="7729" y="14896"><tspan fill="rgb(0,0,0)" stroke="none">8</tspan></tspan></tspan></text>
 <text class="TextShape"><tspan class="TextParagraph" font-family="Liberation Sans, sans-serif" font-size="353px" font-weight="400"><tspan class="TextPosition" x="8542" y="14896"><tspan fill="rgb(0,0,0)" stroke="none">9</tspan></tspan></tspan></text>
 <text class="TextShape"><tspan class="TextParagraph" font-family="Liberation Sans, sans-serif" font-size="353px" font-weight="400"><tspan class="TextPosition" x="9262" y="14896"><tspan fill="rgb(0,0,0)" stroke="none">10</tspan></tspan></tspan></text>
 <text class="TextShape"><tspan class="TextParagraph" font-family="Liberation Sans, sans-serif" font-size="353px" font-weight="400"><tspan class="TextPosition" x="10075" y="14896"><tspan fill="rgb(0,0,0)" stroke="none">11</tspan></tspan></tspan></text>
 <text class="TextShape"><tspan class="TextParagraph" font-family="Liberation Sans, sans-serif" font-size="353px" font-weight="400"><tspan class="TextPosition" x="10888" y="14896"><tspan fill="rgb(0,0,0)" stroke="none">12</tspan></tspan></tspan></text>
 <text class="TextShape"><tspan class="TextParagraph" font-family="Liberation Sans, sans-serif" font-size="353px" font-weight="400"><tspan class="TextPosition" x="11700" y="14896"><tspan fill="rgb(0,0,0)" stroke="none">13</tspan></tspan></tspan></text>
 <text class="TextShape"><tspan class="TextParagraph" font-family="Liberation Sans, sans-serif" font-size="353px" font-weight="400"><tspan class="TextPosition" x="12513" y="14896"><tspan fill="rgb(0,0,0)" stroke="none">14</tspan></tspan></tspan></text>
 <text class="TextShape"><tspan class="TextParagraph" font-family="Liberation Sans, sans-serif" font-size="353px" font-weight="400"><tspan class="TextPosition" x="13326" y="14896"><tspan fill="rgb(0,0,0)" stroke="none">15</tspan></tspan></tspan></text>
 <text class="TextShape"><tspan class="TextParagraph" font-family="Liberation Sans, sans-serif" font-size="353px" font-weight="400"><tspan class="TextPosition" x="14138" y="14896"><tspan fill="rgb(0,0,0)" stroke="none">16</tspan></tspan></tspan></text>
 <text class="TextShape"><tspan class="TextParagraph" font-family="Liberation Sans, sans-serif" font-size="353px" font-weight="400"><tspan class="TextPosition" x="14951" y="14896"><tspan fill="rgb(0,0,0)" stroke="none">17</tspan></tspan></tspan></text>
 <text class="TextShape"><tspan class="TextParagraph" font-family="Liberation Sans, sans-serif" font-size="353px" font-weight="400"><tspan class="TextPosition" x="15764" y="14896"><tspan fill="rgb(0,0,0)" stroke="none">18</tspan></tspan></tspan></text>
 <text class="TextShape"><tspan class="TextParagraph" font-family="Liberation Sans, sans-serif" font-size="353px" font-weight="400"><tspan class="TextPosition" x="16576" y="14896"><tspan fill="rgb(0,0,0)" stroke="none">19</tspan></tspan></tspan></text>
 <text class="TextShape"><tspan class="TextParagraph" font-family="Liberation Sans, sans-serif" font-size="353px" font-weight="400"><tspan class="TextPosition" x="17389" y="14896"><tspan fill="rgb(0,0,0)" stroke="none">20</tspan></tspan></tspan></text>
 <text class="TextShape"><tspan class="TextParagraph" font-family="Liberation Sans, sans-serif" font-size="353px" font-weight="400"><tspan class="TextPosition" x="18202" y="14896"><tspan fill="rgb(0,0,0)" stroke="none">21</tspan></tspan></tspan></text>
 <text class="TextShape"><tspan class="TextParagraph" font-family="Liberation Sans, sans-serif" font-size="353px" font-weight="400"><tspan class="TextPosition" x="19014" y="14896"><tspan fill="rgb(0,0,0)" stroke="none">22</tspan></tspan></tspan></text>
 <text class="TextShape"><tspan class="TextParagraph" font-family="Liberation Sans, sans-serif" font-size="353px" font-weight="400"><tspan class="TextPosition" x="19827" y="14896"><tspan fill="rgb(0,0,0)" stroke="none">23</tspan></tspan></tspan></text>
 <text class="TextShape"><tspan class="TextParagraph" font-family="Liberation Sans, sans-serif" font-size="353px" font-weight="400"><tspan class="TextPosition" x="20640" y="14896"><tspan fill="rgb(0,0,0)" stroke="none">24</tspan></tspan></tspan></text>
 <text class="TextShape"><tspan class="TextParagraph" font-family="Liberation Sans, sans-serif" font-size="353px" font-weight="400"><tspan class="TextPosition" x="1699" y="14449"><tspan fill="rgb(0,0,0)" stroke="none">0</tspan></tspan></tspan></text>
 <text class="TextShape"><tspan class="TextParagraph" font-family="Liberation Sans, sans-serif" font-size="353px" font-weight="400"><tspan class="TextPosition" x="1514" y="12354"><tspan fill="rgb(0,0,0)" stroke="none">20</tspan></tspan></tspan></text>
 <text class="TextShape"><tspan class="TextParagraph" font-family="Liberation Sans, sans-serif" font-size="353px" font-weight="400"><tspan class="TextPosition" x="1514" y="10260"><tspan fill="rgb(0,0,0)" stroke="none">40</tspan></tspan></tspan></text>
 <text class="TextShape"><tspan class="TextParagraph" font-family="Liberation Sans, sans-serif" font-size="353px" font-weight="400"><tspan class="TextPosition" x="1514" y="8166"><tspan fill="rgb(0,0,0)" stroke="none">60</tspan></tspan></tspan></text>
 <text class="TextShape"><tspan class="TextParagraph" font-family="Liberation Sans, sans-serif" font-size="353px" font-weight="400"><tspan class="TextPosition" x="1514" y="6071"><tspan fill="rgb(0,0,0)" stroke="none">80</tspan></tspan></tspan></text>
 <text class="TextShape"><tspan class="TextParagraph" font-family="Liberation Sans, sans-serif" font-size="353px" font-weight="400"><tspan class="TextPosition" x="1328" y="3977"><tspan fill="rgb(0,0,0)" stroke="none">100</tspan></tspan></tspan></text>
 <text class="TextShape"><tspan class="TextParagraph" font-family="Liberation Sans, sans-serif" font-size="353px" font-weight="400"><tspan class="TextPosition" x="1328" y="1883"><tspan fill="rgb(0,0,0)" stroke="none">120</tspan></tspan></tspan></text>
 <text class="TextShape"><tspan class="TextParagraph" font-family="Liberation Sans, sans-serif" font-size="459px" font-weight="400"><tspan class="TextPosition" x="11538" y="996"><tspan fill="rgb(0,0,0)" stroke="none">ELEMENT</tspan></tspan></tspan></text>
 <path fill="none" stroke="rgb(42,96,153)" stroke-width="80" stroke-linejoin="round" d="M 21815,7642 L 23415,7642"/>
 <path fill="none" stroke="rgb(255,66,14)" stroke-width="80" stroke-linejoin="round" d="M 21815,8140 L 23415,8140"/>
 <path fill="none" stroke="rgb(0,0,0)" stroke-width="80" stroke-linejoin="round" stroke-dasharray="640,240" d="M 21815,8637 L 23415,8637"/>
 <text class="TextShape"><tspan class="TextParagraph" font-family="Liberation Sans, sans-serif" font-size="353px" font-weight="400"><tspan class="TextPosition" x="23515" y="7762"><tspan fill="rgb(0,0,0)" stroke="none">dynamic</tspan></tspan></tspan></text>
 <text class="TextShape"><tspan class="TextParagraph" font-family="Liberation Sans, sans-serif" font-size="353px" font-weight="400"><tspan class="TextPosition" x="23515" y="8259"><tspan fill="rgb(0,0,0)" stroke="none">guided</tspan></tspan></tspan></text>
 <text class="TextShape"><tspan class="TextParagraph" font-family="Liberation Sans, sans-serif" font-size="353px" font-weight="400"><tspan class="TextPosition" x="23515" y="8757"><tspan fill="rgb(0,0,0)" stroke="none">static</tspan></tspan></tspan></text>
 <text class="TextShape"><tspan class="TextParagraph" font-family="Liberation Sans, sans-serif" font-size="318px" font-weight="400"><tspan class="TextPosition" x="10759" y="15688"><tspan fill="rgb(0,0,0)" stroke="none">Threads</tspan></tspan></tspan></text>
 <text class="TextShape" transform="rotate(-90 837 8535)"><tspan class="TextParagraph" font-family="Liberation Sans, sans-serif" font-size="318px" font-weight="400"><tspan class="TextPosition" x="837" y="8535"><tspan fill="rgb(0,0,0)" stroke="none">Zeit</tspan></tspan></tspan></text>
</svg>
