<?xml version="1.0" encoding="UTF-8"?>
<!DOCTYPE svg PUBLIC "-//W3C//DTD SVG 1.1//EN" "http://www.w3.org/Graphics/SVG/1.1/DTD/svg11.dtd">
<svg width="213mm" height="131mm" viewBox="0 0 21300 13100" version="1.1" xmlns="http://www.w3.org/2000/svg" xmlns:xlink="http://www.w3.org/1999/xlink" stroke-width="28.222" stroke-linejoin="round" xml:space="preserve">
 <path fill="rgb(255,255,255)" stroke="none" d="M 10625,13148 L 0,13148 0,0 21250,0 21250,13148 10625,13148 Z"/>
 <path fill="none" stroke="rgb(179,179,179)" stroke-linejoin="round" d="M 11360,11258 L 2348,11258 2348,461 20373,461 20373,11258 11360,11258 Z"/>
 <path fill="none" stroke="rgb(179,179,179)" stroke-linejoin="round" d="M 20373,11257 L 2348,11257"/>
 <path fill="none" stroke="rgb(179,179,179)" stroke-linejoin="round" d="M 20373,9457 L 2348,9457"/>
 <path fill="none" stroke="rgb(179,179,179)" stroke-linejoin="round" d="M 20373,7657 L 2348,7657"/>
 <path fill="none" stroke="rgb(179,179,179)" stroke-linejoin="round" d="M 20373,5859 L 2348,5859"/>
 <path fill="none" stroke="rgb(179,179,179)" stroke-linejoin="round" d="M 20373,4059 L 2348,4059"/>
 <path fill="none" stroke="rgb(179,179,179)" stroke-linejoin="round" d="M 20373,2259 L 2348,2259"/>
 <path fill="none" stroke="rgb(179,179,179)" stroke-linejoin="round" d="M 20373,459 L 2348,459"/>
 <path fill="none" stroke="rgb(179,179,179)" stroke-linejoin="round" d="M 2348,11407 L 2348,11257"/>
 <path fill="none" stroke="rgb(179,179,179)" stroke-linejoin="round" d="M 2348,11407 L 2348,11257"/>
 <path fill="none" stroke="rgb(179,179,179)" stroke-linejoin="round" d="M 4923,11407 L 4923,11257"/>
 <path fill="none" stroke="rgb(179,179,179)" stroke-linejoin="round" d="M 4923,11407 L 4923,11257"/>
 <path fill="none" stroke="rgb(179,179,179)" stroke-linejoin="round" d="M 7498,11407 L 7498,11257"/>
 <path fill="none" stroke="rgb(179,179,179)" stroke-linejoin="round" d="M 7498,11407 L 7498,11257"/>
 <path fill="none" stroke="rgb(179,179,179)" stroke-linejoin="round" d="M 10073,11407 L 10073,11257"/>
 <path fill="none" stroke="rgb(179,179,179)" stroke-linejoin="round" d="M 10073,11407 L 10073,11257"/>
 <path fill="none" stroke="rgb(179,179,179)" stroke-linejoin="round" d="M 12647,11407 L 12647,11257"/>
 <path fill="none" stroke="rgb(179,179,179)" stroke-linejoin="round" d="M 12647,11407 L 12647,11257"/>
 <path fill="none" stroke="rgb(179,179,179)" stroke-linejoin="round" d="M 15222,11407 L 15222,11257"/>
 <path fill="none" stroke="rgb(179,179,179)" stroke-linejoin="round" d="M 15222,11407 L 15222,11257"/>
 <path fill="none" stroke="rgb(179,179,179)" stroke-linejoin="round" d="M 17797,11407 L 17797,11257"/>
 <path fill="none" stroke="rgb(179,179,179)" stroke-linejoin="round" d="M 17797,11407 L 17797,11257"/>
 <path fill="none" stroke="rgb(179,179,179)" stroke-linejoin="round" d="M 20373,11407 L 20373,11257"/>
 <path fill="none" stroke="rgb(179,179,179)" stroke-linejoin="round" d="M 20373,11407 L 20373,11257"/>
 <path fill="none" stroke="rgb(179,179,179)" stroke-linejoin="round" d="M 2348,11257 L 20373,11257"/>
 <path fill="none" stroke="rgb(179,179,179)" stroke-linejoin="round" d="M 2198,11257 L 2348,11257"/>
 <path fill="none" stroke="rgb(179,179,179)" stroke-linejoin="round" d="M 2198,11257 L 2348,11257"/>
 <path fill="none" stroke="rgb(179,179,179)" stroke-linejoin="round" d="M 2198,9457 L 2348,9457"/>
 <path fill="none" stroke="rgb(179,179,179)" stroke-linejoin="round" d="M 2198,9457 L 2348,9457"/>
 <path fill="none" stroke="rgb(179,179,179)" stroke-linejoin="round" d="M 2198,7657 L 2348,7657"/>
 <path fill="none" stroke="rgb(179,179,179)" stroke-linejoin="round" d="M 2198,7657 L 2348,7657"/>
 <path fill="none" stroke="rgb(179,179,179)" stroke-linejoin="round" d="M 2198,5859 L 2348,5859"/>
 <path fill="none" stroke="rgb(179,179,179)" stroke-linejoin="round" d="M 2198,5859 L 2348,5859"/>
 <path fill="none" stroke="rgb(179,179,179)" stroke-linejoin="round" d="M 2198,4059 L 2348,4059"/>
 <path fill="none" stroke="rgb(179,179,179)" stroke-linejoin="round" d="M 2198,4059 L 2348,4059"/>
 <path fill="none" stroke="rgb(179,179,179)" stroke-linejoin="round" d="M 2198,2259 L 2348,2259"/>
 <path fill="none" stroke="rgb(179,179,179)" stroke-linejoin="round" d="M 2198,2259 L 2348,2259"/>
 <path fill="none" stroke="rgb(179,179,179)" stroke-linejoin="round" d="M 2198,460 L 2348,460"/>
 <path fill="none" stroke="rgb(179,179,179)" stroke-linejoin="round" d="M 2198,460 L 2348,460"/>
 <path fill="none" stroke="rgb(179,179,179)" stroke-linejoin="round" d="M 2348,11257 L 2348,459"/>
 <path fill="none" stroke="rgb(0,69,134)" stroke-width="80" stroke-linejoin="round" d="M 2348,11092 L 2412,11074 2476,11055 2541,11037 2605,11018 2669,11000 2734,10982 2798,10964 2863,10946 2927,10928 2991,10910 3056,10893 3120,10876 3184,10858 3249,10842 3313,10825 3378,10809 3442,10793 3506,10777 3571,10761 3635,10746 3699,10732 3764,10717 3828,10703 3893,10690 3957,10676 4021,10663 4086,10651 4150,10638 4214,10626 4279,10615 4343,10604 4408,10593 4472,10582 4536,10572 4601,10562 4665,10552 4730,10543 4794,10534 4858,10526 4923,10517 4987,10510 5051,10502 5116,10494 5180,10487 5245,10479 5309,10472 5373,10464 5438,10455 5502,10447 5566,10438 5631,10428 5695,10418 5760,10407 5824,10395 5888,10382 5953,10368 6017,10353 6081,10337 6146,10319 6210,10300 6275,10280 6339,10258 6403,10235 6468,10211 6532,10185 6596,10159 6661,10132 6725,10104 6790,10076 6854,10046 6918,10017 6983,9987 7047,9957 7112,9926 7176,9896 7240,9865 7305,9835 7369,9805 7433,9776 7498,9746 7562,9718 7627,9690 7691,9662 7755,9634 7820,9607 7884,9579 7948,9552 8013,9525 8077,9497 8142,9469 8206,9440 8270,9412 8335,9382 8399,9352 8463,9321 8528,9289 8592,9256 8657,9222 8721,9187 8785,9151 8850,9113 8914,9074 8978,9034 9043,8993 9107,8950 9172,8907 9236,8862 9300,8817 9365,8771 9429,8724 9494,8677 9558,8628 9622,8580 9687,8531 9751,8481 9815,8431 9880,8381 9944,8331 10009,8280 10073,8230 10137,8179 10202,8129 10266,8078 10330,8028 10395,7977 10459,7926 10524,7876 10588,7825 10651,7774 10716,7724 10780,7673 10844,7622 10909,7571 10973,7520 11038,7469 11102,7417 11166,7366 11231,7315 11295,7263 11360,7212 11424,7160 11488,7108 11553,7056 11617,7004 11681,6951 11746,6899 11810,6846 11875,6794 11939,6741 12003,6688 12068,6635 12132,6582 12196,6529 12261,6476 12325,6422 12390,6369 12454,6315 12518,6261 12583,6207 12647,6153 12711,6098 12776,6044 12840,5990 12905,5935 12969,5880 13033,5826 13098,5771 13162,5716 13226,5661 13291,5606 13355,5551 13420,5496 13484,5441 13548,5386 13613,5331 13677,5276 13742,5221 13806,5166 13870,5111 13935,5057 13999,5002 14063,4947 14128,4893 14192,4838 14257,4784 14321,4729 14385,4675 14450,4621 14514,4567 14578,4512 14643,4458 14707,4404 14772,4350 14836,4296 14900,4242 14965,4187 15029,4133 15093,4079 15158,4025 15222,3971 15287,3917 15351,3863 15415,3809 15480,3755 15544,3701 15608,3647 15673,3592 15737,3538 15802,3484 15866,3430 15930,3376 15995,3322 16059,3268 16124,3213 16188,3159 16252,3105 16317,3051 16381,2997 16445,2943 16510,2889 16574,2834 16639,2780 16703,2726 16767,2672 16832,2618 16896,2564 16960,2509 17025,2455 17089,2401 17154,2347 17218,2293 17282,2238 17347,2184 17411,2130 17475,2076 17540,2022 17604,1968 17669,1913 17733,1859 17797,1805"/>
 <text class="TextShape"><tspan class="TextParagraph" font-family="Liberation Sans, sans-serif" font-size="353px" font-weight="400"><tspan class="TextPosition" x="2255" y="11825"><tspan fill="rgb(0,0,0)" stroke="none">0</tspan></tspan></tspan></text>
 <text class="TextShape"><tspan class="TextParagraph" font-family="Liberation Sans, sans-serif" font-size="353px" font-weight="400"><tspan class="TextPosition" x="4830" y="11825"><tspan fill="rgb(0,0,0)" stroke="none">2</tspan></tspan></tspan></text>
 <text class="TextShape"><tspan class="TextParagraph" font-family="Liberation Sans, sans-serif" font-size="353px" font-weight="400"><tspan class="TextPosition" x="7405" y="11825"><tspan fill="rgb(0,0,0)" stroke="none">4</tspan></tspan></tspan></text>
 <text class="TextShape"><tspan class="TextParagraph" font-family="Liberation Sans, sans-serif" font-size="353px" font-weight="400"><tspan class="TextPosition" x="9980" y="11825"><tspan fill="rgb(0,0,0)" stroke="none">6</tspan></tspan></tspan></text>
 <text class="TextShape"><tspan class="TextParagraph" font-family="Liberation Sans, sans-serif" font-size="353px" font-weight="400"><tspan class="TextPosition" x="12555" y="11825"><tspan fill="rgb(0,0,0)" stroke="none">8</tspan></tspan></tspan></text>
 <text class="TextShape"><tspan class="TextParagraph" font-family="Liberation Sans, sans-serif" font-size="353px" font-weight="400"><tspan class="TextPosition" x="15038" y="11825"><tspan fill="rgb(0,0,0)" stroke="none">10</tspan></tspan></tspan></text>
 <text class="TextShape"><tspan class="TextParagraph" font-family="Liberation Sans, sans-serif" font-size="353px" font-weight="400"><tspan class="TextPosition" x="17613" y="11825"><tspan fill="rgb(0,0,0)" stroke="none">12</tspan></tspan></tspan></text>
 <text class="TextShape"><tspan class="TextParagraph" font-family="Liberation Sans, sans-serif" font-size="353px" font-weight="400"><tspan class="TextPosition" x="20189" y="11825"><tspan fill="rgb(0,0,0)" stroke="none">14</tspan></tspan></tspan></text>
 <text class="TextShape"><tspan class="TextParagraph" font-family="Liberation Sans, sans-serif" font-size="353px" font-weight="400"><tspan class="TextPosition" x="1437" y="11378"><tspan fill="rgb(0,0,0)" stroke="none">0.01</tspan></tspan></tspan></text>
 <text class="TextShape"><tspan class="TextParagraph" font-family="Liberation Sans, sans-serif" font-size="353px" font-weight="400"><tspan class="TextPosition" x="1622" y="9578"><tspan fill="rgb(0,0,0)" stroke="none">0.1</tspan></tspan></tspan></text>
 <text class="TextShape"><tspan class="TextParagraph" font-family="Liberation Sans, sans-serif" font-size="353px" font-weight="400"><tspan class="TextPosition" x="1913" y="7778"><tspan fill="rgb(0,0,0)" stroke="none">1</tspan></tspan></tspan></text>
 <text class="TextShape"><tspan class="TextParagraph" font-family="Liberation Sans, sans-serif" font-size="353px" font-weight="400"><tspan class="TextPosition" x="1728" y="5979"><tspan fill="rgb(0,0,0)" stroke="none">10</tspan></tspan></tspan></text>
 <text class="TextShape"><tspan class="TextParagraph" font-family="Liberation Sans, sans-serif" font-size="353px" font-weight="400"><tspan class="TextPosition" x="1542" y="4179"><tspan fill="rgb(0,0,0)" stroke="none">100</tspan></tspan></tspan></text>
 <text class="TextShape"><tspan class="TextParagraph" font-family="Liberation Sans, sans-serif" font-size="353px" font-weight="400"><tspan class="TextPosition" x="1357" y="2379"><tspan fill="rgb(0,0,0)" stroke="none">1000</tspan></tspan></tspan></text>
 <text class="TextShape"><tspan class="TextParagraph" font-family="Liberation Sans, sans-serif" font-size="353px" font-weight="400"><tspan class="TextPosition" x="1172" y="580"><tspan fill="rgb(0,0,0)" stroke="none">10000</tspan></tspan></tspan></text>
 <text class="TextShape"><tspan class="TextParagraph" font-family="Liberation Sans, sans-serif" font-size="318px" font-weight="400"><tspan class="TextPosition" x="10469" y="12554"><tspan fill="rgb(0,0,0)" stroke="none">Interlines</tspan></tspan></tspan></text>
 <text class="TextShape" transform="rotate(-90 837 6348)"><tspan class="TextParagraph" font-family="Liberation Sans, sans-serif" font-size="318px" font-weight="400"><tspan class="TextPosition" x="837" y="6348"><tspan fill="rgb(0,0,0)" stroke="none">Zeit</tspan></tspan></tspan></text>
</svg>