<?xml version="1.0" encoding="UTF-8"?>
<!DOCTYPE svg PUBLIC "-//W3C//DTD SVG 1.1//EN" "http://www.w3.org/Graphics/SVG/1.1/DTD/svg11.dtd">
<svg width="251mm" height="163mm" viewBox="0 0 25100 16300" version="1.1" xmlns="http://www.w3.org/2000/svg" xmlns:xlink="http://www.w3.org/1999/xlink" stroke-width="28.222" stroke-linejoin="round" xml:space="preserve">
 <path fill="rgb(255,255,255)" stroke="none" d="M 12570,16282 L 0,16282 0,0 25139,0 25139,16282 12570,16282 Z"/>
 <path fill="none" stroke="rgb(179,179,179)" stroke-linejoin="round" d="M 11625,14329 L 2240,14329 2240,1764 21010,1764 21010,14329 11625,14329 Z"/>
 <path fill="none" stroke="rgb(179,179,179)" stroke-linejoin="round" d="M 21010,14328 L 2240,14328"/>
 <path fill="none" stroke="rgb(179,179,179)" stroke-linejoin="round" d="M 21010,12532 L 2240,12532"/>
 <path fill="none" stroke="rgb(179,179,179)" stroke-linejoin="round" d="M 21010,10737 L 2240,10737"/>
 <path fill="none" stroke="rgb(179,179,179)" stroke-linejoin="round" d="M 21010,8942 L 2240,8942"/>
 <path fill="none" stroke="rgb(179,179,179)" stroke-linejoin="round" d="M 21010,7148 L 2240,7148"/>
 <path fill="none" stroke="rgb(179,179,179)" stroke-linejoin="round" d="M 21010,5353 L 2240,5353"/>
 <path fill="none" stroke="rgb(179,179,179)" stroke-linejoin="round" d="M 21010,3558 L 2240,3558"/>
 <path fill="none" stroke="rgb(179,179,179)" stroke-linejoin="round" d="M 21010,1763 L 2240,1763"/>
 <path fill="none" stroke="rgb(179,179,179)" stroke-linejoin="round" d="M 2240,14478 L 2240,14328"/>
 <path fill="none" stroke="rgb(179,179,179)" stroke-linejoin="round" d="M 2240,14478 L 2240,14328"/>
 <path fill="none" stroke="rgb(179,179,179)" stroke-linejoin="round" d="M 3056,14478 L 3056,14328"/>
 <path fill="none" stroke="rgb(179,179,179)" stroke-linejoin="round" d="M 3056,14478 L 3056,14328"/>
 <path fill="none" stroke="rgb(179,179,179)" stroke-linejoin="round" d="M 3872,14478 L 3872,14328"/>
 <path fill="none" stroke="rgb(179,179,179)" stroke-linejoin="round" d="M 3872,14478 L 3872,14328"/>
 <path fill="none" stroke="rgb(179,179,179)" stroke-linejoin="round" d="M 4688,14478 L 4688,14328"/>
 <path fill="none" stroke="rgb(179,179,179)" stroke-linejoin="round" d="M 4688,14478 L 4688,14328"/>
 <path fill="none" stroke="rgb(179,179,179)" stroke-linejoin="round" d="M 5504,14478 L 5504,14328"/>
 <path fill="none" stroke="rgb(179,179,179)" stroke-linejoin="round" d="M 5504,14478 L 5504,14328"/>
 <path fill="none" stroke="rgb(179,179,179)" stroke-linejoin="round" d="M 6320,14478 L 6320,14328"/>
 <path fill="none" stroke="rgb(179,179,179)" stroke-linejoin="round" d="M 6320,14478 L 6320,14328"/>
 <path fill="none" stroke="rgb(179,179,179)" stroke-linejoin="round" d="M 7136,14478 L 7136,14328"/>
 <path fill="none" stroke="rgb(179,179,179)" stroke-linejoin="round" d="M 7136,14478 L 7136,14328"/>
 <path fill="none" stroke="rgb(179,179,179)" stroke-linejoin="round" d="M 7952,14478 L 7952,14328"/>
 <path fill="none" stroke="rgb(179,179,179)" stroke-linejoin="round" d="M 7952,14478 L 7952,14328"/>
 <path fill="none" stroke="rgb(179,179,179)" stroke-linejoin="round" d="M 8769,14478 L 8769,14328"/>
 <path fill="none" stroke="rgb(179,179,179)" stroke-linejoin="round" d="M 8769,14478 L 8769,14328"/>
 <path fill="none" stroke="rgb(179,179,179)" stroke-linejoin="round" d="M 9585,14478 L 9585,14328"/>
 <path fill="none" stroke="rgb(179,179,179)" stroke-linejoin="round" d="M 9585,14478 L 9585,14328"/>
 <path fill="none" stroke="rgb(179,179,179)" stroke-linejoin="round" d="M 10401,14478 L 10401,14328"/>
 <path fill="none" stroke="rgb(179,179,179)" stroke-linejoin="round" d="M 10401,14478 L 10401,14328"/>
 <path fill="none" stroke="rgb(179,179,179)" stroke-linejoin="round" d="M 11217,14478 L 11217,14328"/>
 <path fill="none" stroke="rgb(179,179,179)" stroke-linejoin="round" d="M 11217,14478 L 11217,14328"/>
 <path fill="none" stroke="rgb(179,179,179)" stroke-linejoin="round" d="M 12033,14478 L 12033,14328"/>
 <path fill="none" stroke="rgb(179,179,179)" stroke-linejoin="round" d="M 12033,14478 L 12033,14328"/>
 <path fill="none" stroke="rgb(179,179,179)" stroke-linejoin="round" d="M 12848,14478 L 12848,14328"/>
 <path fill="none" stroke="rgb(179,179,179)" stroke-linejoin="round" d="M 12848,14478 L 12848,14328"/>
 <path fill="none" stroke="rgb(179,179,179)" stroke-linejoin="round" d="M 13664,14478 L 13664,14328"/>
 <path fill="none" stroke="rgb(179,179,179)" stroke-linejoin="round" d="M 13664,14478 L 13664,14328"/>
 <path fill="none" stroke="rgb(179,179,179)" stroke-linejoin="round" d="M 14480,14478 L 14480,14328"/>
 <path fill="none" stroke="rgb(179,179,179)" stroke-linejoin="round" d="M 14480,14478 L 14480,14328"/>
 <path fill="none" stroke="rgb(179,179,179)" stroke-linejoin="round" d="M 15297,14478 L 15297,14328"/>
 <path fill="none" stroke="rgb(179,179,179)" stroke-linejoin="round" d="M 15297,14478 L 15297,14328"/>
 <path fill="none" stroke="rgb(179,179,179)" stroke-linejoin="round" d="M 16113,14478 L 16113,14328"/>
 <path fill="none" stroke="rgb(179,179,179)" stroke-linejoin="round" d="M 16113,14478 L 16113,14328"/>
 <path fill="none" stroke="rgb(179,179,179)" stroke-linejoin="round" d="M 16929,14478 L 16929,14328"/>
 <path fill="none" stroke="rgb(179,179,179)" stroke-linejoin="round" d="M 16929,14478 L 16929,14328"/>
 <path fill="none" stroke="rgb(179,179,179)" stroke-linejoin="round" d="M 17745,14478 L 17745,14328"/>
 <path fill="none" stroke="rgb(179,179,179)" stroke-linejoin="round" d="M 17745,14478 L 17745,14328"/>
 <path fill="none" stroke="rgb(179,179,179)" stroke-linejoin="round" d="M 18561,14478 L 18561,14328"/>
 <path fill="none" stroke="rgb(179,179,179)" stroke-linejoin="round" d="M 18561,14478 L 18561,14328"/>
 <path fill="none" stroke="rgb(179,179,179)" stroke-linejoin="round" d="M 19377,14478 L 19377,14328"/>
 <path fill="none" stroke="rgb(179,179,179)" stroke-linejoin="round" d="M 19377,14478 L 19377,14328"/>
 <path fill="none" stroke="rgb(179,179,179)" stroke-linejoin="round" d="M 20193,14478 L 20193,14328"/>
 <path fill="none" stroke="rgb(179,179,179)" stroke-linejoin="round" d="M 20193,14478 L 20193,14328"/>
 <path fill="none" stroke="rgb(179,179,179)" stroke-linejoin="round" d="M 21010,14478 L 21010,14328"/>
 <path fill="none" stroke="rgb(179,179,179)" stroke-linejoin="round" d="M 21010,14478 L 21010,14328"/>
 <path fill="none" stroke="rgb(179,179,179)" stroke-linejoin="round" d="M 2240,14328 L 21010,14328"/>
 <path fill="none" stroke="rgb(179,179,179)" stroke-linejoin="round" d="M 2090,14328 L 2240,14328"/>
 <path fill="none" stroke="rgb(179,179,179)" stroke-linejoin="round" d="M 2090,14328 L 2240,14328"/>
 <path fill="none" stroke="rgb(179,179,179)" stroke-linejoin="round" d="M 2090,12532 L 2240,12532"/>
 <path fill="none" stroke="rgb(179,179,179)" stroke-linejoin="round" d="M 2090,12532 L 2240,12532"/>
 <path fill="none" stroke="rgb(179,179,179)" stroke-linejoin="round" d="M 2090,10737 L 2240,10737"/>
 <path fill="none" stroke="rgb(179,179,179)" stroke-linejoin="round" d="M 2090,10737 L 2240,10737"/>
 <path fill="none" stroke="rgb(179,179,179)" stroke-linejoin="round" d="M 2090,8942 L 2240,8942"/>
 <path fill="none" stroke="rgb(179,179,179)" stroke-linejoin="round" d="M 2090,8942 L 2240,8942"/>
 <path fill="none" stroke="rgb(179,179,179)" stroke-linejoin="round" d="M 2090,7148 L 2240,7148"/>
 <path fill="none" stroke="rgb(179,179,179)" stroke-linejoin="round" d="M 2090,7148 L 2240,7148"/>
 <path fill="none" stroke="rgb(179,179,179)" stroke-linejoin="round" d="M 2090,5353 L 2240,5353"/>
 <path fill="none" stroke="rgb(179,179,179)" stroke-linejoin="round" d="M 2090,5353 L 2240,5353"/>
 <path fill="none" stroke="rgb(179,179,179)" stroke-linejoin="round" d="M 2090,3558 L 2240,3558"/>
 <path fill="none" stroke="rgb(179,179,179)" stroke-linejoin="round" d="M 2090,3558 L 2240,3558"/>
 <path fill="none" stroke="rgb(179,179,179)" stroke-linejoin="round" d="M 2090,1763 L 2240,1763"/>
 <path fill="none" stroke="rgb(179,179,179)" stroke-linejoin="round" d="M 2090,1763 L 2240,1763"/>
 <path fill="none" stroke="rgb(179,179,179)" stroke-linejoin="round" d="M 2240,14328 L 2240,1763"/>
 <path fill="none" stroke="rgb(42,96,153)" stroke-width="80" stroke-linejoin="round" d="M 2240,3278 L 2280,3547 2321,3815 2362,4082 2403,4348 2444,4610 2484,4870 2525,5126 2566,5379 2607,5626 2648,5868 2688,6103 2729,6333 2770,6555 2811,6769 2852,6975 2892,7172 2933,7359 2974,7537 3015,7703 3056,7858 3096,8001 3137,8133 3178,8253 3219,8365 3260,8467 3300,8560 3341,8645 3382,8723 3423,8795 3464,8860 3505,8920 3545,8976 3586,9028 3627,9076 3668,9121 3709,9165 3749,9207 3790,9249 3831,9291 3872,9333 3913,9377 3953,9422 3994,9468 4035,9514 4076,9561 4117,9609 4157,9656 4198,9704 4239,9751 4280,9798 4321,9844 4361,9889 4402,9933 4443,9975 4484,10016 4525,10056 4565,10093 4606,10129 4647,10161 4688,10192 4729,10219 4770,10244 4810,10267 4851,10287 4892,10306 4933,10322 4974,10337 5014,10350 5055,10362 5096,10373 5137,10383 5178,10393 5218,10402 5259,10410 5300,10418 5341,10426 5382,10435 5422,10444 5463,10453 5504,10463 5545,10474 5586,10486 5626,10498 5667,10511 5708,10525 5749,10539 5790,10553 5830,10567 5871,10581 5912,10595 5953,10609 5994,10623 6035,10635 6075,10648 6116,10659 6157,10670 6198,10680 6239,10689 6279,10696 6320,10702 6361,10707 6402,10710 6443,10713 6483,10714 6524,10714 6565,10714 6606,10712 6647,10710 6687,10708 6728,10705 6769,10702 6810,10699 6851,10697 6891,10694 6932,10691 6973,10689 7014,10687 7055,10687 7095,10686 7136,10687 7177,10689 7218,10691 7259,10695 7300,10699 7340,10704 7381,10709 7422,10715 7463,10721 7504,10727 7544,10734 7585,10740 7626,10746 7667,10753 7708,10759 7748,10764 7789,10769 7830,10774 7871,10778 7912,10781 7952,10784 7993,10785 8034,10786 8075,10786 8116,10785 8156,10783 8197,10781 8238,10779 8279,10776 8320,10773 8360,10769 8401,10766 8442,10762 8483,10758 8524,10755 8565,10752 8605,10748 8646,10746 8687,10743 8728,10741 8769,10740 8809,10739 8850,10739 8891,10739 8932,10740 8973,10741 9013,10742 9054,10743 9095,10745 9136,10747 9177,10748 9217,10750 9258,10751 9299,10752 9340,10753 9381,10753 9421,10753 9462,10752 9503,10751 9544,10748 9585,10745 9625,10742 9666,10737 9707,10732 9748,10726 9789,10720 9830,10713 9870,10706 9911,10698 9952,10690 9993,10682 10034,10674 10074,10666 10115,10658 10156,10651 10197,10643 10238,10636 10278,10629 10319,10623 10360,10618 10401,10613 10442,10608 10482,10605 10523,10602 10564,10599 10605,10597 10646,10595 10686,10593 10727,10592 10768,10591 10809,10589 10850,10588 10890,10587 10931,10585 10972,10583 11013,10580 11054,10577 11095,10574 11135,10570 11176,10565 11217,10559 11258,10552 11299,10545 11339,10537 11380,10528 11421,10519 11462,10509 11503,10498 11543,10487 11584,10475 11625,10463 11666,10451 11707,10439 11747,10426 11788,10413 11829,10400 11870,10387 11911,10374 11951,10361 11992,10348 12033,10335 12074,10323 12115,10310 12155,10298 12196,10286 12237,10275 12278,10263 12319,10252 12360,10241 12400,10230 12441,10219 12482,10208 12523,10197 12564,10187 12603,10176 12644,10166 12685,10155 12726,10145 12767,10135 12807,10124 12848,10114 12889,10104 12930,10093 12971,10083 13011,10073 13052,10062 13093,10052 13134,10041 13175,10031 13215,10020 13256,10009 13297,9998 13338,9987 13379,9975 13419,9964 13460,9952 13501,9940 13542,9927 13583,9915 13624,9902 13664,9888 13705,9875 13746,9861 13787,9847 13828,9833 13868,9818 13909,9804 13950,9789 13991,9774 14032,9759 14072,9745 14113,9730 14154,9715 14195,9700 14236,9685 14276,9671 14317,9656 14358,9642 14399,9628 14440,9614 14480,9601 14521,9588 14562,9575 14603,9562 14644,9550 14684,9538 14725,9526 14766,9514 14807,9502 14848,9490 14889,9478 14929,9467 14970,9455 15011,9443 15052,9431 15093,9419 15133,9407 15174,9395 15215,9382 15256,9369 15297,9356 15337,9343 15378,9329 15419,9315 15460,9301 15501,9287 15541,9273 15582,9258 15623,9244 15664,9229 15705,9214 15745,9200 15786,9185 15827,9171 15868,9157 15909,9143 15949,9129 15990,9115 16031,9102 16072,9089 16113,9076 16154,9063 16194,9051 16235,9040 16276,9028 16317,9017 16358,9006 16398,8996 16439,8985 16480,8975 16521,8965 16562,8954 16602,8944 16643,8934 16684,8924 16725,8914 16766,8904 16806,8894 16847,8884 16888,8874 16929,8863 16970,8852 17010,8842 17051,8831 17092,8820 17133,8809 17174,8798 17214,8787 17255,8776 17296,8765 17337,8754 17378,8743 17419,8733 17459,8723 17500,8713 17541,8703 17582,8694 17623,8685 17663,8676 17704,8668 17745,8660 17786,8653 17827,8646 17867,8640 17908,8634 17949,8628 17990,8623 18031,8617 18071,8613 18112,8608 18153,8603 18194,8599 18235,8594 18275,8590 18316,8586 18357,8581 18398,8577 18439,8572 18479,8568 18520,8563 18561,8558 18602,8552 18643,8547 18684,8541 18724,8535 18765,8529 18806,8523 18847,8517 18888,8511 18928,8505 18969,8499 19010,8493 19051,8488 19092,8482 19132,8477 19173,8473 19214,8469 19255,8465 19296,8462 19336,8459 19377,8456 19418,8455 19459,8453 19500,8453 19540,8452 19581,8453 19622,8453 19663,8454 19704,8454 19744,8455 19785,8456 19826,8458 19867,8459 19908,8460 19949,8460 19989,8461 20030,8461 20071,8462 20112,8461 20153,8461 20193,8459 20234,8458 20275,8455 20316,8453 20357,8450 20397,8446 20438,8442 20479,8438 20520,8433 20561,8428 20601,8423 20642,8417 20683,8411 20724,8405 20765,8399 20805,8393 20846,8386 20887,8379 20928,8373 20969,8366 21010,8359"/>
 <path fill="none" stroke="rgb(255,66,14)" stroke-width="80" stroke-linejoin="round" d="M 2240,3519 L 2280,3830 2321,4139 2362,4448 2403,4754 2444,5057 2484,5358 2525,5654 2566,5945 2607,6231 2648,6510 2688,6783 2729,7048 2770,7306 2811,7554 2852,7793 2892,8021 2933,8238 2974,8444 3015,8638 3056,8819 3096,8986 3137,9141 3178,9283 3219,9414 3260,9534 3300,9644 3341,9745 3382,9837 3423,9921 3464,9998 3505,10069 3545,10134 3586,10194 3627,10250 3668,10302 3709,10351 3749,10398 3790,10443 3831,10488 3872,10533 3913,10579 3953,10625 3994,10672 4035,10718 4076,10765 4117,10812 4157,10859 4198,10905 4239,10951 4280,10997 4321,11041 4361,11085 4402,11127 4443,11168 4484,11208 4525,11246 4565,11283 4606,11318 4647,11350 4688,11381 4729,11409 4770,11435 4810,11459 4851,11482 4892,11502 4933,11521 4974,11539 5014,11556 5055,11572 5096,11587 5137,11601 5178,11615 5218,11629 5259,11642 5300,11656 5341,11670 5382,11684 5422,11699 5463,11714 5504,11731 5545,11748 5586,11767 5626,11786 5667,11805 5708,11826 5749,11846 5790,11867 5830,11887 5871,11907 5912,11927 5953,11947 5994,11965 6035,11983 6075,12000 6116,12015 6157,12030 6198,12043 6239,12054 6279,12063 6320,12070 6361,12075 6402,12079 6443,12080 6483,12080 6524,12079 6565,12076 6606,12072 6647,12068 6687,12063 6728,12058 6769,12052 6810,12046 6851,12041 6891,12035 6932,12031 6973,12027 7014,12024 7055,12022 7095,12021 7136,12022 7177,12025 7218,12029 7259,12034 7300,12040 7340,12048 7381,12056 7422,12066 7463,12075 7504,12085 7544,12095 7585,12105 7626,12115 7667,12125 7708,12134 7748,12142 7789,12149 7830,12156 7871,12161 7912,12165 7952,12167 7993,12168 8034,12167 8075,12165 8116,12162 8156,12157 8197,12152 8238,12146 8279,12139 8320,12131 8360,12124 8401,12116 8442,12108 8483,12101 8524,12093 8565,12086 8605,12080 8646,12075 8687,12070 8728,12067 8769,12065 8809,12064 8850,12064 8891,12066 8932,12068 8973,12072 9013,12076 9054,12081 9095,12086 9136,12091 9177,12097 9217,12103 9258,12108 9299,12114 9340,12119 9381,12123 9421,12127 9462,12131 9503,12133 9544,12134 9585,12134 9625,12133 9666,12131 9707,12127 9748,12123 9789,12118 9830,12112 9870,12106 9911,12100 9952,12093 9993,12086 10034,12078 10074,12071 10115,12065 10156,12058 10197,12052 10238,12047 10278,12042 10319,12038 10360,12036 10401,12034 10442,12033 10482,12034 10523,12036 10564,12038 10605,12041 10646,12045 10686,12048 10727,12053 10768,12057 10809,12061 10850,12065 10890,12069 10931,12072 10972,12075 11013,12077 11054,12077 11095,12077 11135,12076 11176,12074 11217,12069 11258,12064 11299,12057 11339,12048 11380,12039 11421,12028 11462,12017 11503,12005 11543,11992 11584,11979 11625,11966 11666,11952 11707,11939 11747,11926 11788,11913 11829,11901 11870,11889 11911,11878 11951,11868 11992,11859 12033,11852 12074,11845 12115,11841 12155,11837 12196,11834 12237,11833 12278,11832 12319,11832 12360,11832 12400,11833 12441,11835 12482,11837 12523,11839 12564,11842 12603,11844 12644,11846 12685,11848 12726,11850 12767,11851 12807,11852 12848,11852 12889,11852 12930,11851 12971,11849 13011,11847 13052,11844 13093,11841 13134,11837 13175,11833 13215,11829 13256,11825 13297,11821 13338,11816 13379,11812 13419,11808 13460,11803 13501,11800 13542,11796 13583,11793 13624,11790 13664,11787 13705,11785 13746,11784 13787,11783 13828,11782 13868,11782 13909,11782 13950,11783 13991,11783 14032,11784 14072,11785 14113,11787 14154,11788 14195,11789 14236,11790 14276,11792 14317,11793 14358,11794 14399,11795 14440,11795 14480,11796 14521,11796 14562,11796 14603,11796 14644,11795 14684,11795 14725,11794 14766,11793 14807,11792 14848,11791 14889,11789 14929,11788 14970,11787 15011,11785 15052,11784 15093,11783 15133,11781 15174,11780 15215,11779 15256,11778 15297,11777 15337,11777 15378,11776 15419,11776 15460,11775 15501,11775 15541,11775 15582,11775 15623,11775 15664,11775 15705,11775 15745,11775 15786,11775 15827,11776 15868,11776 15909,11776 15949,11776 15990,11775 16031,11775 16072,11775 16113,11774 16154,11774 16194,11773 16235,11772 16276,11771 16317,11770 16358,11769 16398,11768 16439,11767 16480,11766 16521,11765 16562,11764 16602,11762 16643,11762 16684,11761 16725,11760 16766,11759 16806,11759 16847,11758 16888,11758 16929,11758 16970,11758 17010,11759 17051,11759 17092,11760 17133,11760 17174,11761 17214,11762 17255,11763 17296,11763 17337,11764 17378,11764 17419,11765 17459,11765 17500,11765 17541,11764 17582,11764 17623,11763 17663,11762 17704,11760 17745,11758 17786,11756 17827,11753 17867,11750 17908,11747 17949,11743 17990,11739 18031,11735 18071,11731 18112,11727 18153,11723 18194,11719 18235,11714 18275,11710 18316,11706 18357,11703 18398,11699 18439,11696 18479,11693 18520,11691 18561,11689 18602,11687 18643,11686 18684,11685 18724,11684 18765,11684 18806,11684 18847,11684 18888,11685 18928,11685 18969,11686 19010,11687 19051,11688 19092,11689 19132,11690 19173,11690 19214,11691 19255,11692 19296,11692 19336,11693 19377,11693 19418,11692 19459,11692 19500,11691 19540,11690 19581,11689 19622,11687 19663,11686 19704,11684 19744,11683 19785,11681 19826,11679 19867,11677 19908,11675 19949,11673 19989,11670 20030,11668 20071,11666 20112,11664 20153,11662 20193,11661 20234,11659 20275,11657 20316,11656 20357,11654 20397,11653 20438,11652 20479,11651 20520,11650 20561,11649 20601,11648 20642,11647 20683,11646 20724,11645 20765,11644 20805,11644 20846,11643 20887,11642 20928,11642 20969,11641 21010,11640"/>
 <path fill="none" stroke="rgb(0,0,0)" stroke-width="80" stroke-linejoin="round" stroke-dasharray="640,240" d="M 2240,3704 L 2280,4003 2321,4301 2362,4597 2403,4892 2444,5184 2484,5473 2525,5757 2566,6037 2607,6312 2648,6581 2688,6843 2729,7098 2770,7345 2811,7584 2852,7813 2892,8032 2933,8240 2974,8437 3015,8623 3056,8796 3096,8956 3137,9104 3178,9240 3219,9364 3260,9479 3300,9584 3341,9680 3382,9768 3423,9848 3464,9922 3505,9989 3545,10052 3586,10110 3627,10164 3668,10215 3709,10263 3749,10310 3790,10356 3831,10402 3872,10448 3913,10496 3953,10544 3994,10593 4035,10643 4076,10694 4117,10744 4157,10795 4198,10845 4239,10895 4280,10944 4321,10993 4361,11041 4402,11087 4443,11132 4484,11175 4525,11217 4565,11257 4606,11294 4647,11329 4688,11361 4729,11391 4770,11418 4810,11443 4851,11465 4892,11486 4933,11504 4974,11522 5014,11537 5055,11552 5096,11566 5137,11580 5178,11592 5218,11605 5259,11618 5300,11631 5341,11644 5382,11658 5422,11673 5463,11688 5504,11706 5545,11724 5586,11744 5626,11765 5667,11787 5708,11809 5749,11831 5790,11854 5830,11877 5871,11899 5912,11921 5953,11942 5994,11962 6035,11980 6075,11997 6116,12013 6157,12026 6198,12037 6239,12046 6279,12052 6320,12056 6361,12056 6402,12053 6443,12048 6483,12041 6524,12032 6565,12022 6606,12010 6647,11997 6687,11984 6728,11971 6769,11957 6810,11944 6851,11932 6891,11921 6932,11911 6973,11903 7014,11896 7055,11892 7095,11891 7136,11893 7177,11898 7218,11905 7259,11915 7300,11928 7340,11943 7381,11959 7422,11976 7463,11995 7504,12014 7544,12033 7585,12052 7626,12072 7667,12090 7708,12107 7748,12124 7789,12138 7830,12151 7871,12161 7912,12169 7952,12174 7993,12175 8034,12174 8075,12170 8116,12164 8156,12155 8197,12145 8238,12134 8279,12121 8320,12107 8360,12093 8401,12079 8442,12064 8483,12050 8524,12037 8565,12024 8605,12013 8646,12003 8687,11995 8728,11989 8769,11985 8809,11985 8850,11986 8891,11990 8932,11996 8973,12003 9013,12012 9054,12022 9095,12032 9136,12044 9177,12056 9217,12067 9258,12079 9299,12090 9340,12101 9381,12110 9421,12118 9462,12125 9503,12130 9544,12133 9585,12134 9625,12132 9666,12128 9707,12122 9748,12114 9789,12104 9830,12094 9870,12082 9911,12069 9952,12056 9993,12043 10034,12030 10074,12016 10115,12004 10156,11992 10197,11981 10238,11971 10278,11963 10319,11957 10360,11952 10401,11950 10442,11950 10482,11953 10523,11957 10564,11963 10605,11971 10646,11979 10686,11989 10727,11999 10768,12009 10809,12019 10850,12029 10890,12038 10931,12046 10972,12053 11013,12059 11054,12063 11095,12064 11135,12064 11176,12061 11217,12055 11258,12046 11299,12034 11339,12019 11380,12003 11421,11984 11462,11964 11503,11942 11543,11920 11584,11896 11625,11873 11666,11849 11707,11826 11747,11803 11788,11781 11829,11760 11870,11741 11911,11723 11951,11708 11992,11695 12033,11685 12074,11678 12115,11674 12155,11672 12196,11673 12237,11675 12278,11680 12319,11686 12360,11694 12400,11703 12441,11713 12482,11724 12523,11736 12564,11747 12603,11759 12644,11770 12685,11782 12726,11792 12767,11802 12807,11811 12848,11818 12889,11824 12930,11828 12971,11831 13011,11833 13052,11834 13093,11834 13134,11834 13175,11832 13215,11830 13256,11828 13297,11825 13338,11823 13379,11820 13419,11817 13460,11815 13501,11812 13542,11811 13583,11809 13624,11809 13664,11809 13705,11811 13746,11813 13787,11816 13828,11819 13868,11823 13909,11828 13950,11833 13991,11838 14032,11844 14072,11849 14113,11855 14154,11860 14195,11866 14236,11871 14276,11875 14317,11879 14358,11883 14399,11886 14440,11888 14480,11889 14521,11889 14562,11888 14603,11887 14644,11885 14684,11882 14725,11878 14766,11874 14807,11870 14848,11865 14889,11860 14929,11855 14970,11849 15011,11844 15052,11838 15093,11833 15133,11828 15174,11823 15215,11818 15256,11814 15297,11810 15337,11806 15378,11804 15419,11801 15460,11799 15501,11798 15541,11796 15582,11795 15623,11794 15664,11794 15705,11793 15745,11793 15786,11793 15827,11792 15868,11792 15909,11791 15949,11791 15990,11790 16031,11789 16072,11788 16113,11786 16154,11784 16194,11782 16235,11779 16276,11777 16317,11774 16358,11771 16398,11768 16439,11765 16480,11762 16521,11759 16562,11756 16602,11753 16643,11751 16684,11749 16725,11747 16766,11746 16806,11745 16847,11744 16888,11745 16929,11745 16970,11747 17010,11748 17051,11751 17092,11754 17133,11757 17174,11760 17214,11763 17255,11767 17296,11771 17337,11774 17378,11777 17419,11780 17459,11783 17500,11786 17541,11787 17582,11789 17623,11790 17663,11790 17704,11789 17745,11787 17786,11785 17827,11781 17867,11777 17908,11772 17949,11767 17990,11761 18031,11755 18071,11749 18112,11742 18153,11735 18194,11729 18235,11722 18275,11716 18316,11710 18357,11705 18398,11700 18439,11695 18479,11692 18520,11689 18561,11687 18602,11686 18643,11686 18684,11687 18724,11689 18765,11691 18806,11693 18847,11696 18888,11700 18928,11703 18969,11707 19010,11710 19051,11713 19092,11716 19132,11719 19173,11721 19214,11723 19255,11724 19296,11724 19336,11724 19377,11722 19418,11719 19459,11715 19500,11711 19540,11705 19581,11699 19622,11692 19663,11685 19704,11678 19744,11670 19785,11662 19826,11654 19867,11645 19908,11637 19949,11630 19989,11622 20030,11615 20071,11609 20112,11603 20153,11598 20193,11594 20234,11590 20275,11588 20316,11586 20357,11585 20397,11585 20438,11586 20479,11587 20520,11589 20561,11591 20601,11594 20642,11598 20683,11602 20724,11606 20765,11611 20805,11616 20846,11621 20887,11626 20928,11631 20969,11637 21010,11642"/>
 <text class="TextShape"><tspan class="TextParagraph" font-family="Liberation Sans, sans-serif" font-size="353px" font-weight="400"><tspan class="TextPosition" x="2147" y="14896"><tspan fill="rgb(0,0,0)" stroke="none">1</tspan></tspan></tspan></text>
 <text class="TextShape"><tspan class="TextParagraph" font-family="Liberation Sans, sans-serif" font-size="353px" font-weight="400"><tspan class="TextPosition" x="2963" y="14896"><tspan fill="rgb(0,0,0)" stroke="none">2</tspan></tspan></tspan></text>
 <text class="TextShape"><tspan class="TextParagraph" font-family="Liberation Sans, sans-serif" font-size="353px" font-weight="400"><tspan class="TextPosition" x="3779" y="14896"><tspan fill="rgb(0,0,0)" stroke="none">3</tspan></tspan></tspan></text>
 <text class="TextShape"><tspan class="TextParagraph" font-family="Liberation Sans, sans-serif" font-size="353px" font-weight="400"><tspan class="TextPosition" x="4595" y="14896"><tspan fill="rgb(0,0,0)" stroke="none">4</tspan></tspan></tspan></text>
 <text class="TextShape"><tspan class="TextParagraph" font-family="Liberation Sans, sans-serif" font-size="353px" font-weight="400"><tspan class="TextPosition" x="5411" y="14896"><tspan fill="rgb(0,0,0)" stroke="none">5</tspan></tspan></tspan></text>
 <text class="TextShape"><tspan class="TextParagraph" font-family="Liberation Sans, sans-serif" font-size="353px" font-weight="400"><tspan class="TextPosition" x="6227" y="14896"><tspan fill="rgb(0,0,0)" stroke="none">6</tspan></tspan></tspan></text>
 <text class="TextShape"><tspan class="TextParagraph" font-family="Liberation Sans, sans-serif" font-size="353px" font-weight="400"><tspan class="TextPosition" x="7043" y="14896"><tspan fill="rgb(0,0,0)" stroke="none">7</tspan></tspan></tspan></text>
 <text class="TextShape"><tspan class="TextParagraph" font-family="Liberation Sans, sans-serif" font-size="353px" font-weight="400"><tspan class="TextPosition" x="7859" y="14896"><tspan fill="rgb(0,0,0)" stroke="none">8</tspan></tspan></tspan></text>
 <text class="TextShape"><tspan class="TextParagraph" font-family="Liberation Sans, sans-serif" font-size="353px" font-weight="400"><tspan class="TextPosition" x="8676" y="14896"><tspan fill="rgb(0,0,0)" stroke="none">9</tspan></tspan></tspan></text>
 <text class="TextShape"><tspan class="TextParagraph" font-family="Liberation Sans, sans-serif" font-size="353px" font-weight="400"><tspan class="TextPosition" x="9400" y="14896"><tspan fill="rgb(0,0,0)" stroke="none">10</tspan></tspan></tspan></text>
 <text class="TextShape"><tspan class="TextParagraph" font-family="Liberation Sans, sans-serif" font-size="353px" font-weight="400"><tspan class="TextPosition" x="10216" y="14896"><tspan fill="rgb(0,0,0)" stroke="none">11</tspan></tspan></tspan></text>
 <text class="TextShape"><tspan class="TextParagraph" font-family="Liberation Sans, sans-serif" font-size="353px" font-weight="400"><tspan class="TextPosition" x="11032" y="14896"><tspan fill="rgb(0,0,0)" stroke="none">12</tspan></tspan></tspan></text>
 <text class="TextShape"><tspan class="TextParagraph" font-family="Liberation Sans, sans-serif" font-size="353px" font-weight="400"><tspan class="TextPosition" x="11848" y="14896"><tspan fill="rgb(0,0,0)" stroke="none">13</tspan></tspan></tspan></text>
 <text class="TextShape"><tspan class="TextParagraph" font-family="Liberation Sans, sans-serif" font-size="353px" font-weight="400"><tspan class="TextPosition" x="12664" y="14896"><tspan fill="rgb(0,0,0)" stroke="none">14</tspan></tspan></tspan></text>
 <text class="TextShape"><tspan class="TextParagraph" font-family="Liberation Sans, sans-serif" font-size="353px" font-weight="400"><tspan class="TextPosition" x="13480" y="14896"><tspan fill="rgb(0,0,0)" stroke="none">15</tspan></tspan></tspan></text>
 <text class="TextShape"><tspan class="TextParagraph" font-family="Liberation Sans, sans-serif" font-size="353px" font-weight="400"><tspan class="TextPosition" x="14296" y="14896"><tspan fill="rgb(0,0,0)" stroke="none">16</tspan></tspan></tspan></text>
 <text class="TextShape"><tspan class="TextParagraph" font-family="Liberation Sans, sans-serif" font-size="353px" font-weight="400"><tspan class="TextPosition" x="15113" y="14896"><tspan fill="rgb(0,0,0)" stroke="none">17</tspan></tspan></tspan></text>
 <text class="TextShape"><tspan class="TextParagraph" font-family="Liberation Sans, sans-serif" font-size="353px" font-weight="400"><tspan class="TextPosition" x="15929" y="14896"><tspan fill="rgb(0,0,0)" stroke="none">18</tspan></tspan></tspan></text>
 <text class="TextShape"><tspan class="TextParagraph" font-family="Liberation Sans, sans-serif" font-size="353px" font-weight="400"><tspan class="TextPosition" x="16745" y="14896"><tspan fill="rgb(0,0,0)" stroke="none">19</tspan></tspan></tspan></text>
 <text class="TextShape"><tspan class="TextParagraph" font-family="Liberation Sans, sans-serif" font-size="353px" font-weight="400"><tspan class="TextPosition" x="17561" y="14896"><tspan fill="rgb(0,0,0)" stroke="none">20</tspan></tspan></tspan></text>
 <text class="TextShape"><tspan class="TextParagraph" font-family="Liberation Sans, sans-serif" font-size="353px" font-weight="400"><tspan class="TextPosition" x="18377" y="14896"><tspan fill="rgb(0,0,0)" stroke="none">21</tspan></tspan></tspan></text>
 <text class="TextShape"><tspan class="TextParagraph" font-family="Liberation Sans, sans-serif" font-size="353px" font-weight="400"><tspan class="TextPosition" x="19193" y="14896"><tspan fill="rgb(0,0,0)" stroke="none">22</tspan></tspan></tspan></text>
 <text class="TextShape"><tspan class="TextParagraph" font-family="Liberation Sans, sans-serif" font-size="353px" font-weight="400"><tspan class="TextPosition" x="20009" y="14896"><tspan fill="rgb(0,0,0)" stroke="none">23</tspan></tspan></tspan></text>
 <text class="TextShape"><tspan class="TextParagraph" font-family="Liberation Sans, sans-serif" font-size="353px" font-weight="400"><tspan class="TextPosition" x="20826" y="14896"><tspan fill="rgb(0,0,0)" stroke="none">24</tspan></tspan></tspan></text>
 <text class="TextShape"><tspan class="TextParagraph" font-family="Liberation Sans, sans-serif" font-size="353px" font-weight="400"><tspan class="TextPosition" x="1805" y="14449"><tspan fill="rgb(0,0,0)" stroke="none">0</tspan></tspan></tspan></text>
 <text class="TextShape"><tspan class="TextParagraph" font-family="Liberation Sans, sans-serif" font-size="353px" font-weight="400"><tspan class="TextPosition" x="1514" y="12653"><tspan fill="rgb(0,0,0)" stroke="none">0.5</tspan></tspan></tspan></text>
 <text class="TextShape"><tspan class="TextParagraph" font-family="Liberation Sans, sans-serif" font-size="353px" font-weight="400"><tspan class="TextPosition" x="1805" y="10858"><tspan fill="rgb(0,0,0)" stroke="none">1</tspan></tspan></tspan></text>
 <text class="TextShape"><tspan class="TextParagraph" font-family="Liberation Sans, sans-serif" font-size="353px" font-weight="400"><tspan class="TextPosition" x="1514" y="9063"><tspan fill="rgb(0,0,0)" stroke="none">1.5</tspan></tspan></tspan></text>
 <text class="TextShape"><tspan class="TextParagraph" font-family="Liberation Sans, sans-serif" font-size="353px" font-weight="400"><tspan class="TextPosition" x="1805" y="7268"><tspan fill="rgb(0,0,0)" stroke="none">2</tspan></tspan></tspan></text>
 <text class="TextShape"><tspan class="TextParagraph" font-family="Liberation Sans, sans-serif" font-size="353px" font-weight="400"><tspan class="TextPosition" x="1514" y="5473"><tspan fill="rgb(0,0,0)" stroke="none">2.5</tspan></tspan></tspan></text>
 <text class="TextShape"><tspan class="TextParagraph" font-family="Liberation Sans, sans-serif" font-size="353px" font-weight="400"><tspan class="TextPosition" x="1805" y="3678"><tspan fill="rgb(0,0,0)" stroke="none">3</tspan></tspan></tspan></text>
 <text class="TextShape"><tspan class="TextParagraph" font-family="Liberation Sans, sans-serif" font-size="353px" font-weight="400"><tspan class="TextPosition" x="1514" y="1883"><tspan fill="rgb(0,0,0)" stroke="none">3.5</tspan></tspan></tspan></text>
 <text class="TextShape"><tspan class="TextParagraph" font-family="Liberation Sans, sans-serif" font-size="459px" font-weight="400"><tspan class="TextPosition" x="12027" y="996"><tspan fill="rgb(0,0,0)" stroke="none">ROW</tspan></tspan></tspan></text>
 <path fill="none" stroke="rgb(42,96,153)" stroke-width="80" stroke-linejoin="round" d="M 21815,7642 L 23415,7642"/>
 <path fill="none" stroke="rgb(255,66,14)" stroke-width="80" stroke-linejoin="round" d="M 21815,8140 L 23415,8140"/>
 <path fill="none" stroke="rgb(0,0,0)" stroke-width="80" stroke-linejoin="round" stroke-dasharray="640,240" d="M 21815,8637 L 23415,8637"/>
 <text class="TextShape"><tspan class="TextParagraph" font-family="Liberation Sans, sans-serif" font-size="353px" font-weight="400"><tspan class="TextPosition" x="23515" y="7762"><tspan fill="rgb(0,0,0)" stroke="none">dynamic</tspan></tspan></tspan></text>
 <text class="TextShape"><tspan class="TextParagraph" font-family="Liberation Sans, sans-serif" font-size="353px" font-weight="400"><tspan class="TextPosition" x="23515" y="8259"><tspan fill="rgb(0,0,0)" stroke="none">guided</tspan></tspan></tspan></text>
 <text class="TextShape"><tspan class="TextParagraph" font-family="Liberation Sans, sans-serif" font-size="353px" font-weight="400"><tspan class="TextPosition" x="23515" y="8757"><tspan fill="rgb(0,0,0)" stroke="none">static</tspan></tspan></tspan></text>
 <text class="TextShape"><tspan class="TextParagraph" font-family="Liberation Sans, sans-serif" font-size="318px" font-weight="400"><tspan class="TextPosition" x="10759" y="15688"><tspan fill="rgb(0,0,0)" stroke="none">Threads</tspan></tspan></tspan></text>
 <text class="TextShape" transform="rotate(-90 837 8535)"><tspan class="TextParagraph" font-family="Liberation Sans, sans-serif" font-size="318px" font-weight="400"><tspan class="TextPosition" x="837" y="8535"><tspan fill="rgb(0,0,0)" stroke="none">Zeit</tspan></tspan></tspan></text>
</svg>
