<?xml version="1.0" encoding="UTF-8"?>
<!DOCTYPE svg PUBLIC "-//W3C//DTD SVG 1.1//EN" "http://www.w3.org/Graphics/SVG/1.1/DTD/svg11.dtd">
<svg width="247mm" height="155mm" viewBox="0 0 24700 15500" version="1.1" xmlns="http://www.w3.org/2000/svg" xmlns:xlink="http://www.w3.org/1999/xlink" stroke-width="28.222" stroke-linejoin="round" xml:space="preserve">
 <path fill="rgb(255,255,255)" stroke="none" d="M 12350,15511 L 0,15511 0,0 24699,0 24699,15511 12350,15511 Z"/>
 <path fill="none" stroke="rgb(179,179,179)" stroke-linejoin="round" d="M 11580,13573 L 2126,13573 2126,2727 21034,2727 21034,13573 11580,13573 Z"/>
 <path fill="none" stroke="rgb(179,179,179)" stroke-linejoin="round" d="M 21034,13572 L 2126,13572"/>
 <path fill="none" stroke="rgb(179,179,179)" stroke-linejoin="round" d="M 21034,11402 L 2126,11402"/>
 <path fill="none" stroke="rgb(179,179,179)" stroke-linejoin="round" d="M 21034,9233 L 2126,9233"/>
 <path fill="none" stroke="rgb(179,179,179)" stroke-linejoin="round" d="M 21034,7064 L 2126,7064"/>
 <path fill="none" stroke="rgb(179,179,179)" stroke-linejoin="round" d="M 21034,4895 L 2126,4895"/>
 <path fill="none" stroke="rgb(179,179,179)" stroke-linejoin="round" d="M 21034,2726 L 2126,2726"/>
 <path fill="none" stroke="rgb(179,179,179)" stroke-linejoin="round" d="M 2126,13722 L 2126,13572"/>
 <path fill="none" stroke="rgb(179,179,179)" stroke-linejoin="round" d="M 2126,13722 L 2126,13572"/>
 <path fill="none" stroke="rgb(179,179,179)" stroke-linejoin="round" d="M 2948,13722 L 2948,13572"/>
 <path fill="none" stroke="rgb(179,179,179)" stroke-linejoin="round" d="M 2948,13722 L 2948,13572"/>
 <path fill="none" stroke="rgb(179,179,179)" stroke-linejoin="round" d="M 3770,13722 L 3770,13572"/>
 <path fill="none" stroke="rgb(179,179,179)" stroke-linejoin="round" d="M 3770,13722 L 3770,13572"/>
 <path fill="none" stroke="rgb(179,179,179)" stroke-linejoin="round" d="M 4592,13722 L 4592,13572"/>
 <path fill="none" stroke="rgb(179,179,179)" stroke-linejoin="round" d="M 4592,13722 L 4592,13572"/>
 <path fill="none" stroke="rgb(179,179,179)" stroke-linejoin="round" d="M 5414,13722 L 5414,13572"/>
 <path fill="none" stroke="rgb(179,179,179)" stroke-linejoin="round" d="M 5414,13722 L 5414,13572"/>
 <path fill="none" stroke="rgb(179,179,179)" stroke-linejoin="round" d="M 6236,13722 L 6236,13572"/>
 <path fill="none" stroke="rgb(179,179,179)" stroke-linejoin="round" d="M 6236,13722 L 6236,13572"/>
 <path fill="none" stroke="rgb(179,179,179)" stroke-linejoin="round" d="M 7058,13722 L 7058,13572"/>
 <path fill="none" stroke="rgb(179,179,179)" stroke-linejoin="round" d="M 7058,13722 L 7058,13572"/>
 <path fill="none" stroke="rgb(179,179,179)" stroke-linejoin="round" d="M 7880,13722 L 7880,13572"/>
 <path fill="none" stroke="rgb(179,179,179)" stroke-linejoin="round" d="M 7880,13722 L 7880,13572"/>
 <path fill="none" stroke="rgb(179,179,179)" stroke-linejoin="round" d="M 8703,13722 L 8703,13572"/>
 <path fill="none" stroke="rgb(179,179,179)" stroke-linejoin="round" d="M 8703,13722 L 8703,13572"/>
 <path fill="none" stroke="rgb(179,179,179)" stroke-linejoin="round" d="M 9525,13722 L 9525,13572"/>
 <path fill="none" stroke="rgb(179,179,179)" stroke-linejoin="round" d="M 9525,13722 L 9525,13572"/>
 <path fill="none" stroke="rgb(179,179,179)" stroke-linejoin="round" d="M 10347,13722 L 10347,13572"/>
 <path fill="none" stroke="rgb(179,179,179)" stroke-linejoin="round" d="M 10347,13722 L 10347,13572"/>
 <path fill="none" stroke="rgb(179,179,179)" stroke-linejoin="round" d="M 11169,13722 L 11169,13572"/>
 <path fill="none" stroke="rgb(179,179,179)" stroke-linejoin="round" d="M 11169,13722 L 11169,13572"/>
 <path fill="none" stroke="rgb(179,179,179)" stroke-linejoin="round" d="M 11991,13722 L 11991,13572"/>
 <path fill="none" stroke="rgb(179,179,179)" stroke-linejoin="round" d="M 11991,13722 L 11991,13572"/>
 <path fill="none" stroke="rgb(179,179,179)" stroke-linejoin="round" d="M 12812,13722 L 12812,13572"/>
 <path fill="none" stroke="rgb(179,179,179)" stroke-linejoin="round" d="M 12812,13722 L 12812,13572"/>
 <path fill="none" stroke="rgb(179,179,179)" stroke-linejoin="round" d="M 13634,13722 L 13634,13572"/>
 <path fill="none" stroke="rgb(179,179,179)" stroke-linejoin="round" d="M 13634,13722 L 13634,13572"/>
 <path fill="none" stroke="rgb(179,179,179)" stroke-linejoin="round" d="M 14456,13722 L 14456,13572"/>
 <path fill="none" stroke="rgb(179,179,179)" stroke-linejoin="round" d="M 14456,13722 L 14456,13572"/>
 <path fill="none" stroke="rgb(179,179,179)" stroke-linejoin="round" d="M 15279,13722 L 15279,13572"/>
 <path fill="none" stroke="rgb(179,179,179)" stroke-linejoin="round" d="M 15279,13722 L 15279,13572"/>
 <path fill="none" stroke="rgb(179,179,179)" stroke-linejoin="round" d="M 16101,13722 L 16101,13572"/>
 <path fill="none" stroke="rgb(179,179,179)" stroke-linejoin="round" d="M 16101,13722 L 16101,13572"/>
 <path fill="none" stroke="rgb(179,179,179)" stroke-linejoin="round" d="M 16923,13722 L 16923,13572"/>
 <path fill="none" stroke="rgb(179,179,179)" stroke-linejoin="round" d="M 16923,13722 L 16923,13572"/>
 <path fill="none" stroke="rgb(179,179,179)" stroke-linejoin="round" d="M 17745,13722 L 17745,13572"/>
 <path fill="none" stroke="rgb(179,179,179)" stroke-linejoin="round" d="M 17745,13722 L 17745,13572"/>
 <path fill="none" stroke="rgb(179,179,179)" stroke-linejoin="round" d="M 18567,13722 L 18567,13572"/>
 <path fill="none" stroke="rgb(179,179,179)" stroke-linejoin="round" d="M 18567,13722 L 18567,13572"/>
 <path fill="none" stroke="rgb(179,179,179)" stroke-linejoin="round" d="M 19389,13722 L 19389,13572"/>
 <path fill="none" stroke="rgb(179,179,179)" stroke-linejoin="round" d="M 19389,13722 L 19389,13572"/>
 <path fill="none" stroke="rgb(179,179,179)" stroke-linejoin="round" d="M 20211,13722 L 20211,13572"/>
 <path fill="none" stroke="rgb(179,179,179)" stroke-linejoin="round" d="M 20211,13722 L 20211,13572"/>
 <path fill="none" stroke="rgb(179,179,179)" stroke-linejoin="round" d="M 21034,13722 L 21034,13572"/>
 <path fill="none" stroke="rgb(179,179,179)" stroke-linejoin="round" d="M 21034,13722 L 21034,13572"/>
 <path fill="none" stroke="rgb(179,179,179)" stroke-linejoin="round" d="M 2126,13572 L 21034,13572"/>
 <path fill="none" stroke="rgb(179,179,179)" stroke-linejoin="round" d="M 1976,13572 L 2126,13572"/>
 <path fill="none" stroke="rgb(179,179,179)" stroke-linejoin="round" d="M 1976,13572 L 2126,13572"/>
 <path fill="none" stroke="rgb(179,179,179)" stroke-linejoin="round" d="M 1976,11402 L 2126,11402"/>
 <path fill="none" stroke="rgb(179,179,179)" stroke-linejoin="round" d="M 1976,11402 L 2126,11402"/>
 <path fill="none" stroke="rgb(179,179,179)" stroke-linejoin="round" d="M 1976,9233 L 2126,9233"/>
 <path fill="none" stroke="rgb(179,179,179)" stroke-linejoin="round" d="M 1976,9233 L 2126,9233"/>
 <path fill="none" stroke="rgb(179,179,179)" stroke-linejoin="round" d="M 1976,7064 L 2126,7064"/>
 <path fill="none" stroke="rgb(179,179,179)" stroke-linejoin="round" d="M 1976,7064 L 2126,7064"/>
 <path fill="none" stroke="rgb(179,179,179)" stroke-linejoin="round" d="M 1976,4895 L 2126,4895"/>
 <path fill="none" stroke="rgb(179,179,179)" stroke-linejoin="round" d="M 1976,4895 L 2126,4895"/>
 <path fill="none" stroke="rgb(179,179,179)" stroke-linejoin="round" d="M 1976,2726 L 2126,2726"/>
 <path fill="none" stroke="rgb(179,179,179)" stroke-linejoin="round" d="M 1976,2726 L 2126,2726"/>
 <path fill="none" stroke="rgb(179,179,179)" stroke-linejoin="round" d="M 2126,13572 L 2126,2726"/>
 <path fill="none" stroke="rgb(0,69,134)" stroke-width="80" stroke-linejoin="round" d="M 2126,12288 L 2167,12324 2208,12360 2249,12395 2290,12431 2331,12466 2372,12501 2413,12536 2454,12570 2495,12603 2537,12635 2578,12667 2619,12698 2660,12728 2701,12756 2742,12784 2783,12811 2824,12836 2865,12860 2907,12882 2948,12903 2989,12922 3030,12940 3071,12957 3112,12972 3153,12986 3194,12998 3235,13010 3276,13020 3318,13030 3359,13039 3400,13047 3441,13055 3482,13062 3523,13068 3564,13074 3605,13080 3646,13086 3688,13092 3729,13097 3770,13103 3811,13108 3852,13114 3893,13120 3934,13126 3975,13132 4016,13138 4058,13145 4099,13151 4140,13157 4181,13163 4222,13169 4263,13174 4304,13180 4345,13185 4386,13191 4427,13196 4469,13200 4510,13205 4551,13209 4592,13213 4633,13217 4674,13220 4715,13223 4756,13226 4797,13228 4839,13230 4880,13232 4921,13234 4962,13236 5003,13238 5044,13239 5085,13241 5126,13243 5167,13244 5208,13246 5250,13247 5291,13249 5332,13251 5373,13253 5414,13255 5455,13257 5496,13259 5537,13262 5578,13264 5620,13267 5661,13270 5702,13273 5743,13275 5784,13278 5825,13281 5866,13283 5907,13286 5948,13288 5990,13290 6031,13292 6072,13293 6113,13295 6154,13296 6195,13297 6236,13297 6277,13297 6318,13297 6359,13296 6401,13295 6442,13294 6483,13293 6524,13291 6565,13290 6606,13288 6647,13287 6688,13285 6729,13283 6771,13282 6812,13281 6853,13279 6894,13278 6935,13278 6976,13277 7017,13277 7058,13277 7099,13278 7140,13279 7182,13280 7223,13282 7264,13283 7305,13285 7346,13287 7387,13290 7428,13292 7469,13294 7510,13297 7552,13299 7593,13301 7634,13303 7675,13305 7716,13307 7757,13308 7798,13310 7839,13311 7880,13311 7922,13311 7963,13311 8004,13311 8045,13310 8086,13309 8127,13308 8168,13306 8209,13305 8250,13303 8291,13301 8333,13300 8374,13298 8415,13296 8456,13295 8497,13293 8538,13292 8579,13291 8620,13290 8661,13289 8703,13288 8744,13288 8785,13289 8826,13289 8867,13290 8908,13291 8949,13292 8990,13293 9031,13294 9073,13296 9114,13297 9155,13298 9196,13300 9237,13301 9278,13302 9319,13304 9360,13305 9401,13305 9442,13306 9484,13306 9525,13306 9566,13306 9607,13306 9648,13305 9689,13304 9730,13303 9771,13302 9812,13300 9854,13299 9895,13297 9936,13295 9977,13294 10018,13292 10059,13291 10100,13289 10141,13288 10182,13287 10223,13286 10265,13285 10306,13284 10347,13284 10388,13284 10429,13285 10470,13285 10511,13286 10552,13287 10593,13288 10635,13289 10676,13290 10717,13291 10758,13293 10799,13294 10840,13295 10881,13296 10922,13297 10963,13297 11005,13298 11046,13298 11087,13298 11128,13298 11169,13297 11210,13296 11251,13294 11292,13293 11333,13291 11374,13288 11416,13286 11457,13283 11498,13280 11539,13278 11580,13275 11621,13272 11662,13269 11703,13266 11744,13264 11786,13261 11827,13259 11868,13257 11909,13255 11950,13253 11991,13252 12032,13251 12073,13251 12114,13251 12155,13251 12197,13251 12238,13252 12279,13252 12320,13253 12360,13254 12401,13256 12442,13257 12483,13258 12524,13260 12566,13261 12607,13262 12648,13264 12689,13265 12730,13266 12771,13267 12812,13268 12853,13269 12894,13269 12936,13270 12977,13270 13018,13270 13059,13270 13100,13270 13141,13270 13182,13270 13223,13269 13264,13269 13305,13269 13347,13268 13388,13268 13429,13268 13470,13268 13511,13267 13552,13267 13593,13267 13634,13267 13675,13267 13717,13268 13758,13268 13799,13268 13840,13269 13881,13269 13922,13270 13963,13271 14004,13271 14045,13272 14086,13273 14128,13273 14169,13274 14210,13275 14251,13275 14292,13276 14333,13276 14374,13276 14415,13277 14456,13277 14498,13277 14539,13277 14580,13277 14621,13276 14662,13276 14703,13276 14744,13275 14785,13274 14826,13274 14868,13273 14909,13273 14950,13272 14991,13271 15032,13271 15073,13270 15114,13269 15155,13269 15196,13268 15237,13268 15279,13267 15320,13267 15361,13266 15402,13266 15443,13266 15484,13266 15525,13266 15566,13265 15607,13265 15649,13265 15690,13265 15731,13265 15772,13265 15813,13265 15854,13265 15895,13265 15936,13265 15977,13265 16019,13265 16060,13265 16101,13264 16142,13264 16183,13264 16224,13264 16265,13263 16306,13263 16347,13263 16388,13262 16430,13262 16471,13261 16512,13261 16553,13261 16594,13260 16635,13260 16676,13260 16717,13260 16758,13260 16800,13259 16841,13259 16882,13259 16923,13259 16964,13260 17005,13260 17046,13260 17087,13260 17128,13261 17169,13261 17211,13262 17252,13262 17293,13262 17334,13263 17375,13263 17416,13264 17457,13264 17498,13264 17539,13265 17581,13265 17622,13265 17663,13265 17704,13265 17745,13265 17786,13264 17827,13264 17868,13263 17909,13263 17951,13262 17992,13261 18033,13261 18074,13260 18115,13259 18156,13258 18197,13257 18238,13257 18279,13256 18320,13255 18362,13255 18403,13254 18444,13253 18485,13253 18526,13253 18567,13252 18608,13252 18649,13252 18690,13252 18732,13253 18773,13253 18814,13253 18855,13254 18896,13254 18937,13254 18978,13255 19019,13255 19060,13256 19101,13256 19143,13256 19184,13257 19225,13257 19266,13257 19307,13257 19348,13257 19389,13257 19430,13256 19471,13256 19513,13255 19554,13255 19595,13254 19636,13253 19677,13252 19718,13251 19759,13250 19800,13249 19841,13248 19883,13247 19924,13246 19965,13245 20006,13245 20047,13244 20088,13243 20129,13242 20170,13242 20211,13241 20252,13241 20294,13240 20335,13240 20376,13240 20417,13240 20458,13240 20499,13240 20540,13241 20581,13241 20622,13241 20664,13242 20705,13242 20746,13243 20787,13243 20828,13244 20869,13244 20910,13245 20951,13246 20992,13246 21034,13247"/>
 <path fill="none" stroke="rgb(255,66,14)" stroke-width="80" stroke-linejoin="round" d="M 2126,10958 L 2167,11026 2208,11094 2249,11162 2290,11229 2331,11296 2372,11362 2413,11427 2454,11492 2495,11556 2537,11618 2578,11680 2619,11740 2660,11798 2701,11855 2742,11911 2783,11964 2824,12016 2865,12066 2907,12113 2948,12159 2989,12202 3030,12242 3071,12281 3112,12317 3153,12351 3194,12383 3235,12414 3276,12443 3318,12470 3359,12495 3400,12519 3441,12542 3482,12563 3523,12583 3564,12603 3605,12621 3646,12638 3688,12654 3729,12669 3770,12684 3811,12698 3852,12712 3893,12725 3934,12738 3975,12750 4016,12762 4058,12773 4099,12784 4140,12794 4181,12804 4222,12814 4263,12823 4304,12831 4345,12840 4386,12848 4427,12856 4469,12863 4510,12871 4551,12878 4592,12884 4633,12891 4674,12897 4715,12903 4756,12909 4797,12915 4839,12920 4880,12926 4921,12931 4962,12936 5003,12941 5044,12946 5085,12950 5126,12955 5167,12959 5208,12964 5250,12968 5291,12972 5332,12976 5373,12981 5414,12985 5455,12989 5496,12993 5537,12997 5578,13001 5620,13005 5661,13009 5702,13012 5743,13016 5784,13020 5825,13023 5866,13027 5907,13030 5948,13033 5990,13037 6031,13040 6072,13043 6113,13045 6154,13048 6195,13050 6236,13053 6277,13055 6318,13057 6359,13059 6401,13060 6442,13062 6483,13063 6524,13065 6565,13066 6606,13067 6647,13069 6688,13070 6729,13071 6771,13072 6812,13073 6853,13075 6894,13076 6935,13077 6976,13079 7017,13080 7058,13081 7099,13083 7140,13085 7182,13086 7223,13088 7264,13090 7305,13092 7346,13094 7387,13096 7428,13098 7469,13099 7510,13101 7552,13103 7593,13104 7634,13106 7675,13107 7716,13108 7757,13109 7798,13110 7839,13111 7880,13111 7922,13112 7963,13112 8004,13112 8045,13112 8086,13111 8127,13111 8168,13110 8209,13110 8250,13109 8291,13109 8333,13108 8374,13108 8415,13107 8456,13107 8497,13107 8538,13107 8579,13107 8620,13107 8661,13108 8703,13109 8744,13110 8785,13111 8826,13113 8867,13114 8908,13116 8949,13118 8990,13120 9031,13121 9073,13123 9114,13125 9155,13127 9196,13128 9237,13129 9278,13130 9319,13131 9360,13132 9401,13132 9442,13132 9484,13131 9525,13130 9566,13128 9607,13126 9648,13124 9689,13121 9730,13118 9771,13114 9812,13111 9854,13107 9895,13103 9936,13100 9977,13096 10018,13092 10059,13089 10100,13085 10141,13082 10182,13079 10223,13077 10265,13074 10306,13073 10347,13071 10388,13071 10429,13070 10470,13071 10511,13071 10552,13072 10593,13073 10635,13074 10676,13075 10717,13077 10758,13078 10799,13079 10840,13080 10881,13081 10922,13081 10963,13082 11005,13081 11046,13081 11087,13080 11128,13078 11169,13075 11210,13072 11251,13069 11292,13064 11333,13059 11374,13054 11416,13049 11457,13043 11498,13037 11539,13030 11580,13024 11621,13018 11662,13012 11703,13005 11744,13000 11786,12994 11827,12989 11868,12984 11909,12980 11950,12976 11991,12974 12032,12971 12073,12970 12114,12969 12155,12969 12197,12969 12238,12969 12279,12971 12320,12972 12360,12974 12401,12976 12442,12979 12483,12981 12524,12984 12566,12987 12607,12989 12648,12992 12689,12995 12730,12997 12771,13000 12812,13002 12853,13004 12894,13006 12936,13007 12977,13009 13018,13010 13059,13011 13100,13012 13141,13012 13182,13013 13223,13014 13264,13014 13305,13015 13347,13015 13388,13016 13429,13016 13470,13017 13511,13018 13552,13018 13593,13019 13634,13021 13675,13022 13717,13023 13758,13025 13799,13026 13840,13028 13881,13030 13922,13032 13963,13034 14004,13036 14045,13037 14086,13039 14128,13041 14169,13043 14210,13044 14251,13045 14292,13047 14333,13048 14374,13048 14415,13049 14456,13049 14498,13049 14539,13049 14580,13049 14621,13048 14662,13047 14703,13046 14744,13045 14785,13044 14826,13043 14868,13041 14909,13040 14950,13038 14991,13036 15032,13035 15073,13033 15114,13032 15155,13030 15196,13029 15237,13027 15279,13026 15320,13025 15361,13024 15402,13023 15443,13022 15484,13021 15525,13020 15566,13020 15607,13019 15649,13018 15690,13017 15731,13017 15772,13016 15813,13015 15854,13014 15895,13013 15936,13012 15977,13011 16019,13010 16060,13008 16101,13006 16142,13004 16183,13002 16224,13000 16265,12998 16306,12996 16347,12993 16388,12991 16430,12988 16471,12986 16512,12983 16553,12981 16594,12979 16635,12976 16676,12974 16717,12972 16758,12970 16800,12969 16841,12967 16882,12966 16923,12965 16964,12964 17005,12964 17046,12963 17087,12963 17128,12963 17169,12963 17211,12964 17252,12964 17293,12965 17334,12965 17375,12966 17416,12967 17457,12967 17498,12968 17539,12968 17581,12969 17622,12969 17663,12969 17704,12969 17745,12969 17786,12969 17827,12968 17868,12967 17909,12967 17951,12965 17992,12964 18033,12963 18074,12961 18115,12960 18156,12958 18197,12956 18238,12954 18279,12952 18320,12950 18362,12948 18403,12946 18444,12944 18485,12941 18526,12939 18567,12937 18608,12935 18649,12933 18690,12930 18732,12928 18773,12926 18814,12924 18855,12922 18896,12920 18937,12918 18978,12916 19019,12914 19060,12913 19101,12911 19143,12909 19184,12907 19225,12906 19266,12904 19307,12903 19348,12901 19389,12900 19430,12899 19471,12898 19513,12897 19554,12895 19595,12894 19636,12894 19677,12893 19718,12892 19759,12891 19800,12891 19841,12890 19883,12889 19924,12889 19965,12888 20006,12888 20047,12888 20088,12887 20129,12887 20170,12887 20211,12887 20252,12887 20294,12887 20335,12887 20376,12887 20417,12887 20458,12887 20499,12887 20540,12887 20581,12887 20622,12887 20664,12888 20705,12888 20746,12888 20787,12888 20828,12889 20869,12889 20910,12889 20951,12890 20992,12890 21034,12890"/>
 <path fill="none" stroke="rgb(255,211,32)" stroke-width="80" stroke-linejoin="round" d="M 2126,4141 L 2167,4414 2208,4686 2249,4958 2290,5227 2331,5494 2372,5758 2413,6018 2454,6275 2495,6526 2537,6772 2578,7012 2619,7245 2660,7471 2701,7689 2742,7898 2783,8099 2824,8290 2865,8471 2907,8641 2948,8800 2989,8947 3030,9082 3071,9207 3112,9321 3153,9426 3194,9522 3235,9610 3276,9691 3318,9764 3359,9831 3400,9892 3441,9948 3482,10000 3523,10047 3564,10092 3605,10134 3646,10174 3688,10213 3729,10251 3770,10289 3811,10327 3852,10366 3893,10405 3934,10445 3975,10485 4016,10525 4058,10565 4099,10604 4140,10644 4181,10684 4222,10723 4263,10762 4304,10800 4345,10837 4386,10874 4427,10910 4469,10946 4510,10980 4551,11013 4592,11045 4633,11076 4674,11106 4715,11134 4756,11162 4797,11188 4839,11214 4880,11238 4921,11262 4962,11286 5003,11308 5044,11330 5085,11352 5126,11373 5167,11393 5208,11413 5250,11433 5291,11453 5332,11473 5373,11493 5414,11512 5455,11532 5496,11551 5537,11571 5578,11591 5620,11610 5661,11629 5702,11648 5743,11667 5784,11686 5825,11704 5866,11722 5907,11739 5948,11756 5990,11772 6031,11788 6072,11803 6113,11818 6154,11832 6195,11845 6236,11857 6277,11869 6318,11880 6359,11890 6401,11899 6442,11908 6483,11916 6524,11924 6565,11932 6606,11939 6647,11946 6688,11953 6729,11959 6771,11965 6812,11972 6853,11978 6894,11985 6935,11991 6976,11998 7017,12005 7058,12013 7099,12020 7140,12029 7182,12037 7223,12046 7264,12054 7305,12063 7346,12073 7387,12082 7428,12091 7469,12100 7510,12110 7552,12119 7593,12128 7634,12136 7675,12145 7716,12153 7757,12161 7798,12169 7839,12176 7880,12182 7922,12189 7963,12194 8004,12200 8045,12204 8086,12209 8127,12213 8168,12217 8209,12221 8250,12224 8291,12227 8333,12230 8374,12232 8415,12235 8456,12237 8497,12240 8538,12242 8579,12244 8620,12247 8661,12249 8703,12251 8744,12254 8785,12256 8826,12259 8867,12262 8908,12264 8949,12267 8990,12270 9031,12273 9073,12276 9114,12279 9155,12283 9196,12286 9237,12289 9278,12292 9319,12296 9360,12299 9401,12303 9442,12306 9484,12310 9525,12313 9566,12317 9607,12321 9648,12324 9689,12328 9730,12331 9771,12335 9812,12339 9854,12342 9895,12346 9936,12350 9977,12353 10018,12357 10059,12360 10100,12364 10141,12367 10182,12370 10223,12374 10265,12377 10306,12380 10347,12383 10388,12387 10429,12390 10470,12392 10511,12395 10552,12398 10593,12400 10635,12402 10676,12404 10717,12406 10758,12407 10799,12408 10840,12409 10881,12409 10922,12409 10963,12409 11005,12408 11046,12407 11087,12405 11128,12403 11169,12400 11210,12397 11251,12393 11292,12389 11333,12384 11374,12379 11416,12374 11457,12369 11498,12363 11539,12358 11580,12352 11621,12347 11662,12342 11703,12337 11744,12332 11786,12328 11827,12324 11868,12320 11909,12317 11950,12315 11991,12313 12032,12312 12073,12311 12114,12311 12155,12312 12197,12313 12238,12315 12279,12317 12320,12320 12360,12322 12401,12325 12442,12328 12483,12332 12524,12335 12566,12339 12607,12342 12648,12346 12689,12349 12730,12352 12771,12355 12812,12358 12853,12361 12894,12363 12936,12365 12977,12366 13018,12368 13059,12369 13100,12370 13141,12371 13182,12372 13223,12373 13264,12374 13305,12375 13347,12376 13388,12377 13429,12378 13470,12379 13511,12380 13552,12381 13593,12382 13634,12384 13675,12386 13717,12388 13758,12390 13799,12392 13840,12395 13881,12397 13922,12400 13963,12403 14004,12406 14045,12408 14086,12411 14128,12414 14169,12418 14210,12421 14251,12424 14292,12427 14333,12430 14374,12432 14415,12435 14456,12438 14498,12441 14539,12443 14580,12445 14621,12448 14662,12450 14703,12452 14744,12454 14785,12455 14826,12457 14868,12458 14909,12459 14950,12460 14991,12461 15032,12462 15073,12462 15114,12463 15155,12463 15196,12463 15237,12462 15279,12462 15320,12461 15361,12460 15402,12459 15443,12458 15484,12456 15525,12455 15566,12454 15607,12452 15649,12451 15690,12449 15731,12448 15772,12446 15813,12445 15854,12444 15895,12443 15936,12442 15977,12442 16019,12442 16060,12442 16101,12442 16142,12443 16183,12443 16224,12445 16265,12446 16306,12448 16347,12450 16388,12452 16430,12454 16471,12456 16512,12459 16553,12461 16594,12464 16635,12467 16676,12470 16717,12473 16758,12475 16800,12478 16841,12481 16882,12484 16923,12486 16964,12489 17005,12491 17046,12494 17087,12496 17128,12498 17169,12500 17211,12502 17252,12503 17293,12505 17334,12506 17375,12507 17416,12508 17457,12509 17498,12510 17539,12511 17581,12511 17622,12511 17663,12511 17704,12511 17745,12511 17786,12511 17827,12510 17868,12509 17909,12508 17951,12507 17992,12506 18033,12505 18074,12504 18115,12503 18156,12502 18197,12501 18238,12500 18279,12499 18320,12498 18362,12498 18403,12497 18444,12497 18485,12497 18526,12497 18567,12497 18608,12498 18649,12499 18690,12500 18732,12501 18773,12502 18814,12504 18855,12505 18896,12507 18937,12509 18978,12510 19019,12512 19060,12514 19101,12515 19143,12516 19184,12518 19225,12519 19266,12519 19307,12520 19348,12520 19389,12520 19430,12520 19471,12519 19513,12518 19554,12517 19595,12515 19636,12514 19677,12512 19718,12510 19759,12508 19800,12506 19841,12503 19883,12501 19924,12499 19965,12496 20006,12494 20047,12492 20088,12490 20129,12488 20170,12486 20211,12485 20252,12484 20294,12482 20335,12481 20376,12481 20417,12480 20458,12480 20499,12480 20540,12479 20581,12479 20622,12480 20664,12480 20705,12480 20746,12481 20787,12481 20828,12482 20869,12482 20910,12483 20951,12484 20992,12485 21034,12485"/>
 <text class="TextShape"><tspan class="TextParagraph" font-family="Liberation Sans, sans-serif" font-size="353px" font-weight="400"><tspan class="TextPosition" x="2033" y="14140"><tspan fill="rgb(0,0,0)" stroke="none">1</tspan></tspan></tspan></text>
 <text class="TextShape"><tspan class="TextParagraph" font-family="Liberation Sans, sans-serif" font-size="353px" font-weight="400"><tspan class="TextPosition" x="2855" y="14140"><tspan fill="rgb(0,0,0)" stroke="none">2</tspan></tspan></tspan></text>
 <text class="TextShape"><tspan class="TextParagraph" font-family="Liberation Sans, sans-serif" font-size="353px" font-weight="400"><tspan class="TextPosition" x="3677" y="14140"><tspan fill="rgb(0,0,0)" stroke="none">3</tspan></tspan></tspan></text>
 <text class="TextShape"><tspan class="TextParagraph" font-family="Liberation Sans, sans-serif" font-size="353px" font-weight="400"><tspan class="TextPosition" x="4499" y="14140"><tspan fill="rgb(0,0,0)" stroke="none">4</tspan></tspan></tspan></text>
 <text class="TextShape"><tspan class="TextParagraph" font-family="Liberation Sans, sans-serif" font-size="353px" font-weight="400"><tspan class="TextPosition" x="5321" y="14140"><tspan fill="rgb(0,0,0)" stroke="none">5</tspan></tspan></tspan></text>
 <text class="TextShape"><tspan class="TextParagraph" font-family="Liberation Sans, sans-serif" font-size="353px" font-weight="400"><tspan class="TextPosition" x="6143" y="14140"><tspan fill="rgb(0,0,0)" stroke="none">6</tspan></tspan></tspan></text>
 <text class="TextShape"><tspan class="TextParagraph" font-family="Liberation Sans, sans-serif" font-size="353px" font-weight="400"><tspan class="TextPosition" x="6965" y="14140"><tspan fill="rgb(0,0,0)" stroke="none">7</tspan></tspan></tspan></text>
 <text class="TextShape"><tspan class="TextParagraph" font-family="Liberation Sans, sans-serif" font-size="353px" font-weight="400"><tspan class="TextPosition" x="7787" y="14140"><tspan fill="rgb(0,0,0)" stroke="none">8</tspan></tspan></tspan></text>
 <text class="TextShape"><tspan class="TextParagraph" font-family="Liberation Sans, sans-serif" font-size="353px" font-weight="400"><tspan class="TextPosition" x="8610" y="14140"><tspan fill="rgb(0,0,0)" stroke="none">9</tspan></tspan></tspan></text>
 <text class="TextShape"><tspan class="TextParagraph" font-family="Liberation Sans, sans-serif" font-size="353px" font-weight="400"><tspan class="TextPosition" x="9340" y="14140"><tspan fill="rgb(0,0,0)" stroke="none">10</tspan></tspan></tspan></text>
 <text class="TextShape"><tspan class="TextParagraph" font-family="Liberation Sans, sans-serif" font-size="353px" font-weight="400"><tspan class="TextPosition" x="10162" y="14140"><tspan fill="rgb(0,0,0)" stroke="none">11</tspan></tspan></tspan></text>
 <text class="TextShape"><tspan class="TextParagraph" font-family="Liberation Sans, sans-serif" font-size="353px" font-weight="400"><tspan class="TextPosition" x="10984" y="14140"><tspan fill="rgb(0,0,0)" stroke="none">12</tspan></tspan></tspan></text>
 <text class="TextShape"><tspan class="TextParagraph" font-family="Liberation Sans, sans-serif" font-size="353px" font-weight="400"><tspan class="TextPosition" x="11806" y="14140"><tspan fill="rgb(0,0,0)" stroke="none">13</tspan></tspan></tspan></text>
 <text class="TextShape"><tspan class="TextParagraph" font-family="Liberation Sans, sans-serif" font-size="353px" font-weight="400"><tspan class="TextPosition" x="12628" y="14140"><tspan fill="rgb(0,0,0)" stroke="none">14</tspan></tspan></tspan></text>
 <text class="TextShape"><tspan class="TextParagraph" font-family="Liberation Sans, sans-serif" font-size="353px" font-weight="400"><tspan class="TextPosition" x="13450" y="14140"><tspan fill="rgb(0,0,0)" stroke="none">15</tspan></tspan></tspan></text>
 <text class="TextShape"><tspan class="TextParagraph" font-family="Liberation Sans, sans-serif" font-size="353px" font-weight="400"><tspan class="TextPosition" x="14272" y="14140"><tspan fill="rgb(0,0,0)" stroke="none">16</tspan></tspan></tspan></text>
 <text class="TextShape"><tspan class="TextParagraph" font-family="Liberation Sans, sans-serif" font-size="353px" font-weight="400"><tspan class="TextPosition" x="15095" y="14140"><tspan fill="rgb(0,0,0)" stroke="none">17</tspan></tspan></tspan></text>
 <text class="TextShape"><tspan class="TextParagraph" font-family="Liberation Sans, sans-serif" font-size="353px" font-weight="400"><tspan class="TextPosition" x="15917" y="14140"><tspan fill="rgb(0,0,0)" stroke="none">18</tspan></tspan></tspan></text>
 <text class="TextShape"><tspan class="TextParagraph" font-family="Liberation Sans, sans-serif" font-size="353px" font-weight="400"><tspan class="TextPosition" x="16739" y="14140"><tspan fill="rgb(0,0,0)" stroke="none">19</tspan></tspan></tspan></text>
 <text class="TextShape"><tspan class="TextParagraph" font-family="Liberation Sans, sans-serif" font-size="353px" font-weight="400"><tspan class="TextPosition" x="17561" y="14140"><tspan fill="rgb(0,0,0)" stroke="none">20</tspan></tspan></tspan></text>
 <text class="TextShape"><tspan class="TextParagraph" font-family="Liberation Sans, sans-serif" font-size="353px" font-weight="400"><tspan class="TextPosition" x="18383" y="14140"><tspan fill="rgb(0,0,0)" stroke="none">21</tspan></tspan></tspan></text>
 <text class="TextShape"><tspan class="TextParagraph" font-family="Liberation Sans, sans-serif" font-size="353px" font-weight="400"><tspan class="TextPosition" x="19205" y="14140"><tspan fill="rgb(0,0,0)" stroke="none">22</tspan></tspan></tspan></text>
 <text class="TextShape"><tspan class="TextParagraph" font-family="Liberation Sans, sans-serif" font-size="353px" font-weight="400"><tspan class="TextPosition" x="20027" y="14140"><tspan fill="rgb(0,0,0)" stroke="none">23</tspan></tspan></tspan></text>
 <text class="TextShape"><tspan class="TextParagraph" font-family="Liberation Sans, sans-serif" font-size="353px" font-weight="400"><tspan class="TextPosition" x="20850" y="14140"><tspan fill="rgb(0,0,0)" stroke="none">24</tspan></tspan></tspan></text>
 <text class="TextShape"><tspan class="TextParagraph" font-family="Liberation Sans, sans-serif" font-size="353px" font-weight="400"><tspan class="TextPosition" x="1691" y="13693"><tspan fill="rgb(0,0,0)" stroke="none">0</tspan></tspan></tspan></text>
 <text class="TextShape"><tspan class="TextParagraph" font-family="Liberation Sans, sans-serif" font-size="353px" font-weight="400"><tspan class="TextPosition" x="1691" y="11523"><tspan fill="rgb(0,0,0)" stroke="none">5</tspan></tspan></tspan></text>
 <text class="TextShape"><tspan class="TextParagraph" font-family="Liberation Sans, sans-serif" font-size="353px" font-weight="400"><tspan class="TextPosition" x="1506" y="9354"><tspan fill="rgb(0,0,0)" stroke="none">10</tspan></tspan></tspan></text>
 <text class="TextShape"><tspan class="TextParagraph" font-family="Liberation Sans, sans-serif" font-size="353px" font-weight="400"><tspan class="TextPosition" x="1506" y="7184"><tspan fill="rgb(0,0,0)" stroke="none">15</tspan></tspan></tspan></text>
 <text class="TextShape"><tspan class="TextParagraph" font-family="Liberation Sans, sans-serif" font-size="353px" font-weight="400"><tspan class="TextPosition" x="1506" y="5015"><tspan fill="rgb(0,0,0)" stroke="none">20</tspan></tspan></tspan></text>
 <text class="TextShape"><tspan class="TextParagraph" font-family="Liberation Sans, sans-serif" font-size="353px" font-weight="400"><tspan class="TextPosition" x="1506" y="2846"><tspan fill="rgb(0,0,0)" stroke="none">25</tspan></tspan></tspan></text>
 <text class="TextShape"><tspan class="TextParagraph" font-family="Liberation Sans, sans-serif" font-size="459px" font-weight="400"><tspan class="TextPosition" x="9082" y="981"><tspan fill="rgb(0,0,0)" stroke="none">ROW vs COLUMN vs ELEMENT</tspan></tspan></tspan></text>
 <text class="TextShape"><tspan class="TextParagraph" font-family="Liberation Sans, sans-serif" font-size="388px" font-weight="400"><tspan class="TextPosition" x="11754" y="2021"><tspan fill="rgb(0,0,0)" stroke="none">(static)</tspan></tspan></tspan></text>
 <path fill="none" stroke="rgb(0,69,134)" stroke-width="80" stroke-linejoin="round" d="M 21831,7257 L 22631,7257"/>
 <path fill="none" stroke="rgb(255,66,14)" stroke-width="80" stroke-linejoin="round" d="M 21831,7755 L 22631,7755"/>
 <path fill="none" stroke="rgb(255,211,32)" stroke-width="80" stroke-linejoin="round" d="M 21831,8252 L 22631,8252"/>
 <text class="TextShape"><tspan class="TextParagraph" font-family="Liberation Sans, sans-serif" font-size="353px" font-weight="400"><tspan class="TextPosition" x="22731" y="7377"><tspan fill="rgb(0,0,0)" stroke="none">ROW</tspan></tspan></tspan></text>
 <text class="TextShape"><tspan class="TextParagraph" font-family="Liberation Sans, sans-serif" font-size="353px" font-weight="400"><tspan class="TextPosition" x="22731" y="7874"><tspan fill="rgb(0,0,0)" stroke="none">COLUMN</tspan></tspan></tspan></text>
 <text class="TextShape"><tspan class="TextParagraph" font-family="Liberation Sans, sans-serif" font-size="353px" font-weight="400"><tspan class="TextPosition" x="22731" y="8372"><tspan fill="rgb(0,0,0)" stroke="none">ELEMENT</tspan></tspan></tspan></text>
 <text class="TextShape"><tspan class="TextParagraph" font-family="Liberation Sans, sans-serif" font-size="318px" font-weight="400"><tspan class="TextPosition" x="10767" y="14917"><tspan fill="rgb(0,0,0)" stroke="none">Threads</tspan></tspan></tspan></text>
 <text class="TextShape" transform="rotate(-90 837 8638)"><tspan class="TextParagraph" font-family="Liberation Sans, sans-serif" font-size="318px" font-weight="400"><tspan class="TextPosition" x="837" y="8638"><tspan fill="rgb(0,0,0)" stroke="none">Zeit</tspan></tspan></tspan></text>
</svg>
